SplineFontDB: 1.0
FontName: DBThaiText-BoldOblique
FullName: DBThaiText Bold Oblique
FamilyName: DBThaiText
Weight: Bold
Copyright: Typeface (c) The Monotype Corporation plc. Data (c) The Monotype Corporation plc/Type Solutions Inc. 1990-1992. All Rights Reserved\n\nModified by TLWG
Version: 1.1 : May 12, 2003
ItalicAngle: -17.9
UnderlinePosition: -477
UnderlineWidth: 205
Ascent: 1638
Descent: 410
NeedsXUIDChange: 1
FSType: 0
PfmFamily: 33
TTFWeight: 700
TTFWidth: 5
Panose: 2 0 8 3 0 0 0 0 0 0
LineGap: 184
VLineGap: 0
LangName: 1033 "" "" "" "PfaEdit : DBThaiTextBoldItalic : 13-0-2003" 
Encoding: compacted
OldEncoding: iso8859_1
DisplaySize: -72
AntiAlias: 1
WinInfo: 24 8 2
BeginPrivate: 3
BlueValues 31 [-31 0 726 753 786 804 959 976]
OtherBlues 11 [-260 -260]
ForceBold 4 true
EndPrivate
BeginChars: 293 258
StartChar: .notdef
Encoding: 0 -1
OldEncoding: 0
Width: 1090
Flags: HW
HStem: 1742 144<235 797>
VStem: 77 146<101 1735> 801 146<101 1735>
Fore
77 -58 m 1
 77 1886 l 1
 947 1886 l 1
 947 -58 l 1
 77 -58 l 1
223 86 m 1
 801 86 l 1
 801 1742 l 1
 223 1742 l 1
 223 86 l 1
EndSplineSet
MinimumDistance: x2,-1 
EndChar
StartChar: exclam
Encoding: 33 33
OldEncoding: 33
Width: 408
Flags: HW
HStem: -1 21G<-35.1201 161.5> 939 20G<276.76 471.12>
DStem: 27.0303 190.85 221.39 190.85 -35.1201 -1.25 161.5 -1.25 276.76 959.25 471.12 959.25 186.36 681.27 380.72 681.27
Fore
104 272 m 1
 186 681 l 1
 277 959 l 1
 471 959 l 1
 381 681 l 1
 194 272 l 1
 104 272 l 1
27 191 m 1
 221 191 l 1
 162 -1 l 1
 -35 -1 l 1
 27 191 l 1
EndSplineSet
EndChar
StartChar: quotedbl
Encoding: 34 34
OldEncoding: 34
Width: 621
Flags: W
HStem: 939 20G<220 417 516 713>
Fore
161 620 m 1
 169 802 l 1
 220 959 l 5
 417 959 l 1
 366 802 l 1
 249 620 l 1
 161 620 l 1
457 620 m 1
 465 802 l 1
 516 959 l 1
 713 959 l 1
 662 802 l 1
 545 620 l 1
 457 620 l 1
EndSplineSet
EndChar
StartChar: numbersign
Encoding: 35 35
OldEncoding: 35
Width: 688
Flags: HW
HStem: 191 150<-75 -10 228 262 500 566> 503 148<79 154 375 422 645 701>
DStem: -3.41504 191.14 137.835 191.14 -119.805 -35.9902 21.4453 -35.9902 160.435 503.02 299.425 503.02 74.5547 341.43 213.545 341.43 268.915 191.14 407.905 191.14 151.395 -35.9902 294.905 -35.9902 374.005 919.99 512.995 919.99 235.015 651.05 374.005 651.05 436.155 503.02 575.145 503.02 348.015 341.43 489.265 341.43 644.075 919.99 783.065 919.99 507.345 653.31 644.075 651.05
Fore
374 920 m 1
 513 920 l 1
 374 651 l 1
 507 653 l 1
 644 920 l 1
 783 920 l 1
 644 651 l 1
 748 651 l 1
 702 503 l 1
 575 503 l 1
 489 341 l 1
 615 341 l 1
 566 191 l 1
 408 191 l 1
 295 -36 l 1
 151 -36 l 1
 269 191 l 1
 138 191 l 1
 21 -36 l 1
 -120 -36 l 1
 -3 191 l 1
 -122 191 l 1
 -73 341 l 1
 75 341 l 1
 160 503 l 1
 34 503 l 1
 80 651 l 1
 235 651 l 1
 374 920 l 1
299 503 m 1
 214 341 l 1
 348 341 l 1
 436 503 l 1
 299 503 l 1
EndSplineSet
EndChar
StartChar: dollar
Encoding: 36 36
OldEncoding: 36
Width: 688
Flags: HW
HStem: -19 20G<39.0449 40.1748>
VStem: 423 192<290.27 354.68> 557 174<718.54 760.35>
DStem: 133.965 -22.7402 220.975 -20.4805 89.8945 -158.34 178.035 -158.34 275.215 410.05 350.925 378.41 180.295 116.25 267.305 120.77 404.035 808.94 489.915 804.42 326.065 570.51 404.035 542.26
Fore
717 663 m 1
 545 663 l 1
 553 686 557 704 557 719 c 0
 557 734 553 749 545 763 c 0
 530 784 512 798 490 804 c 1
 404 542 l 1
 485 520 545 487 583 445 c 0
 604 419 615 389 615 355 c 0
 615 331 610 305 601 277 c 0
 580 216 554 167 523 131 c 0
 491 93 457 65 421 45 c 0
 383 22 347 8 311 1 c 1
 221 -20 l 1
 178 -158 l 1
 90 -158 l 1
 134 -23 l 1
 90 -15 l 1
 40 1 l 1
 39 1 l 2
 16 8 -1 16 -12 26 c 0
 -28 40 -42 56 -54 72 c 0
 -71 99 -80 130 -80 167 c 0
 -80 203 -72 241 -58 279 c 1
 112 279 l 1
 106 256 103 233 103 211 c 2
 103 195 l 1
 106 176 111 160 119 149 c 0
 127 141 137 134 150 129 c 1
 157 123 167 119 180 116 c 1
 275 410 l 1
 205 425 152 453 115 494 c 0
 90 522 77 556 77 595 c 0
 77 612 82 636 90 668 c 1
 116 748 159 812 221 860 c 0
 281 906 356 933 446 940 c 1
 470 1012 l 1
 557 1012 l 1
 534 940 l 1
 665 929 731 869 731 760 c 0
 731 729 726 697 717 663 c 1
326 571 m 1
 404 809 l 1
 333 797 285 754 258 681 c 1
 254 648 l 1
 254 633 l 1
 256 619 264 607 277 598 c 1
 289 586 305 577 326 571 c 1
351 378 m 1
 267 121 l 1
 300 133 l 1
 344 151 l 1
 361 162 375 172 384 182 c 0
 398 199 408 216 413 233 c 0
 420 250 423 269 423 290 c 0
 423 332 399 362 351 378 c 1
EndSplineSet
EndChar
StartChar: percent
Encoding: 37 37
OldEncoding: 37
Width: 1103
Flags: HW
HStem: -21 21G<48.4404 153.53> -14 129<675.59 717.4> 335 132<789.72 833.79> 446 132<202.12 242.8> 798 131<315.12 359.19>
VStem: 21 139<610.745 654.815> 394 138<726.005 763.295> 500 139<149.705 191.515> 868 139<260.445 299.995>
DStem: 886.9 933.925 988.6 933.925 48.4404 -20.9248 153.53 -20.9248
Fore
154 -21 m 1
 48 -21 l 1
 887 934 l 1
 989 934 l 1
 154 -21 l 1
512 227 m 0
 531 288 573 344 639 395 c 0
 701 443 766 467 834 467 c 0
 899 467 947 443 980 395 c 0
 998 368 1007 336 1007 300 c 0
 1007 276 1002 251 993 227 c 1
 973 158 931 101 868 55 c 0
 806 9 742 -14 676 -14 c 0
 607 -14 558 9 528 55 c 1
 509 86 500 117 500 150 c 0
 500 179 504 205 512 227 c 0
35 686 m 0
 58 754 101 811 163 858 c 0
 224 906 289 929 359 929 c 0
 425 929 473 906 505 858 c 0
 523 830 532 798 532 763 c 0
 532 738 528 712 519 686 c 0
 498 619 457 563 394 516 c 0
 330 469 266 446 202 446 c 0
 134 446 84 469 51 516 c 0
 31 542 21 574 21 611 c 0
 21 634 26 659 35 686 c 0
644 227 m 1
 639 192 l 1
 639 176 644 161 653 147 c 0
 665 126 687 115 717 115 c 0
 747 115 776 126 806 147 c 0
 836 171 854 197 861 227 c 1
 865 238 868 249 868 260 c 0
 868 276 864 289 856 302 c 0
 843 324 821 335 790 335 c 0
 761 335 732 324 704 302 c 1
 676 284 656 259 644 227 c 1
167 686 m 0
 163 675 160 665 160 655 c 0
 160 639 165 624 174 611 c 0
 190 589 213 578 243 578 c 0
 274 578 303 589 331 611 c 0
 358 630 377 656 386 686 c 0
 392 699 394 712 394 726 c 0
 394 740 390 754 382 768 c 0
 368 788 346 798 315 798 c 0
 285 798 255 788 225 768 c 1
 198 745 179 718 167 686 c 0
EndSplineSet
MinimumDistance: x8,-1 
EndChar
StartChar: ampersand
Encoding: 38 38
OldEncoding: 38
Width: 899
Flags: HW
HStem: -26 151<182 227.49> 0 21G<502.08 715.65> 813 148<488.52 537.11>
VStem: -62 188<159.583 234.163>
Fore
650 493 m 1
 804 493 l 1
 784 436 759 386 729 343 c 0
 694 288 656 244 616 213 c 1
 716 0 l 1
 502 0 l 1
 464 82 l 1
 401 40 356 14 329 3 c 0
 285 -16 236 -26 183 -26 c 0
 98 -28 30 -4 -18 47 c 0
 -47 76 -62 114 -62 160 c 0
 -62 190 -57 221 -46 252 c 1
 -20 310 l 1
 0 351 27 387 60 417 c 1
 98 448 131 470 160 484 c 0
 181 494 211 509 250 530 c 1
 221 588 l 1
 210 606 204 627 202 650 c 1
 199 669 l 1
 199 687 203 707 211 729 c 0
 222 763 239 794 261 822 c 0
 297 866 339 901 387 926 c 0
 434 949 484 961 537 961 c 0
 594 961 639 947 674 919 c 0
 700 896 713 865 713 826 c 1
 711 801 l 1
 702 751 l 1
 686 699 658 656 618 621 c 0
 583 589 534 555 473 519 c 1
 556 340 l 1
 571 352 589 370 609 396 c 1
 628 423 641 447 648 468 c 1
 650 493 l 1
398 674 m 1
 424 623 l 1
 470 645 l 1
 502 671 l 2
 516 684 527 700 535 720 c 0
 541 738 544 756 544 773 c 2
 544 787 l 1
 542 804 523 813 489 813 c 0
 446 813 415 797 396 766 c 1
 391 751 389 736 389 722 c 0
 389 704 392 688 398 674 c 1
405 201 m 1
 301 419 l 1
 192 361 l 1
 164 342 144 314 133 278 c 0
 128 262 126 247 126 234 c 0
 126 206 135 181 153 157 c 0
 170 136 195 125 227 125 c 0
 270 125 330 151 405 201 c 1
EndSplineSet
MinimumDistance: x46,-1 
EndChar
StartChar: quotesingle
Encoding: 39 39
OldEncoding: 39
Width: 294
Flags: W
HStem: 939 20G<220 417>
Fore
161 620 m 5
 169 802 l 5
 220 959 l 5
 417 959 l 5
 366 802 l 5
 249 620 l 5
 161 620 l 5
EndSplineSet
EndChar
StartChar: parenleft
Encoding: 40 40
OldEncoding: 40
Width: 402
Flags: HW
HStem: 955 20G<430.46 561.54>
Fore
430 975 m 1
 562 975 l 1
 470 870 397 776 342 694 c 0
 278 601 232 509 203 419 c 0
 197 401 192 382 188 361 c 1
 158 259 141 150 137 32 c 1
 134 -21 l 1
 134 -114 144 -192 164 -253 c 1
 32 -253 l 1
 -5 -88 l 1
 -14 -51 -19 -12 -22 32 c 1
 -22 81 l 2
 -22 126 -20 160 -17 184 c 0
 -12 232 -1 291 18 361 c 0
 33 413 60 475 99 546 c 0
 130 604 165 660 203 712 c 0
 242 766 276 809 307 842 c 2
 430 975 l 1
EndSplineSet
EndChar
StartChar: parenright
Encoding: 41 41
OldEncoding: 41
Width: 422
Flags: HW
HStem: 955 20G<214.765 343.585>
Fore
215 975 m 1
 344 975 l 1
 377 870 398 772 407 683 c 1
 409 630 l 1
 409 546 393 456 361 361 c 0
 322 249 270 146 203 54 c 0
 141 -32 54 -134 -56 -253 c 1
 -184 -253 l 1
 -109 -175 -37 -80 32 32 c 0
 106 156 159 266 193 361 c 2
 213 414 l 1
 226 456 237 503 244 558 c 0
 251 594 254 637 254 688 c 2
 254 703 l 1
 252 762 248 808 242 842 c 0
 235 882 226 927 215 975 c 1
EndSplineSet
EndChar
StartChar: asterisk
Encoding: 42 42
OldEncoding: 42
Width: 482
Flags: HW
DStem: 135.12 675.815 183.71 603.495 -8.38965 548.125 54.8896 476.935 183.71 603.495 291.06 675.815 242.47 476.935 350.95 548.125 244.73 930.065 346.43 930.065 191.62 768.475 295.58 768.475
Fore
55 477 m 1
 -8 548 l 1
 135 676 l 1
 11 727 l 1
 73 819 l 1
 192 768 l 1
 245 930 l 1
 346 930 l 1
 296 768 l 1
 444 819 l 1
 450 727 l 1
 291 676 l 1
 351 548 l 1
 242 477 l 1
 184 603 l 1
 55 477 l 1
EndSplineSet
MinimumDistance: x12,-1 
EndChar
StartChar: plus
Encoding: 43 43
OldEncoding: 43
Width: 723
Flags: HW
HStem: 391 157<92 283 505 680> 769 20G<411.86 570.06>
DStem: 283.04 390.965 440.11 390.965 203.94 150.275 361.01 150.275 411.86 788.725 570.06 788.725 333.89 548.035 490.96 548.035
Fore
412 789 m 5
 570 789 l 5
 491 548 l 5
 732 548 l 5
 681 391 l 5
 440 391 l 5
 361 150 l 5
 204 150 l 5
 283 391 l 5
 42 391 l 5
 93 548 l 5
 334 548 l 5
 412 789 l 5
EndSplineSet
MinimumDistance: x1,-1 
EndChar
StartChar: comma
Encoding: 44 44
OldEncoding: 44
Width: 424
Flags: HW
Fore
139 81 m 4
 117 19 79 -33 23 -74 c 4
 -35 -115 -86 -138 -130 -144 c 5
 -134 -111 l 5
 -96 -94 -68 -79 -48 -67 c 4
 -28 -53 -9 -31 7 -0 c 5
 -17 -0 -38 7 -57 21 c 5
 -70 28 -76 41 -76 61 c 4
 -76 73 -74 86 -70 99 c 4
 -61 126 -45 150 -21 172 c 5
 4 190 29 200 56 200 c 4
 96 200 122 189 134 167 c 4
 142 155 146 140 146 123 c 4
 146 111 144 97 139 81 c 4
EndSplineSet
EndChar
StartChar: hyphen
Encoding: 45 45
OldEncoding: 45
Width: 412
Flags: HW
HStem: 286 180<38 341>
Fore
40 466 m 1
 397 466 l 1
 341 286 l 1
 -18 286 l 1
 40 466 l 1
EndSplineSet
EndChar
StartChar: period
Encoding: 46 46
OldEncoding: 46
Width: 309
Flags: HW
Fore
-28 -27 m 4
 -59 -27 -80 -18 -92 1 c 4
 -98 11 -101 22 -101 35 c 5
 -96 70 l 5
 -87 96 -71 118 -48 137 c 4
 -24 156 3 165 34 165 c 4
 62 165 82 156 94 137 c 4
 100 129 103 118 103 105 c 4
 103 93 100 81 96 70 c 5
 89 43 74 20 50 1 c 4
 28 -18 2 -27 -28 -27 c 4
EndSplineSet
EndChar
StartChar: slash
Encoding: 47 47
OldEncoding: 47
Width: 344
Flags: HW
HStem: -17 21G<-173.48 -89.8604>
DStem: 414.12 943.25 495.48 943.25 -173.48 -17.25 -89.8604 -17.25
Fore
414 943 m 1
 495 943 l 1
 -90 -17 l 1
 -173 -17 l 1
 414 943 l 1
EndSplineSet
EndChar
StartChar: zero
Encoding: 48 48
OldEncoding: 48
Width: 689
Flags: HW
HStem: -30 170<155.085 210.455> 787 167<421.765 477.135>
VStem: -57 182<173 205>
Fore
155 -30 m 0
 111 -30 71 -22 38 -6 c 0
 1 11 -24 33 -37 61 c 0
 -51 92 -57 130 -57 175 c 0
 -57 253 -38 349 0 464 c 0
 61 652 135 785 222 864 c 0
 253 892 294 914 343 931 c 0
 384 947 429 954 477 954 c 0
 577 954 643 924 674 864 c 0
 689 835 696 797 696 751 c 0
 696 674 677 579 639 464 c 0
 576 273 500 138 412 61 c 1
 340 1 255 -30 155 -30 c 0
210 140 m 0
 270 140 315 161 345 202 c 1
 375 248 411 335 453 464 c 0
 494 590 514 676 514 723 c 2
 514 725 l 2
 514 767 484 787 422 787 c 0
 396 787 371 782 347 772 c 0
 322 759 304 743 294 725 c 1
 265 687 228 600 183 464 c 0
 144 340 125 256 125 213 c 2
 125 202 l 1
 125 200 l 2
 125 160 153 140 210 140 c 0
EndSplineSet
MinimumDistance: x21,-1 
EndChar
StartChar: one
Encoding: 49 49
OldEncoding: 49
Width: 685
Flags: HW
HStem: 0 21G<115.57 300.89> 646 123<143.865 173.021>
DStem: 326.88 645.605 603.73 932.625 115.57 0.375 300.89 0.375
Fore
604 933 m 1
 301 0 l 1
 116 0 l 1
 327 646 l 1
 104 646 l 1
 144 769 l 1
 178 769 218 773 261 782 c 0
 303 789 337 801 363 817 c 1
 426 853 466 891 482 933 c 1
 604 933 l 1
EndSplineSet
MinimumDistance: x0,-1 
EndChar
StartChar: two
Encoding: 50 50
OldEncoding: 50
Width: 694
Flags: HW
HStem: -1 166<151 482>
VStem: 524 188<723.314 762.864>
Fore
538 165 m 1
 482 -1 l 1
 -152 -1 l 1
 -131 55 -102 111 -65 168 c 0
 -29 221 23 269 94 311 c 2
 275 423 l 1
 341 461 387 491 412 513 c 0
 462 558 494 603 509 646 c 1
 516 674 520 692 522 703 c 1
 524 723 l 1
 524 747 516 765 500 776 c 1
 481 794 457 802 429 802 c 1
 396 798 l 1
 328 783 275 720 239 610 c 1
 61 610 l 1
 95 721 150 807 225 867 c 0
 304 930 395 959 498 955 c 0
 616 951 685 906 706 818 c 0
 709 805 711 786 712 763 c 0
 712 727 703 678 686 615 c 1
 646 524 539 430 366 330 c 0
 245 259 172 204 144 165 c 1
 538 165 l 1
EndSplineSet
EndChar
StartChar: three
Encoding: 51 51
OldEncoding: 51
Width: 690
Flags: HW
HStem: -32 148<151.67 235.29>
VStem: 397 194<312.888 367.127>
Fore
-61 274 m 1
 114 274 l 1
 103 204 l 1
 103 200 l 2
 103 185 106 172 112 160 c 0
 120 148 133 138 152 131 c 0
 174 121 201 116 235 116 c 1
 266 130 286 140 295 147 c 0
 343 181 374 222 390 272 c 0
 395 286 397 299 397 313 c 0
 397 339 389 360 374 378 c 1
 346 405 299 418 233 418 c 1
 275 542 l 1
 323 542 368 551 408 568 c 0
 446 584 473 611 490 648 c 2
 508 688 l 1
 513 708 516 723 516 734 c 2
 516 749 l 1
 513 766 503 781 487 792 c 0
 470 803 448 809 421 809 c 0
 371 811 331 796 302 763 c 1
 276 731 256 690 240 639 c 1
 70 639 l 1
 91 707 119 762 152 807 c 0
 184 850 236 890 306 924 c 0
 352 947 419 957 508 955 c 0
 577 955 628 936 661 899 c 1
 686 869 700 836 702 800 c 1
 699 751 691 708 677 670 c 0
 666 637 647 607 619 580 c 0
 601 561 567 535 518 500 c 1
 559 469 583 436 589 401 c 1
 591 367 l 1
 591 331 584 290 569 244 c 1
 542 176 495 113 427 54 c 1
 358 -3 266 -32 152 -32 c 0
 112 -32 71 -25 26 -10 c 0
 -13 4 -42 32 -61 72 c 0
 -74 99 -80 126 -80 154 c 2
 -80 167 l 1
 -77 206 -71 242 -61 274 c 1
EndSplineSet
MinimumDistance: x32,-1 
EndChar
StartChar: four
Encoding: 52 52
OldEncoding: 52
Width: 691
Flags: HW
HStem: 0 21G<214.47 399.79> 206 150<100 278 532 564>
DStem: 282.27 206.035 467.59 206.035 214.47 0.375 399.79 0.375 455.16 745.045 702.63 932.625 330.86 356.325 516.18 356.325 487.93 932.625 455.16 745.045 -39.7803 364.235 90.1699 356.325
Fore
488 933 m 1
 703 933 l 1
 516 356 l 1
 613 356 l 1
 565 206 l 1
 468 206 l 1
 400 0 l 1
 214 0 l 1
 282 206 l 1
 -91 206 l 1
 -40 364 l 1
 488 933 l 1
455 745 m 1
 90 356 l 1
 331 356 l 1
 455 745 l 1
EndSplineSet
EndChar
StartChar: five
Encoding: 53 53
OldEncoding: 53
Width: 687
Flags: HW
HStem: 771 164<319 704>
DStem: 261.81 934.38 320.57 770.53 7.55957 416.84 227.91 578.43
Fore
-76 245 m 1
 107 245 l 1
 102 196 l 1
 102 187 l 2
 102 171 111 157 128 146 c 0
 145 134 171 128 206 128 c 0
 254 130 295 148 330 183 c 0
 364 218 388 258 401 305 c 0
 412 340 418 368 418 391 c 0
 418 405 415 418 410 428 c 0
 393 467 357 486 301 484 c 0
 251 484 209 461 177 417 c 1
 8 417 l 1
 262 935 l 1
 758 935 l 1
 705 771 l 1
 321 771 l 1
 228 578 l 1
 278 602 312 616 327 620 c 0
 357 628 383 632 405 632 c 0
 441 632 473 626 500 616 c 0
 558 594 593 555 604 499 c 0
 609 480 612 460 612 437 c 0
 612 402 605 361 591 314 c 0
 570 245 532 180 475 117 c 1
 427 71 383 38 343 18 c 0
 297 -5 235 -20 158 -28 c 1
 101 -28 57 -22 28 -9 c 0
 0 4 -24 21 -43 44 c 0
 -66 69 -81 93 -87 117 c 1
 -92 161 l 1
 -90 185 l 1
 -87 206 -83 225 -76 245 c 1
EndSplineSet
MinimumDistance: x16,-1 
EndChar
StartChar: six
Encoding: 54 54
OldEncoding: 54
Width: 688
Flags: HW
HStem: 725 21G<535.79 709.81>
Fore
710 725 m 1
 536 725 l 1
 536 780 509 809 457 811 c 0
 418 811 383 802 353 783 c 1
 323 766 300 746 286 723 c 1
 260 689 240 647 224 597 c 0
 216 574 211 557 211 547 c 1
 245 570 277 587 309 597 c 0
 345 610 387 617 436 617 c 0
 521 617 575 579 600 505 c 0
 608 477 613 452 613 429 c 0
 613 397 605 359 591 316 c 0
 570 251 543 198 510 156 c 0
 460 92 409 47 357 19 c 0
 300 -11 237 -27 167 -30 c 0
 97 -32 41 -11 -1 34 c 0
 -39 74 -59 126 -59 188 c 2
 -59 195 l 1
 -51 278 -31 368 1 466 c 0
 37 574 72 655 108 709 c 0
 152 779 209 838 279 887 c 0
 344 933 417 957 498 957 c 1
 549 954 l 1
 634 943 685 914 702 866 c 0
 712 841 717 815 717 787 c 0
 717 766 714 745 710 725 c 1
175 392 m 0
 153 364 136 332 123 297 c 0
 114 272 110 248 110 226 c 0
 110 205 113 189 119 177 c 0
 131 150 157 133 198 126 c 1
 245 126 286 140 321 167 c 1
 368 208 400 255 418 310 c 0
 427 336 432 360 432 383 c 0
 432 395 430 407 425 420 c 0
 408 457 373 475 321 475 c 1
 295 473 271 465 247 452 c 1
 219 440 196 420 175 392 c 0
EndSplineSet
EndChar
StartChar: seven
Encoding: 55 55
OldEncoding: 55
Width: 681
Flags: HW
HStem: 0 21G<-27.3203 158> 769 164<141 533>
Fore
142 933 m 1
 795 933 l 1
 749 789 l 1
 687 736 625 677 561 612 c 0
 496 544 442 481 399 424 c 0
 341 347 297 280 265 223 c 0
 220 143 184 69 158 0 c 1
 -27 0 l 1
 14 92 55 173 96 241 c 0
 137 311 179 374 221 429 c 0
 268 487 317 542 367 592 c 0
 421 648 480 707 547 769 c 1
 89 769 l 1
 142 933 l 1
EndSplineSet
EndChar
StartChar: eight
Encoding: 56 56
OldEncoding: 56
Width: 690
Flags: HW
VStem: 89 164<637 659> 406 201<339 366.898> 547 165<736.408 766.919>
Fore
494 133 m 1
 451 81 398 41 335 12 c 0
 265 -18 202 -32 147 -30 c 1
 90 -30 38 -14 -8 17 c 0
 -54 46 -80 86 -87 135 c 1
 -89 173 l 1
 -89 199 -83 232 -71 272 c 0
 -36 380 38 459 152 510 c 1
 128 535 111 560 98 587 c 2
 96 593 l 1
 92 608 89 623 89 637 c 0
 89 659 92 679 98 697 c 0
 111 735 134 775 165 816 c 1
 206 861 251 895 300 919 c 0
 350 944 403 957 459 957 c 0
 590 957 668 922 693 853 c 0
 706 821 712 793 712 767 c 0
 712 744 708 719 700 695 c 0
 688 655 663 616 626 579 c 1
 589 545 551 522 512 510 c 1
 559 495 587 467 598 427 c 0
 604 409 607 389 607 367 c 0
 607 343 602 316 593 286 c 0
 575 228 542 177 494 133 c 1
445 591 m 1
 469 602 489 618 505 639 c 0
 525 663 537 684 543 703 c 1
 547 736 l 1
 547 751 544 764 538 774 c 0
 525 799 494 813 448 816 c 1
 399 816 359 804 326 780 c 1
 294 761 272 732 260 695 c 0
 256 681 253 667 253 654 c 0
 253 633 258 614 267 597 c 0
 282 573 308 561 344 561 c 0
 385 559 419 569 445 591 c 1
318 167 m 1
 332 177 346 193 360 215 c 1
 376 239 388 262 395 286 c 0
 402 308 406 327 406 341 c 0
 406 353 404 365 399 376 c 0
 388 414 358 434 311 436 c 0
 267 436 227 421 191 392 c 0
 162 368 138 331 121 281 c 0
 112 252 108 228 108 209 c 1
 112 177 l 1
 130 142 159 124 198 124 c 1
 241 121 281 135 318 167 c 1
EndSplineSet
EndChar
StartChar: nine
Encoding: 57 57
OldEncoding: 57
Width: 691
Flags: HW
HStem: -30 146<129.59 174.79> 804 157<415.48 461.81>
VStem: -79 185<157.575 192.605> 523 171<704 727>
Fore
-70 221 m 1
 110 221 l 1
 106 193 l 1
 106 181 110 166 117 149 c 1
 131 127 150 116 175 116 c 0
 246 116 304 145 347 204 c 0
 380 251 405 295 419 334 c 0
 423 350 426 364 426 376 c 2
 426 385 l 1
 391 355 351 332 307 316 c 0
 286 307 264 303 243 303 c 0
 220 303 196 305 170 308 c 1
 86 327 39 379 29 464 c 1
 29 495 l 2
 29 528 37 571 53 625 c 0
 76 698 108 758 150 804 c 0
 190 848 238 886 293 917 c 0
 347 946 403 961 462 961 c 1
 506 956 l 1
 529 956 556 949 585 935 c 0
 616 919 641 898 662 871 c 0
 681 846 691 818 691 785 c 2
 691 776 l 1
 694 727 l 1
 694 659 680 582 652 498 c 0
 628 426 597 356 561 288 c 0
 527 219 492 166 457 128 c 0
 400 63 344 20 289 1 c 0
 231 -20 178 -30 130 -30 c 0
 36 -30 -24 -2 -51 54 c 1
 -70 88 -79 123 -79 158 c 0
 -79 181 -76 202 -70 221 c 1
510 762 m 1
 494 790 462 804 415 804 c 0
 376 804 334 785 289 749 c 1
 257 718 232 677 214 625 c 0
 207 599 203 578 203 563 c 0
 203 540 208 520 219 504 c 0
 238 476 268 462 309 462 c 0
 351 462 390 477 428 508 c 0
 466 539 492 578 508 625 c 0
 518 655 523 683 523 711 c 0
 523 735 519 752 510 762 c 1
EndSplineSet
EndChar
StartChar: colon
Encoding: 58 58
OldEncoding: 58
Width: 375
Flags: HW
HStem: -24 185<-8.10547 51.7852> 537 182<174.955 232.585>
Fore
-8 -24 m 4
 -37 -24 -57 -14 -66 5 c 5
 -72 13 -75 23 -75 36 c 4
 -75 47 -73 58 -68 69 c 4
 -61 95 -47 116 -24 133 c 5
 -4 152 21 161 52 161 c 4
 80 161 100 152 112 133 c 5
 120 124 124 112 124 99 c 4
 124 90 122 80 117 69 c 4
 110 45 94 23 71 5 c 4
 50 -14 24 -24 -8 -24 c 4
175 537 m 4
 146 537 126 546 114 564 c 4
 109 573 107 585 107 599 c 5
 112 629 l 5
 118 650 133 670 156 692 c 5
 178 710 203 719 233 719 c 4
 262 719 283 710 295 694 c 4
 301 684 304 672 304 657 c 5
 299 629 l 5
 291 606 276 584 253 564 c 5
 230 546 204 537 175 537 c 4
EndSplineSet
EndChar
StartChar: semicolon
Encoding: 59 59
OldEncoding: 59
Width: 424
Flags: HW
HStem: 479 205<155.385 223.185>
Fore
155 479 m 4
 123 479 102 489 93 510 c 5
 87 519 84 532 84 547 c 5
 89 581 l 5
 98 608 115 632 140 653 c 4
 162 673 190 684 223 684 c 4
 255 684 276 673 288 653 c 4
 294 643 297 631 297 616 c 4
 297 604 294 593 290 581 c 4
 281 554 265 531 241 510 c 5
 216 489 187 479 155 479 c 4
142 81 m 4
 120 18 82 -34 27 -74 c 4
 -33 -115 -84 -138 -127 -144 c 5
 -132 -111 l 5
 -98 -96 -70 -81 -46 -67 c 4
 -24 -52 -6 -30 7 -0 c 5
 -15 -0 -36 7 -55 21 c 5
 -68 29 -74 42 -74 61 c 4
 -74 74 -71 87 -66 99 c 4
 -57 127 -41 151 -18 172 c 4
 6 191 31 200 58 200 c 4
 99 200 125 189 137 167 c 4
 145 154 149 140 149 123 c 4
 149 111 146 97 142 81 c 4
EndSplineSet
EndChar
StartChar: less
Encoding: 60 60
OldEncoding: 60
Width: 719
Flags: HW
DStem: 27.54 390.965 284.05 468.935 591.41 150.275 646.78 320.905 800.46 788.725 743.96 616.965 78.3896 548.035 284.05 468.935
Fore
28 391 m 5
 78 548 l 5
 800 789 l 5
 744 617 l 5
 284 469 l 5
 647 321 l 5
 591 150 l 5
 28 391 l 5
EndSplineSet
EndChar
StartChar: equal
Encoding: 61 61
OldEncoding: 61
Width: 722
Flags: HW
HStem: 230 163<44 630> 549 157<146 734>
Fore
147 706 m 5
 786 706 l 5
 735 549 l 5
 96 549 l 5
 147 706 l 5
45 393 m 5
 682 393 l 5
 631 230 l 5
 -8 230 l 5
 45 393 l 5
EndSplineSet
EndChar
StartChar: greater
Encoding: 62 62
OldEncoding: 62
Width: 728
Flags: HW
DStem: 474.08 468.935 677.48 390.965 10.7803 320.905 -42.3301 150.275
Fore
166 789 m 5
 728 548 l 5
 677 391 l 5
 -42 150 l 5
 11 321 l 5
 474 469 l 5
 108 617 l 5
 166 789 l 5
EndSplineSet
MinimumDistance: x2,-1 
EndChar
StartChar: question
Encoding: 63 63
OldEncoding: 63
Width: 750
Flags: HW
HStem: -2 21G<100.6 297.22> 806 173<455.42 501.75>
DStem: 163.88 189.68 360.5 189.68 100.6 -2.41992 297.22 -2.41992
Fore
355 261 m 1
 196 261 l 1
 221 335 251 390 286 426 c 1
 321 465 372 505 441 546 c 0
 493 576 529 621 547 682 c 1
 552 695 555 708 555 720 c 0
 555 740 548 758 536 773 c 0
 518 795 491 806 455 806 c 0
 417 806 379 791 341 761 c 0
 303 732 274 689 255 632 c 1
 78 632 l 1
 115 745 178 838 268 909 c 1
 339 955 417 979 502 979 c 0
 553 979 597 971 635 956 c 0
 674 940 702 919 719 894 c 1
 744 861 756 821 756 775 c 0
 756 743 750 712 739 682 c 1
 723 629 697 582 661 541 c 1
 656 534 644 522 626 507 c 0
 615 497 601 486 584 477 c 1
 571 466 557 457 542 451 c 1
 496 421 l 2
 446 388 416 367 407 358 c 0
 405 356 403 354 401 351 c 0
 382 328 367 298 355 261 c 1
101 -2 m 1
 164 190 l 1
 360 190 l 1
 297 -2 l 1
 101 -2 l 1
EndSplineSet
MinimumDistance: x26,-1 
EndChar
StartChar: at
Encoding: 64 64
OldEncoding: 64
Width: 1207
Flags: HW
HStem: -173 116<366 415> 85 104<741 767> 880 108<739 793.545>
VStem: -81 134<212 244>
Fore
860 679 m 1
 979 679 l 1
 740 281 l 1
 727 228 l 1
 727 223 l 2
 727 210 731 200 740 193 c 0
 746 190 756 189 768 189 c 0
 791 189 813 194 833 205 c 1
 865 217 895 236 923 260 c 0
 959 292 981 316 990 332 c 1
 1032 378 1063 433 1083 496 c 0
 1093 527 1099 558 1099 589 c 1
 1101 607 l 1
 1101 638 1092 670 1074 704 c 0
 1054 745 1028 779 995 807 c 0
 934 856 850 880 740 880 c 0
 710 880 671 877 624 869 c 0
 574 860 517 835 453 794 c 1
 395 760 336 715 277 661 c 0
 178 571 110 466 71 346 c 0
 59 308 53 275 53 246 c 2
 53 237 l 2
 53 205 56 177 62 154 c 0
 67 138 74 117 85 92 c 1
 129 27 198 -18 294 -43 c 0
 328 -52 367 -57 412 -57 c 0
 503 -57 598 -40 699 -8 c 1
 703 -112 l 1
 607 -152 496 -173 368 -173 c 0
 326 -173 291 -171 264 -166 c 0
 209 -155 172 -147 151 -140 c 0
 116 -129 82 -109 49 -80 c 0
 10 -49 -21 -10 -44 34 c 0
 -65 74 -77 122 -79 177 c 1
 -81 214 l 1
 -81 256 -76 293 -65 326 c 0
 -49 375 -29 422 -5 467 c 0
 16 509 44 550 76 591 c 1
 110 638 145 676 180 706 c 1
 235 761 302 813 381 865 c 0
 450 908 528 942 615 966 c 0
 671 981 730 988 794 988 c 0
 905 988 995 964 1065 913 c 0
 1171 836 1224 741 1224 628 c 1
 1222 591 l 1
 1217 556 1209 519 1196 483 c 1
 1176 416 1144 356 1099 302 c 1
 1027 211 951 148 870 112 c 0
 827 94 784 85 743 85 c 0
 716 85 690 89 664 96 c 0
 632 105 610 130 599 172 c 1
 535 132 490 107 465 98 c 0
 429 86 398 79 374 79 c 0
 353 79 326 88 294 105 c 0
 262 120 241 143 231 174 c 0
 223 198 220 220 220 240 c 0
 220 261 223 284 231 309 c 1
 252 355 l 1
 304 460 377 544 471 605 c 0
 559 662 633 690 694 690 c 0
 712 690 727 688 738 684 c 0
 786 670 812 642 814 600 c 1
 860 679 l 1
416 187 m 1
 461 187 502 199 539 223 c 0
 585 254 624 292 655 337 c 0
 688 385 713 431 731 476 c 1
 736 515 l 1
 736 554 717 580 681 593 c 1
 659 598 l 1
 638 598 614 592 588 580 c 0
 565 571 538 554 507 529 c 1
 475 502 449 474 427 445 c 0
 405 413 386 378 370 341 c 1
 364 320 361 299 361 277 c 1
 365 240 l 1
 372 211 389 193 416 187 c 1
EndSplineSet
MinimumDistance: x20,-1 
EndChar
StartChar: A
Encoding: 65 65
OldEncoding: 65
Width: 910
Flags: HW
HStem: -1 21G<-157.22 43.9199 532.08 733.22> 191 164<305 527> 939 20G<488.01 717.4>
VStem: 528 190<3.54883 88.4365 115.544 190.786 354.807 490.471 593.53 727.5>
DStem: 488.01 959.25 529.82 727.6 -157.22 -1.25 289.13 354.7 488.01 959.25 172.74 190.85 -157.22 -1.25 43.9199 -1.25 529.82 727.6 717.4 959.25 534.34 354.7 733.22 -1.25
Fore
718 959 m 1
 733 -1 l 1
 532 -1 l 1
 528 191 l 1
 173 191 l 1
 44 -1 l 1
 -157 -1 l 1
 488 959 l 1
 718 959 l 1
530 728 m 1
 289 355 l 1
 534 355 l 1
 530 728 l 1
EndSplineSet
MinimumDistance: x1,-1 
EndChar
StartChar: B
Encoding: 66 66
OldEncoding: 66
Width: 896
Flags: HW
HStem: -1 164<157 367> 411 164<301 494> 795 164<356 607>
DStem: 215.46 959.25 357.84 795.4 -97.5498 -1.25 286.65 575.05 215.46 959.25 233.54 411.2 -97.5498 -1.25 152.18 162.6
Fore
-98 -1 m 1
 215 959 l 1
 640 959 l 2
 673 959 712 953 759 941 c 1
 799 928 828 910 847 885 c 1
 863 867 875 846 883 820 c 1
 886 802 l 1
 883 767 l 1
 877 707 l 1
 865 672 846 638 819 606 c 1
 794 571 761 539 719 511 c 1
 743 489 759 460 768 425 c 0
 773 403 775 382 775 363 c 0
 775 346 773 328 768 308 c 0
 754 257 731 210 701 168 c 0
 673 129 635 94 589 63 c 0
 525 20 440 -1 335 -1 c 2
 -98 -1 l 1
358 795 m 1
 287 575 l 1
 512 575 l 2
 555 575 591 585 620 606 c 0
 649 625 669 651 678 684 c 0
 682 700 684 713 684 723 c 0
 684 771 654 795 592 795 c 2
 358 795 l 1
234 411 m 1
 152 163 l 1
 384 163 l 2
 424 163 461 171 495 186 c 0
 531 203 558 240 576 297 c 0
 582 314 585 331 585 346 c 0
 585 366 579 380 567 387 c 0
 545 403 513 411 470 411 c 2
 234 411 l 1
EndSplineSet
MinimumDistance: x17,-1 
EndChar
StartChar: C
Encoding: 67 67
OldEncoding: 67
Width: 891
Flags: HW
HStem: -31 170<271.89 318.22>
Fore
610 329 m 1
 800 329 l 1
 783 282 754 233 714 183 c 0
 676 135 633 94 584 62 c 0
 540 35 492 14 440 -0 c 0
 375 -21 319 -31 272 -31 c 0
 166 -33 87 -4 33 57 c 0
 -13 111 -37 181 -37 266 c 2
 -37 303 l 1
 -35 339 -23 395 1 472 c 1
 26 546 53 607 84 655 c 0
 216 868 390 974 605 974 c 0
 709 974 788 949 841 900 c 0
 889 857 913 802 913 733 c 0
 913 702 908 669 899 634 c 1
 709 634 l 1
 714 671 l 1
 709 708 l 1
 705 735 688 759 658 779 c 1
 629 802 585 812 526 810 c 0
 488 810 444 794 394 764 c 1
 351 733 314 698 283 657 c 0
 258 623 230 567 197 490 c 1
 186 451 177 415 170 382 c 0
 166 356 163 333 163 312 c 2
 163 289 l 1
 175 225 202 180 246 155 c 1
 268 144 292 139 318 139 c 0
 336 139 365 142 404 150 c 1
 467 165 513 189 542 222 c 0
 566 249 589 285 610 329 c 1
EndSplineSet
EndChar
StartChar: D
Encoding: 68 68
OldEncoding: 68
Width: 896
Flags: HW
HStem: -1 164<150 328> 795 164<350 552>
VStem: 680 211<645 690.31>
DStem: 207.615 959.25 351.125 795.4 -104.265 -1.25 145.465 162.6
Fore
-104 -1 m 1
 208 959 l 1
 655 959 l 2
 691 959 725 952 757 938 c 0
 788 923 816 900 839 867 c 0
 863 834 879 790 888 734 c 0
 890 725 891 711 891 690 c 0
 891 642 881 586 861 522 c 0
 836 447 805 377 768 314 c 0
 731 254 694 205 657 168 c 1
 613 121 558 80 492 45 c 0
 434 14 380 -1 329 -1 c 2
 -104 -1 l 1
351 795 m 1
 145 163 l 1
 303 163 l 2
 401 163 485 206 553 293 c 1
 590 342 623 409 653 496 c 1
 671 557 680 607 680 646 c 0
 680 670 678 690 673 707 c 0
 662 740 645 763 622 776 c 1
 593 789 562 795 530 795 c 2
 351 795 l 1
EndSplineSet
MinimumDistance: x6,-1 
EndChar
StartChar: E
Encoding: 69 69
OldEncoding: 69
Width: 824
Flags: HW
HStem: -1 164<152 614> 411 164<296 688> 795 164<351 850>
DStem: 208.965 959.25 352.475 795.4 -102.915 -1.25 281.285 575.05 208.965 959.25 228.175 411.2 -102.915 -1.25 146.815 162.6
Fore
209 959 m 1
 904 959 l 1
 851 795 l 1
 352 795 l 1
 281 575 l 1
 741 575 l 1
 688 411 l 1
 228 411 l 1
 147 163 l 1
 668 163 l 1
 615 -1 l 1
 -103 -1 l 1
 209 959 l 1
EndSplineSet
MinimumDistance: x3,-1 
EndChar
StartChar: F
Encoding: 70 70
OldEncoding: 70
Width: 754
Flags: HW
HStem: -1 21G<-107.68 88.9404> 411 164<291 643> 795 164<346 824>
DStem: 204.2 959.25 347.71 795.4 -107.68 -1.25 276.52 575.05 204.2 959.25 223.41 411.2 -107.68 -1.25 88.9404 -1.25
Fore
204 959 m 1
 878 959 l 1
 825 795 l 1
 348 795 l 1
 277 575 l 1
 698 575 l 1
 644 411 l 1
 223 411 l 1
 89 -1 l 1
 -108 -1 l 1
 204 959 l 1
EndSplineSet
MinimumDistance: x3,-1 
EndChar
StartChar: G
Encoding: 71 71
OldEncoding: 71
Width: 963
Flags: HW
HStem: -5 21G<605.29 720.55> 351 165<504 671> 812 162<571 616.59>
VStem: 756 188<668.707 721.816>
Fore
455 351 m 1
 506 516 l 1
 890 516 l 1
 721 -5 l 1
 605 -5 l 1
 619 115 l 1
 573 77 542 53 526 44 c 1
 502 25 466 8 418 -7 c 0
 363 -25 310 -33 258 -31 c 0
 225 -31 190 -24 153 -12 c 1
 125 -4 103 5 89 16 c 0
 72 29 58 43 45 57 c 1
 34 73 25 85 18 92 c 1
 -14 141 -31 197 -33 261 c 1
 -33 285 l 2
 -33 342 -23 404 -2 472 c 0
 32 577 87 671 161 755 c 1
 238 843 325 906 422 942 c 0
 478 963 543 974 617 974 c 0
 677 974 731 967 780 953 c 0
 828 939 867 911 897 870 c 1
 928 823 944 774 944 722 c 0
 944 700 941 678 936 655 c 1
 756 655 l 1
 756 669 l 2
 756 715 740 750 709 773 c 0
 674 799 628 812 573 812 c 0
 516 812 453 795 385 759 c 1
 340 728 301 686 267 634 c 0
 238 591 211 536 186 470 c 1
 171 422 163 378 163 340 c 1
 166 303 l 1
 184 199 238 141 327 130 c 1
 427 130 509 160 575 220 c 1
 619 256 652 300 672 351 c 1
 455 351 l 1
EndSplineSet
MinimumDistance: x21,-1 
EndChar
StartChar: H
Encoding: 72 72
OldEncoding: 72
Width: 892
Flags: HW
HStem: -1 21G<-117.4 76.96 458.9 655.52> 434 164<281 587> 939 20G<192.22 388.84 768.52 967.4>
DStem: 192.22 959.25 388.84 959.25 -117.4 -1.25 273.58 597.65 192.22 959.25 220.47 433.8 -117.4 -1.25 76.96 -1.25 600.15 433.8 967.4 959.25 458.9 -1.25 655.52 -1.25 768.52 959.25 967.4 959.25 653.26 597.65 655.52 -1.25
Fore
-117 -1 m 5
 192 959 l 1
 389 959 l 1
 274 598 l 1
 653 598 l 1
 769 959 l 1
 967 959 l 1
 656 -1 l 1
 459 -1 l 1
 600 434 l 1
 220 434 l 1
 77 -1 l 1
 -117 -1 l 5
EndSplineSet
EndChar
StartChar: I
Encoding: 73 73
OldEncoding: 73
Width: 343
Flags: HW
HStem: -1 21G<-90.1201 104.24> 939 20G<219.5 416.12>
DStem: 219.5 959.25 416.12 959.25 -90.1201 -1.25 104.24 -1.25
Fore
416 959 m 1
 104 -1 l 1
 -90 -1 l 1
 220 959 l 1
 416 959 l 1
EndSplineSet
EndChar
StartChar: J
Encoding: 74 74
OldEncoding: 74
Width: 688
Flags: HW
HStem: 941 20G<561.52 758.14>
DStem: 561.52 961.021 758.14 961.021 327.61 243.471 519.71 229.911
Fore
562 961 m 1
 758 961 l 1
 520 230 l 2
 499 167 458 110 397 60 c 4
 326 2 245 -28 154 -30 c 0
 74 -32 13 -21 -32 5 c 0
 -57 21 -74 42 -83 67 c 0
 -92 89 -96 113 -96 140 c 2
 -96 151 l 1
 -93 191 -88 222 -80 246 c 2
 -45 354 l 1
 151 354 l 1
 121 257 l 2
 115 239 112 220 112 202 c 1
 114 175 l 1
 119 147 144 135 191 137 c 0
 228 137 258 149 281 172 c 0
 303 194 319 218 328 243 c 1
 562 961 l 1
EndSplineSet
EndChar
StartChar: K
Encoding: 75 75
OldEncoding: 75
Width: 890
Flags: HW
HStem: -1 21G<-115.415 81.2051 492.525 730.955> 939 20G<196.465 393.085 770.505 1004.42>
DStem: 196.465 959.25 393.085 959.25 -115.415 -1.25 257.485 537.76 196.465 959.25 180.645 306.11 -115.415 -1.25 81.2051 -1.25 770.505 959.25 1004.42 959.25 257.485 537.76 488.005 542.28
Fore
-115 -1 m 1
 196 959 l 1
 393 959 l 1
 257 538 l 1
 771 959 l 1
 1004 959 l 1
 488 542 l 1
 731 -1 l 1
 493 -1 l 1
 320 416 l 1
 181 306 l 1
 81 -1 l 1
 -115 -1 l 1
EndSplineSet
EndChar
StartChar: L
Encoding: 76 76
OldEncoding: 76
Width: 769
Flags: HW
HStem: -1 164<169 571> 939 20G<225.995 426.005>
DStem: 225.995 959.25 426.005 959.25 -85.8848 -1.25 166.105 162.6
Fore
226 959 m 1
 426 959 l 1
 166 163 l 1
 625 163 l 1
 572 -1 l 1
 -86 -1 l 1
 226 959 l 1
EndSplineSet
MinimumDistance: x1,-1 
EndChar
StartChar: M
Encoding: 77 77
OldEncoding: 77
Width: 1032
Flags: HW
HStem: -1 21G<-132.695 66.1846 234.555 433.435 605.195 804.075> 939 20G<179.185 466.205 826.675 1113.7>
DStem: 179.185 959.25 318.175 776.19 -132.695 -1.25 66.1846 -1.25 854.925 776.19 1113.7 959.25 605.195 -1.25 804.075 -1.25
Fore
433 -1 m 1
 235 -1 l 1
 318 776 l 1
 66 -1 l 1
 -133 -1 l 1
 179 959 l 1
 466 959 l 1
 409 221 l 1
 827 959 l 1
 1114 959 l 1
 804 -1 l 1
 605 -1 l 1
 855 776 l 1
 433 -1 l 1
EndSplineSet
EndChar
StartChar: N
Encoding: 78 78
OldEncoding: 78
Width: 892
Flags: HW
HStem: -1 21G<-117.66 76.7002 465.42 659.78> 939 20G<191.96 386.32 775.04 971.66>
DStem: 191.96 959.25 293.66 667.71 -117.66 -1.25 76.7002 -1.25 293.66 667.71 386.32 959.25 465.42 -1.25 560.34 299.33 775.04 959.25 971.66 959.25 560.34 299.33 659.78 -1.25
Fore
192 959 m 1
 386 959 l 1
 560 299 l 1
 775 959 l 1
 972 959 l 1
 660 -1 l 1
 465 -1 l 1
 294 668 l 1
 77 -1 l 1
 -118 -1 l 1
 192 959 l 1
EndSplineSet
EndChar
StartChar: O
Encoding: 79 79
OldEncoding: 79
Width: 963
Flags: HW
HStem: -31 172<294.15 349.52> 803 173<565.35 620.72>
VStem: -34 197<287 323>
Fore
919 472 m 0
 898 406 862 337 811 263 c 0
 760 189 708 131 653 90 c 0
 550 9 431 -31 294 -31 c 0
 157 -31 63 9 12 90 c 0
 -16 135 -31 193 -34 263 c 1
 -34 289 l 2
 -34 350 -24 411 -4 472 c 0
 22 551 58 621 102 682 c 0
 153 754 205 812 260 856 c 1
 366 936 486 976 621 976 c 0
 656 976 694 972 734 965 c 0
 772 956 805 942 831 923 c 1
 858 908 881 886 901 856 c 0
 931 810 947 752 950 682 c 1
 950 660 l 2
 950 595 939 533 919 472 c 0
350 141 m 0
 420 141 485 162 547 205 c 1
 589 236 625 274 656 319 c 1
 689 374 713 424 729 472 c 0
 747 526 755 577 755 624 c 0
 753 674 740 712 718 737 c 1
 683 781 632 803 565 803 c 0
 495 803 428 781 366 737 c 0
 328 711 293 674 260 627 c 0
 226 576 201 525 186 472 c 0
 171 426 163 380 163 333 c 2
 163 322 l 2
 163 271 173 232 192 205 c 0
 226 162 279 141 350 141 c 0
EndSplineSet
MinimumDistance: x26,-1 
EndChar
StartChar: P
Encoding: 80 80
OldEncoding: 80
Width: 827
Flags: HW
HStem: -1 21G<-104.9 93.9805> 341 165<262 456> 795 164<351 584>
DStem: 206.98 959.25 352.75 795.4 -104.9 -1.25 257.83 506.12 206.98 959.25 204.72 341.14 -104.9 -1.25 93.9805 -1.25
Fore
-105 -1 m 1
 207 959 l 1
 635 959 l 2
 694 959 745 950 788 931 c 1
 834 914 860 872 867 804 c 1
 867 785 l 2
 867 748 859 707 844 661 c 0
 821 591 796 542 770 513 c 1
 679 398 569 341 439 341 c 2
 205 341 l 1
 94 -1 l 1
 -105 -1 l 1
353 795 m 1
 258 506 l 1
 480 506 l 2
 526 506 570 533 615 586 c 1
 633 621 l 1
 641 634 648 650 654 670 c 0
 659 681 663 698 666 721 c 1
 664 771 630 795 564 795 c 2
 353 795 l 1
EndSplineSet
MinimumDistance: x11,-1 
EndChar
StartChar: Q
Encoding: 81 81
OldEncoding: 81
Width: 961
Flags: HW
HStem: -29 172<303.15 358.52> 805 173<572 628.59>
Fore
714 136 m 1
 787 37 l 1
 650 -69 l 1
 573 37 l 1
 486 -7 396 -29 303 -29 c 0
 167 -29 73 12 23 92 c 1
 -7 136 -23 193 -26 263 c 1
 -26 287 l 2
 -26 351 -16 413 4 474 c 1
 32 555 69 626 113 687 c 1
 159 754 212 811 270 858 c 1
 374 938 493 978 629 978 c 0
 696 978 754 968 800 949 c 0
 851 926 887 896 909 858 c 0
 938 812 955 754 960 684 c 1
 960 669 l 2
 960 607 949 542 927 474 c 0
 904 403 876 342 842 291 c 0
 804 233 762 182 714 136 c 1
476 168 m 1
 407 261 l 1
 546 370 l 1
 620 265 l 1
 672 324 712 394 738 474 c 0
 753 519 761 568 761 622 c 2
 761 629 l 1
 759 677 747 713 726 740 c 1
 696 784 646 805 573 805 c 0
 502 805 436 784 374 740 c 0
 338 713 304 676 270 627 c 0
 241 584 215 533 191 474 c 1
 178 426 171 380 171 338 c 2
 171 324 l 1
 173 272 184 233 203 208 c 0
 236 165 288 143 359 143 c 0
 398 143 437 151 476 168 c 1
EndSplineSet
EndChar
StartChar: R
Encoding: 82 82
OldEncoding: 82
Width: 895
Flags: HW
HStem: -1 21G<-103.435 95.4453 470.605 683.045> 378 164<279 472> 795 164<353 634>
DStem: 208.445 959.25 354.215 795.4 -103.435 -1.25 271.725 542.28 208.445 959.25 218.615 378.43 -103.435 -1.25 95.4453 -1.25
Fore
-103 -1 m 1
 208 959 l 1
 744 959 l 2
 772 959 800 953 829 941 c 0
 854 930 876 913 894 889 c 1
 906 867 912 844 912 818 c 2
 912 807 l 1
 910 769 l 1
 906 730 l 1
 897 693 l 1
 879 652 867 625 859 612 c 0
 837 575 812 545 785 524 c 0
 763 505 727 485 679 462 c 1
 705 443 l 2
 717 434 725 426 729 420 c 0
 739 407 745 395 746 383 c 1
 749 359 l 1
 744 328 l 1
 716 224 l 1
 683 114 l 1
 677 100 674 86 674 73 c 1
 676 63 l 2
 679 52 684 42 692 34 c 1
 683 -1 l 1
 471 -1 l 1
 468 34 l 1
 468 55 471 73 475 89 c 1
 535 281 l 1
 540 314 l 1
 537 337 l 1
 529 352 519 363 508 369 c 0
 493 375 473 378 449 378 c 2
 219 378 l 1
 95 -1 l 1
 -103 -1 l 1
354 795 m 1
 272 542 l 1
 540 542 l 2
 567 542 598 555 632 580 c 1
 664 604 688 640 705 686 c 0
 711 701 714 716 714 730 c 0
 714 774 683 795 621 795 c 2
 354 795 l 1
EndSplineSet
MinimumDistance: x34,-1 
EndChar
StartChar: S
Encoding: 83 83
OldEncoding: 83
Width: 827
Flags: HW
HStem: -33 163<200.395 295.315> 819 155<481 538.265>
VStem: -78 194<205.515 242.805>
Fore
819 667 m 1
 629 667 l 1
 633 680 635 694 635 708 c 1
 631 740 l 1
 626 763 612 782 587 799 c 1
 562 812 527 819 483 819 c 0
 374 819 304 782 275 708 c 1
 267 682 263 666 263 660 c 0
 263 651 264 647 266 645 c 1
 271 632 283 622 302 613 c 1
 304 606 320 599 348 592 c 1
 361 586 394 578 448 569 c 1
 525 552 l 1
 625 534 690 503 719 459 c 0
 734 436 742 409 742 377 c 0
 742 349 736 320 726 289 c 0
 709 239 683 191 647 146 c 1
 613 100 572 64 525 37 c 0
 445 -7 337 -31 200 -33 c 0
 172 -33 135 -27 90 -14 c 0
 43 -2 9 15 -12 37 c 1
 -45 67 -65 103 -72 148 c 0
 -76 172 -78 191 -78 206 c 0
 -78 234 -74 261 -67 285 c 1
 125 285 l 1
 119 269 116 255 116 243 c 0
 116 222 122 203 134 185 c 0
 159 148 212 130 295 130 c 0
 325 130 356 134 388 143 c 1
 417 149 443 160 465 174 c 0
 493 193 513 222 525 259 c 1
 529 296 l 1
 529 312 526 326 520 335 c 0
 511 351 495 363 472 373 c 0
 433 386 399 395 370 400 c 2
 258 421 l 2
 220 430 194 437 178 444 c 0
 151 454 127 470 105 493 c 0
 86 514 74 542 70 578 c 1
 70 601 l 2
 70 636 78 673 92 711 c 0
 124 789 179 854 256 905 c 1
 330 951 424 974 538 974 c 0
 602 974 657 967 706 954 c 0
 761 939 800 905 823 854 c 0
 832 835 837 810 837 777 c 0
 837 746 831 709 819 667 c 1
EndSplineSet
MinimumDistance: x25,-1 
EndChar
StartChar: T
Encoding: 84 84
OldEncoding: 84
Width: 743
Flags: HW
HStem: -1 21G<93.3848 290.005> 795 164<113 350 551 829>
DStem: 353.285 795.4 552.165 795.4 93.3848 -1.25 290.005 -1.25
Fore
115 959 m 1
 883 959 l 1
 829 795 l 1
 552 795 l 1
 290 -1 l 1
 93 -1 l 1
 353 795 l 1
 62 795 l 1
 115 959 l 1
EndSplineSet
MinimumDistance: x3,-1 
EndChar
StartChar: U
Encoding: 85 85
OldEncoding: 85
Width: 887
Flags: HW
HStem: -30 172<262 314.58> 941 20G<200.45 400.46 765.45 962.07>
VStem: -30 208<201.645 243.455>
DStem: 200.45 961.005 400.46 961.005 -11.9902 298.825 184.63 296.565 765.45 961.005 962.07 961.005 550.75 296.565 747.37 298.825
Fore
765 961 m 1
 962 961 l 1
 747 299 l 2
 702 160 610 64 472 10 c 0
 402 -17 333 -30 264 -30 c 0
 201 -30 142 -19 87 3 c 1
 9 55 -30 122 -30 202 c 0
 -30 229 -24 261 -12 299 c 2
 200 961 l 1
 400 961 l 1
 185 297 l 1
 180 285 178 267 178 243 c 0
 178 221 181 202 187 188 c 0
 203 157 245 142 315 142 c 0
 385 142 439 157 474 188 c 0
 510 217 536 254 551 297 c 1
 765 961 l 1
EndSplineSet
EndChar
StartChar: V
Encoding: 86 86
OldEncoding: 86
Width: 807
Flags: HW
HStem: -1 21G<132.175 301.675> 939 20G<120.875 317.495 741.245 940.125>
Fore
741 959 m 1
 940 959 l 1
 302 -1 l 1
 132 -1 l 1
 121 959 l 1
 317 959 l 1
 295 235 l 1
 741 959 l 1
EndSplineSet
EndChar
StartChar: W
Encoding: 87 87
OldEncoding: 87
Width: 1154
Flags: HW
HStem: -1 21G<42.9805 220.39 537.92 716.46> 939 20G<87.0498 297.23 588.77 794.43 1088.23 1295.02>
Fore
87 959 m 1
 297 959 l 1
 211 239 l 1
 589 959 l 1
 794 959 l 1
 702 230 l 1
 1088 959 l 1
 1295 959 l 1
 716 -1 l 1
 538 -1 l 1
 617 730 l 1
 220 -1 l 1
 43 -1 l 1
 87 959 l 1
EndSplineSet
EndChar
StartChar: X
Encoding: 88 88
OldEncoding: 88
Width: 826
Flags: HW
HStem: -1 21G<-176.26 55.3896 421.51 653.16> 939 20G<148.05 381.96 726.61 958.26>
Fore
148 959 m 1
 382 959 l 1
 449 648 l 1
 727 959 l 1
 958 959 l 1
 510 489 l 1
 653 -1 l 1
 422 -1 l 1
 345 325 l 1
 55 -1 l 1
 -176 -1 l 1
 285 482 l 1
 148 959 l 1
EndSplineSet
EndChar
StartChar: Y
Encoding: 89 89
OldEncoding: 89
Width: 807
Flags: HW
HStem: -1 21G<127.265 323.885> 939 20G<122.745 343.095 721.645 944.255>
DStem: 242.525 354.7 440.275 354.7 127.265 -1.25 323.885 -1.25
Fore
722 959 m 1
 944 959 l 1
 440 355 l 1
 324 -1 l 1
 127 -1 l 1
 243 355 l 1
 123 959 l 1
 343 959 l 1
 405 545 l 1
 722 959 l 1
EndSplineSet
MinimumDistance: x6,1 
EndChar
StartChar: Z
Encoding: 90 90
OldEncoding: 90
Width: 758
Flags: HW
HStem: -1 164<125 561> 792 167<149 575>
DStem: 585.455 792.01 819.365 795.4 -108.365 162.6 123.285 162.6
Fore
150 959 m 1
 872 959 l 1
 819 795 l 1
 123 163 l 1
 614 163 l 1
 561 -1 l 1
 -161 -1 l 1
 -108 163 l 1
 585 792 l 1
 97 795 l 1
 150 959 l 1
EndSplineSet
EndChar
StartChar: bracketleft
Encoding: 91 91
OldEncoding: 91
Width: 408
Flags: HW
HStem: 842 132<387 535>
DStem: 258.615 974.59 388.565 842.38 -139.145 -252.59 75.5547 -115.86
Fore
534 842 m 1
 389 842 l 1
 76 -116 l 1
 221 -116 l 1
 175 -253 l 1
 -139 -253 l 1
 259 974 l 1
 576 974 l 1
 534 842 l 1
EndSplineSet
MinimumDistance: x1,-1 
EndChar
StartChar: backslash
Encoding: 92 92
OldEncoding: 92
Width: 343
Flags: HW
HStem: -26 21G<106.5 203.68>
VStem: 106 97<-23.5322 97.4592 808.676 934>
DStem: 120.06 934.25 219.5 934.25 106.5 -26.25 203.68 -26.25
Fore
120 934 m 1
 220 934 l 1
 203 -26 l 1
 106 -26 l 1
 120 934 l 1
EndSplineSet
MinimumDistance: x1,-1 
EndChar
StartChar: bracketright
Encoding: 93 93
OldEncoding: 93
Width: 416
Flags: HW
HStem: -253 137<-155 -6> 955 20G<201.615 520.275>
DStem: 305.575 842.38 520.275 974.59 -5.1748 -115.86 122.515 -252.59
Fore
160 842 m 1
 202 975 l 1
 520 975 l 1
 123 -253 l 1
 -197 -253 l 1
 -153 -116 l 1
 -5 -116 l 1
 306 842 l 1
 160 842 l 1
EndSplineSet
EndChar
StartChar: asciicircum
Encoding: 94 94
OldEncoding: 94
Width: 733
Flags: HW
DStem: 357.31 897.24 390.08 731.13 -42.71 336.76 105.32 336.76 390.08 731.13 522.29 897.24 412.68 336.76 560.71 336.76
Fore
-43 337 m 1
 357 897 l 1
 522 897 l 1
 561 337 l 1
 413 337 l 1
 390 731 l 1
 105 337 l 1
 -43 337 l 1
EndSplineSet
MinimumDistance: x3,-1 
EndChar
StartChar: underscore
Encoding: 95 95
OldEncoding: 95
Width: 689
Flags: HW
HStem: -184 92<-252 509>
Fore
540 -92 m 5
 510 -184 l 5
 -281 -184 l 5
 -251 -92 l 5
 540 -92 l 5
EndSplineSet
EndChar
StartChar: grave
Encoding: 96 96
OldEncoding: 96
Width: 535
Flags: W
HStem: 939 20G<217 479>
Fore
567 776 m 5
 409 776 l 5
 217 959 l 5
 479 959 l 5
 567 776 l 5
EndSplineSet
EndChar
StartChar: a
Encoding: 97 97
OldEncoding: 97
Width: 692
Flags: HW
HStem: 606 132<390 435.73>
Fore
537 14 m 1
 343 14 l 1
 339 21 336 30 336 42 c 0
 336 57 339 71 345 85 c 1
 311 60 273 37 230 16 c 0
 180 -5 123 -16 58 -16 c 1
 -30 -7 -74 35 -74 109 c 0
 -74 136 -67 168 -55 204 c 0
 -34 263 -1 313 42 352 c 0
 85 390 146 416 224 429 c 1
 284 431 349 442 420 460 c 1
 455 476 480 503 493 542 c 1
 496 555 l 1
 496 570 490 582 480 590 c 0
 464 601 435 606 392 606 c 0
 343 604 308 593 288 572 c 0
 264 550 246 523 235 491 c 1
 58 491 l 1
 116 656 242 738 436 738 c 0
 506 738 559 730 595 712 c 0
 646 690 672 651 672 595 c 0
 672 570 667 543 657 514 c 2
 531 123 l 1
 526 93 l 1
 526 74 532 57 544 40 c 1
 537 14 l 1
417 310 m 1
 431 350 l 1
 408 340 372 330 325 321 c 1
 248 312 l 2
 223 310 199 300 176 283 c 0
 153 264 139 244 133 222 c 1
 131 197 l 1
 131 193 l 2
 131 181 133 171 137 164 c 0
 142 155 152 149 167 144 c 0
 182 140 204 137 232 137 c 1
 286 144 326 163 354 195 c 1
 379 221 400 259 417 310 c 1
EndSplineSet
EndChar
StartChar: b
Encoding: 98 98
OldEncoding: 98
Width: 765
Flags: HW
HStem: -30 158<245 275> 1 21G<-109.93 72> 941 20G<201.95 382.75>
DStem: 201.95 961.005 382.75 961.005 -109.93 0.504883 270.88 616.355
Fore
-110 1 m 1
 202 961 l 1
 383 961 l 1
 271 616 l 1
 330 689 411 725 512 725 c 0
 628 723 692 669 704 566 c 1
 706 512 l 1
 706 454 698 402 683 356 c 0
 656 280 614 207 558 135 c 0
 531 99 499 67 463 40 c 1
 436 17 402 -0 361 -13 c 0
 328 -24 290 -30 246 -30 c 0
 174 -28 124 6 96 72 c 1
 72 1 l 1
 -110 1 l 1
410 566 m 0
 359 566 309 538 262 484 c 0
 226 442 200 396 184 345 c 0
 173 315 167 283 167 248 c 1
 171 206 l 1
 183 154 216 128 269 128 c 0
 325 128 374 154 417 206 c 0
 451 247 476 293 493 345 c 1
 504 384 509 415 509 440 c 1
 505 484 l 1
 503 513 493 533 475 546 c 1
 454 559 432 566 410 566 c 0
EndSplineSet
MinimumDistance: x2,-1 
EndChar
StartChar: c
Encoding: 99 99
OldEncoding: 99
Width: 688
Flags: HW
HStem: 579 159<401.515 454.625>
VStem: -31 199<202 243.479> 501 185<489 535.019>
Fore
677 460 m 1
 501 460 l 1
 501 491 l 2
 501 523 496 545 485 555 c 0
 468 571 440 579 402 579 c 0
 341 581 288 547 242 475 c 1
 231 451 l 1
 209 410 l 1
 189 354 l 1
 177 319 170 289 168 266 c 1
 168 243 l 2
 168 205 175 179 189 164 c 0
 205 149 229 140 260 137 c 1
 295 137 325 145 351 160 c 0
 379 176 408 210 439 264 c 1
 613 264 l 1
 597 218 571 177 534 142 c 0
 489 97 454 66 430 49 c 0
 397 27 364 11 330 1 c 0
 292 -11 249 -16 200 -16 c 0
 132 -19 79 -4 43 28 c 0
 9 58 -14 95 -24 140 c 0
 -29 160 -31 181 -31 204 c 0
 -31 224 -29 243 -24 262 c 1
 -23 280 -14 313 1 359 c 1
 23 429 53 488 92 537 c 0
 142 599 183 643 216 669 c 0
 257 700 294 718 328 725 c 0
 370 734 412 738 455 738 c 0
 538 740 597 727 631 699 c 1
 660 679 677 643 682 590 c 1
 686 535 l 1
 686 504 683 479 677 460 c 1
EndSplineSet
MinimumDistance: x31,-1 
EndChar
StartChar: d
Encoding: 100 100
OldEncoding: 100
Width: 755
Flags: HW
HStem: -30 158<140.31 221.67> -4 21G<332.41 517.73> 568 157<347 381> 941 20G<644.29 829.61>
VStem: -68 190<206 238>
DStem: 644.29 961.033 829.61 961.033 531.29 616.383 517.73 -3.9873
Fore
830 961 m 1
 518 -4 l 1
 332 -4 l 1
 355 72 l 1
 325 40 289 16 247 -2 c 0
 202 -21 167 -30 140 -30 c 0
 103 -32 68 -27 36 -13 c 0
 7 -2 -16 15 -31 40 c 0
 -49 65 -59 97 -61 135 c 1
 -65 160 -68 185 -68 211 c 0
 -68 251 -62 292 -50 334 c 0
 -22 421 16 498 66 563 c 0
 146 669 246 723 365 725 c 0
 469 725 525 689 531 616 c 1
 644 961 l 1
 830 961 l 1
365 568 m 0
 312 568 261 541 212 486 c 1
 178 440 154 393 140 347 c 0
 128 308 122 271 122 237 c 2
 122 206 l 1
 133 154 167 128 222 128 c 0
 279 128 328 154 370 206 c 0
 403 246 428 293 445 347 c 0
 457 379 462 413 462 449 c 1
 460 486 l 1
 447 541 416 568 365 568 c 0
EndSplineSet
EndChar
StartChar: e
Encoding: 101 101
OldEncoding: 101
Width: 690
Flags: HW
HStem: -16 150<192.895 278.775> 312 125<200 485> 586 153<399 440.365>
Fore
635 312 m 1
 158 312 l 1
 147 280 142 251 142 227 c 0
 142 217 144 208 147 199 c 0
 155 175 170 158 193 149 c 0
 215 139 243 134 279 134 c 1
 314 144 341 154 359 164 c 0
 381 179 398 196 410 215 c 1
 595 215 l 1
 569 169 532 129 484 95 c 1
 435 58 385 31 336 14 c 1
 284 -6 236 -16 193 -16 c 0
 133 -16 77 1 23 37 c 1
 -2 61 -20 86 -30 114 c 0
 -40 142 -46 172 -46 202 c 2
 -46 208 l 1
 -43 239 -39 268 -32 294 c 1
 -9 363 9 414 23 447 c 1
 64 530 111 595 165 639 c 1
 214 682 261 710 308 723 c 0
 350 733 394 739 440 739 c 0
 504 739 555 725 593 699 c 0
 631 672 655 639 667 599 c 0
 674 578 677 550 677 518 c 2
 677 505 l 1
 674 463 670 432 665 412 c 1
 635 312 l 1
200 437 m 1
 484 437 l 1
 490 455 493 476 493 498 c 1
 489 537 l 1
 479 570 450 586 401 586 c 0
 350 588 307 573 271 542 c 0
 234 509 210 473 200 437 c 1
EndSplineSet
EndChar
StartChar: f
Encoding: 102 102
OldEncoding: 102
Width: 406
Flags: HW
HStem: -1 21G<-67.6445 117.675> 820 139<413 490>
DStem: 119.935 575.05 307.515 575.05 -67.6445 -1.25 117.675 -1.25
Fore
20 575 m 1
 60 697 l 1
 159 697 l 1
 188 781 l 2
 207 837 235 881 272 913 c 1
 312 944 361 959 418 959 c 2
 535 959 l 1
 491 820 l 1
 425 820 l 2
 397 820 379 804 370 772 c 1
 347 697 l 1
 456 697 l 1
 416 575 l 1
 308 575 l 1
 118 -1 l 1
 -68 -1 l 1
 120 575 l 1
 20 575 l 1
EndSplineSet
MinimumDistance: x13,-1 
EndChar
StartChar: g
Encoding: 103 103
OldEncoding: 103
Width: 756
Flags: HW
HStem: -260 206<100 104.905> -2 148<221.295 299.265> 587 166<439 468.765> 722 20G<654.085 826.975>
VStem: -94 197<-100.965 -72.7148>
Fore
654 742 m 1
 827 742 l 1
 591 11 l 1
 577 -33 554 -75 520 -115 c 1
 485 -151 447 -182 405 -205 c 0
 335 -244 234 -263 100 -260 c 0
 33 -258 -19 -235 -57 -191 c 0
 -82 -164 -94 -134 -94 -101 c 0
 -94 -86 -92 -70 -87 -54 c 1
 105 -54 l 1
 103 -73 l 1
 103 -101 132 -121 191 -133 c 1
 243 -133 291 -119 334 -91 c 0
 373 -65 400 -34 413 3 c 1
 445 104 l 1
 423 84 399 65 374 47 c 0
 352 31 329 20 304 13 c 1
 280 3 252 -2 221 -2 c 0
 172 -2 135 4 112 15 c 0
 85 27 62 48 43 78 c 1
 27 97 17 124 12 157 c 1
 10 208 l 1
 12 254 l 1
 14 282 22 318 36 362 c 0
 56 421 84 478 118 533 c 0
 154 586 195 631 242 667 c 0
 312 725 388 753 469 753 c 0
 497 753 519 750 533 744 c 0
 543 740 556 731 573 718 c 1
 595 687 l 1
 619 636 l 1
 654 742 l 1
441 587 m 0
 382 587 330 561 286 508 c 1
 252 470 224 423 202 367 c 1
 195 333 191 303 191 276 c 1
 193 228 l 1
 207 174 242 146 299 146 c 0
 360 146 412 174 456 228 c 1
 489 265 515 311 533 367 c 0
 545 405 551 438 551 469 c 1
 547 508 l 1
 533 561 498 587 441 587 c 0
EndSplineSet
MinimumDistance: x10,-1 
EndChar
StartChar: h
Encoding: 104 104
OldEncoding: 104
Width: 765
Flags: HW
HStem: -1 21G<-105.41 78.7803 334.16 519.48> 939 20G<206.47 375.97>
DStem: 206.47 959.25 375.97 959.25 -105.41 -1.25 266.36 619.12 206.47 959.25 215.51 415.72 -105.41 -1.25 78.7803 -1.25 479.93 449.62 687.85 519.68 334.16 -1.25 519.48 -1.25
Fore
376 959 m 1
 266 619 l 1
 337 688 422 723 522 723 c 0
 584 723 633 707 670 674 c 1
 691 653 701 626 701 591 c 0
 701 571 697 547 688 520 c 2
 519 -1 l 1
 334 -1 l 1
 480 450 l 2
 486 468 489 487 489 506 c 1
 487 524 l 2
 484 542 464 555 427 561 c 1
 382 561 340 550 299 526 c 1
 260 501 232 464 216 416 c 1
 79 -1 l 1
 -105 -1 l 1
 206 959 l 1
 376 959 l 1
EndSplineSet
MinimumDistance: x5,-1 
EndChar
StartChar: i
Encoding: 105 105
OldEncoding: 105
Width: 344
Flags: HW
HStem: -1 21G<-87.5996 96.5898> 795 21G<171.17 356.49> 939 20G<224.28 409.6>
DStem: 142.92 711.78 328.24 711.78 -87.5996 -1.25 96.5898 -1.25
Fore
171 795 m 1
 224 959 l 1
 410 959 l 1
 356 795 l 1
 171 795 l 1
-88 -1 m 1
 143 712 l 1
 328 712 l 1
 97 -1 l 1
 -88 -1 l 1
EndSplineSet
MinimumDistance: x6,-1 
EndChar
StartChar: j
Encoding: 106 106
OldEncoding: 106
Width: 348
Flags: HW
HStem: 708 20G<198.45 381.51> 956 20G<279.81 462.87>
DStem: 198.45 728.42 381.51 728.42 -60.3203 -70.4902 109.18 -116.82
Fore
227 812 m 1
 280 976 l 1
 463 976 l 1
 410 812 l 1
 227 812 l 1
-60 -70 m 2
 198 728 l 1
 382 728 l 1
 109 -117 l 1
 101 -140 89 -162 74 -181 c 0
 57 -205 39 -222 21 -234 c 1
 -0 -251 -22 -260 -44 -263 c 0
 -96 -270 -152 -274 -213 -274 c 1
 -162 -121 l 1
 -128 -121 -105 -118 -93 -112 c 0
 -78 -106 -67 -92 -60 -70 c 2
EndSplineSet
EndChar
StartChar: k
Encoding: 107 107
OldEncoding: 107
Width: 690
Flags: HW
HStem: -1 21G<-117.4 65.6602 306.35 526.7> 939 20G<195.61 376.41>
DStem: 195.61 959.25 376.41 959.25 -117.4 -1.25 204.65 433.8 195.61 959.25 137.98 221.36 -117.4 -1.25 65.6602 -1.25 531.22 711.78 741.4 711.78 204.65 433.8 412.57 440.58
Fore
196 959 m 1
 376 959 l 1
 205 434 l 1
 531 712 l 1
 741 712 l 1
 413 441 l 1
 527 -1 l 1
 306 -1 l 1
 242 304 l 1
 138 221 l 1
 66 -1 l 1
 -117 -1 l 1
 196 959 l 1
EndSplineSet
EndChar
StartChar: l
Encoding: 108 108
OldEncoding: 108
Width: 344
Flags: HW
HStem: -1 21G<-87.5996 96.5898> 939 20G<224.28 409.6>
DStem: 224.28 959.25 409.6 959.25 -87.5996 -1.25 96.5898 -1.25
Fore
224 959 m 1
 410 959 l 1
 97 -1 l 1
 -88 -1 l 1
 224 959 l 1
EndSplineSet
EndChar
StartChar: m
Encoding: 109 109
OldEncoding: 109
Width: 1106
Flags: HW
HStem: 705 20G<128.205 315.785>
DStem: 128.205 725.105 225.385 449.385 -101.185 12.0752 81.875 12.0752 468.335 502.495 634.445 449.385 311.265 12.0752 492.065 12.0752 880.785 502.495 1064.97 507.015 720.325 12.0752 903.385 12.0752
Fore
82 12 m 1
 -101 12 l 1
 128 725 l 1
 316 725 l 1
 278 619 l 1
 323 662 363 692 399 708 c 1
 435 727 481 736 537 736 c 1
 580 732 608 722 621 708 c 1
 636 696 653 671 672 632 c 1
 704 665 740 692 778 714 c 1
 815 732 857 741 906 741 c 1
 956 736 l 1
 1042 725 1084 681 1084 604 c 0
 1084 578 1078 545 1065 507 c 2
 903 12 l 1
 720 12 l 1
 881 502 l 1
 883 524 l 1
 883 556 859 575 811 579 c 1
 768 579 730 565 698 538 c 1
 665 507 643 477 634 449 c 2
 492 12 l 1
 311 12 l 1
 468 502 l 1
 471 514 l 1
 471 555 444 577 391 579 c 0
 361 579 327 568 292 544 c 1
 261 522 239 490 225 449 c 2
 82 12 l 1
EndSplineSet
MinimumDistance: x13,-1 
EndChar
StartChar: n
Encoding: 110 110
OldEncoding: 110
Width: 761
Flags: HW
HStem: 589 148<427.505 520.165> 705 20G<154.045 337.105>
DStem: 154.045 725.365 253.485 467.725 -77.6055 12.335 105.455 12.335 515.645 449.645 714.525 491.455 374.395 12.335 558.585 12.335
Fore
-78 12 m 1
 154 725 l 1
 337 725 l 1
 302 619 l 1
 334 656 369 685 408 706 c 0
 446 726 483 737 520 737 c 0
 662 737 733 687 733 589 c 0
 733 562 727 529 715 491 c 2
 559 12 l 1
 374 12 l 1
 516 450 l 1
 525 481 529 505 529 524 c 1
 527 551 l 1
 520 576 487 589 428 589 c 1
 374 582 335 567 311 545 c 1
 286 524 267 499 253 468 c 1
 105 12 l 1
 -78 12 l 1
EndSplineSet
MinimumDistance: x7,-1 
EndChar
StartChar: o
Encoding: 111 111
OldEncoding: 111
Width: 758
Flags: HW
HStem: -19 160<229.96 280.81> 581 157<424.32 475.17>
Fore
230 -19 m 0
 130 -19 56 12 10 72 c 0
 -13 103 -25 145 -28 197 c 1
 -28 204 l 2
 -28 251 -18 303 1 361 c 0
 18 417 45 473 82 528 c 0
 116 582 155 623 199 653 c 1
 280 710 372 738 475 738 c 0
 576 738 648 710 692 653 c 0
 716 623 729 582 732 528 c 1
 732 522 l 2
 732 473 723 419 705 361 c 1
 680 296 654 242 625 197 c 0
 592 147 551 104 502 70 c 0
 420 11 329 -19 230 -19 c 0
424 581 m 0
 367 581 314 555 266 502 c 1
 227 455 200 408 186 361 c 1
 175 332 169 302 169 271 c 1
 175 222 l 1
 188 169 224 141 281 141 c 0
 341 141 393 169 438 222 c 1
 475 263 502 309 519 361 c 0
 528 392 533 422 533 452 c 1
 528 502 l 1
 515 555 480 581 424 581 c 0
EndSplineSet
EndChar
StartChar: p
Encoding: 112 112
OldEncoding: 112
Width: 762
Flags: HW
HStem: -260 21G<-128.195 54.8652> -2 154<330 352> 722 20G<198.375 381.435>
DStem: 198.375 742.005 172.385 103.555 -128.195 -260.305 54.8652 -260.305
Fore
198 742 m 1
 381 742 l 1
 344 636 l 1
 395 679 l 1
 448 718 l 1
 476 733 494 742 501 744 c 0
 520 750 544 753 574 753 c 0
 655 753 713 725 746 667 c 0
 766 637 777 593 779 536 c 1
 779 528 l 2
 779 474 770 419 751 362 c 0
 733 304 708 250 675 203 c 0
 642 152 604 110 562 78 c 0
 522 47 484 27 450 15 c 0
 422 4 383 -2 333 -2 c 0
 300 -2 275 3 256 13 c 0
 241 19 226 30 212 45 c 0
 209 48 196 67 172 104 c 1
 55 -260 l 1
 -128 -260 l 1
 198 742 l 1
488 592 m 0
 430 592 380 565 337 510 c 0
 304 470 279 423 261 371 c 0
 250 339 245 302 245 261 c 1
 247 232 l 1
 258 179 291 152 344 152 c 0
 402 152 451 179 492 232 c 1
 525 273 551 319 569 371 c 0
 580 402 585 438 585 478 c 1
 583 510 l 1
 574 565 542 592 488 592 c 0
EndSplineSet
MinimumDistance: x17,-1 
EndChar
StartChar: q
Encoding: 113 113
OldEncoding: 113
Width: 751
Flags: HW
HStem: -260 21G<317.275 499.205> -2 141<207.665 291.285> 720 20G<640.455 823.515>
DStem: 432.535 103.555 823.515 739.745 317.275 -260.305 499.205 -260.305
Fore
824 740 m 1
 499 -260 l 1
 317 -260 l 1
 433 104 l 1
 411 84 387 65 361 47 c 0
 339 31 316 20 291 13 c 1
 267 3 239 -2 208 -2 c 0
 157 -2 120 4 97 15 c 0
 71 27 48 48 28 78 c 0
 8 108 -3 150 -3 203 c 2
 -3 210 l 2
 -3 257 6 308 23 362 c 0
 44 421 71 478 106 533 c 1
 147 592 187 637 227 667 c 0
 256 692 291 713 331 731 c 0
 364 746 406 753 456 753 c 1
 507 751 543 740 565 721 c 0
 586 702 600 673 607 636 c 1
 640 740 l 1
 824 740 l 1
435 587 m 0
 381 587 332 560 287 506 c 0
 250 460 223 413 208 365 c 0
 197 332 192 297 192 258 c 1
 194 221 l 1
 205 167 238 139 291 139 c 0
 340 139 390 167 439 221 c 1
 475 264 502 312 518 365 c 0
 530 402 536 435 536 464 c 1
 532 506 l 1
 521 560 488 587 435 587 c 0
EndSplineSet
EndChar
StartChar: r
Encoding: 114 114
OldEncoding: 114
Width: 477
Flags: HW
HStem: 705 20G<163.73 349.05>
DStem: 163.73 725.365 247.35 414.615 -65.6602 12.335 115.14 12.335
Fore
-66 12 m 1
 164 725 l 1
 349 725 l 1
 305 589 l 1
 319 609 335 628 354 646 c 0
 367 660 393 678 430 699 c 0
 470 724 517 737 572 737 c 1
 508 549 l 1
 448 554 l 1
 407 554 370 544 338 524 c 0
 301 502 271 465 247 415 c 1
 115 12 l 1
 -66 12 l 1
EndSplineSet
MinimumDistance: x10,-1 
EndChar
StartChar: s
Encoding: 115 115
OldEncoding: 115
Width: 690
Flags: HW
HStem: -16 139<188.505 259.695> 599 139<387.385 422.415>
Fore
-48 224 m 1
 135 224 l 1
 135 199 141 179 151 167 c 0
 160 155 173 145 191 137 c 0
 210 127 233 123 260 123 c 0
 336 121 382 145 399 197 c 1
 403 220 l 1
 401 237 l 1
 396 248 387 255 374 257 c 1
 165 324 l 2
 111 341 79 365 68 396 c 1
 62 408 59 424 59 442 c 0
 59 461 62 480 68 498 c 0
 93 574 142 636 213 685 c 1
 269 721 339 738 422 738 c 0
 513 740 581 724 626 688 c 0
 662 660 681 631 683 599 c 1
 686 581 l 1
 686 554 680 526 670 498 c 1
 491 498 l 1
 497 512 500 527 500 542 c 1
 498 555 l 1
 490 570 474 581 452 588 c 0
 429 596 408 599 387 599 c 0
 360 599 330 593 299 579 c 0
 278 569 264 552 257 528 c 2
 253 511 l 1
 253 499 262 490 281 483 c 2
 282 483 l 1
 286 482 l 1
 526 410 l 2
 548 402 567 390 582 375 c 0
 596 358 605 338 609 315 c 1
 613 305 615 296 615 288 c 0
 615 267 611 250 604 237 c 1
 590 191 564 147 526 104 c 0
 486 60 436 28 374 7 c 0
 356 2 327 -3 286 -9 c 0
 253 -14 221 -16 189 -16 c 0
 123 -14 74 -5 40 12 c 0
 -24 46 -57 96 -57 160 c 0
 -57 182 -54 204 -48 224 c 1
EndSplineSet
EndChar
StartChar: t
Encoding: 116 116
OldEncoding: 116
Width: 409
Flags: HW
DStem: 127.12 580.679 312.44 580.679 -25.4297 115.119 182.49 180.659 228.82 898.209 414.14 898.209 166.67 702.719 351.99 702.719
Fore
76 703 m 1
 167 703 l 1
 229 898 l 1
 414 898 l 1
 352 703 l 1
 454 703 l 1
 414 581 l 1
 312 581 l 1
 182 181 l 1
 176 166 173 152 173 139 c 0
 173 125 180 117 193 117 c 2
 262 115 l 1
 220 -9 l 1
 183 -20 151 -26 125 -26 c 0
 92 -28 65 -25 44 -16 c 1
 -4 -0 -28 32 -28 81 c 1
 -25 115 l 1
 127 581 l 1
 37 581 l 1
 76 703 l 1
EndSplineSet
EndChar
StartChar: u
Encoding: 117 117
OldEncoding: 117
Width: 755
Flags: HW
HStem: 708 20G<147.545 332.865 598.415 783.735>
DStem: 147.545 727.77 332.865 727.77 -11.7852 232.83 189.355 285.94 598.415 727.77 783.735 727.77 448.125 266.73 552.085 14.7402
Fore
784 728 m 1
 552 15 l 1
 368 15 l 1
 395 103 l 1
 354 60 320 31 293 17 c 0
 266 4 229 -7 183 -16 c 1
 132 -14 90 -8 57 1 c 0
 24 9 -0 32 -16 70 c 0
 -25 90 -29 110 -29 130 c 0
 -29 159 -23 193 -12 233 c 1
 148 728 l 1
 333 728 l 1
 189 286 l 2
 180 257 176 233 176 214 c 0
 176 205 177 196 180 186 c 0
 187 162 219 149 277 149 c 1
 330 156 369 170 393 191 c 1
 421 213 439 238 448 267 c 2
 598 728 l 1
 784 728 l 1
EndSplineSet
EndChar
StartChar: v
Encoding: 118 118
OldEncoding: 118
Width: 676
Flags: HW
HStem: 706 20G<79.4805 273.84 572.16 766.52>
Fore
79 726 m 1
 274 726 l 1
 252 203 l 1
 572 726 l 1
 767 726 l 1
 287 13 l 1
 93 13 l 1
 79 726 l 1
EndSplineSet
EndChar
StartChar: w
Encoding: 119 119
OldEncoding: 119
Width: 952
Flags: HW
HStem: 706 20G<53.2949 242.005 460.095 649.935 862.375 1054.47>
DStem: 460.095 726.015 488.345 514.705 191.155 225.425 210.365 12.9854 488.345 514.705 649.935 726.015 434.105 12.9854 590.045 225.425
Fore
53 726 m 1
 242 726 l 1
 191 225 l 1
 460 726 l 1
 650 726 l 1
 590 225 l 1
 862 726 l 1
 1054 726 l 1
 624 13 l 1
 434 13 l 1
 488 515 l 1
 210 13 l 1
 21 13 l 1
 53 726 l 1
EndSplineSet
MinimumDistance: x4,-1 
EndChar
StartChar: x
Encoding: 120 120
OldEncoding: 120
Width: 689
Flags: HW
HStem: 706 20G<104.235 324.585 557.365 775.455>
Fore
104 726 m 1
 325 726 l 1
 371 510 l 1
 557 726 l 1
 775 726 l 1
 429 369 l 1
 546 13 l 1
 327 13 l 1
 278 223 l 1
 84 13 l 1
 -136 13 l 1
 213 369 l 1
 104 726 l 1
EndSplineSet
EndChar
StartChar: y
Encoding: 121 121
OldEncoding: 121
Width: 683
Flags: HW
HStem: 723 20G<129.025 332.425 633.005 825.105>
Fore
129 743 m 1
 332 743 l 1
 319 224 l 1
 633 743 l 1
 825 743 l 1
 242 -118 l 1
 227 -147 199 -177 158 -209 c 0
 134 -228 96 -242 43 -248 c 0
 -16 -256 -63 -260 -98 -260 c 1
 -50 -109 l 1
 7 -109 47 -103 70 -90 c 1
 106 -74 129 -48 140 -12 c 1
 145 25 l 1
 145 30 l 1
 129 743 l 1
EndSplineSet
EndChar
StartChar: z
Encoding: 122 122
OldEncoding: 122
Width: 620
Flags: HW
HStem: 13 150<162 462> 576 150<132 404>
DStem: 409.885 575.725 637.015 575.725 -76.0146 163.275 153.375 163.275
Fore
133 726 m 1
 686 726 l 1
 637 576 l 1
 153 163 l 1
 512 163 l 1
 463 13 l 1
 -125 13 l 1
 -76 163 l 1
 410 576 l 1
 83 576 l 1
 133 726 l 1
EndSplineSet
EndChar
StartChar: braceleft
Encoding: 123 123
OldEncoding: 123
Width: 475
Flags: HW
HStem: -253 130<159 182> 845 130<479 538>
VStem: 82 158<254.78 292.07>
DStem: 77.3154 228.79 227.605 226.53 -19.8652 -71.79 138.335 -52.5801 260.375 793.79 406.145 775.71 163.195 490.95 313.485 495.47
Fore
-5 306 m 1
 33 429 l 1
 106 429 150 450 163 491 c 2
 260 794 l 1
 280 850 312 894 355 926 c 0
 399 958 437 975 468 975 c 2
 580 975 l 1
 538 845 l 1
 490 845 l 2
 461 845 443 839 434 829 c 1
 422 817 413 799 406 776 c 1
 313 495 l 1
 291 424 236 381 150 366 c 1
 181 361 207 350 225 334 c 0
 235 324 240 310 240 292 c 0
 240 275 236 254 228 227 c 2
 138 -53 l 1
 132 -67 128 -79 128 -90 c 0
 128 -97 129 -102 130 -103 c 0
 134 -116 149 -123 174 -123 c 2
 223 -123 l 1
 182 -253 l 1
 68 -253 l 2
 40 -253 14 -236 -10 -204 c 0
 -24 -185 -31 -162 -31 -134 c 0
 -31 -117 -27 -97 -20 -72 c 1
 77 229 l 1
 82 255 l 1
 82 289 53 306 -5 306 c 1
EndSplineSet
MinimumDistance: x10,-1 
EndChar
StartChar: bar
Encoding: 124 124
OldEncoding: 124
Width: 346
Flags: HW
HStem: 955 20G<309.9 413.86>
DStem: 309.9 974.59 413.86 974.59 -87.8604 -252.59 16.0996 -252.59
Fore
414 975 m 1
 16 -253 l 1
 -88 -253 l 1
 310 975 l 1
 414 975 l 1
EndSplineSet
EndChar
StartChar: braceright
Encoding: 125 125
OldEncoding: 125
Width: 487
Flags: HW
HStem: 955 20G<270.595 381.335>
VStem: 215 157<442.36 475.13>
DStem: 136.125 226.53 288.675 228.79 45.7246 -52.5801 191.495 -71.79 314.665 775.71 471.735 793.79 222.005 495.47 374.555 493.21
Fore
460 429 m 1
 421 306 l 1
 387 306 359 300 337 290 c 1
 314 275 298 255 289 229 c 1
 191 -72 l 2
 173 -128 142 -172 97 -204 c 0
 51 -236 12 -253 -19 -253 c 2
 -127 -253 l 1
 -83 -123 l 1
 -35 -123 l 2
 -9 -123 10 -116 21 -103 c 0
 31 -90 40 -73 46 -53 c 1
 136 227 l 2
 164 312 222 359 310 368 c 1
 281 370 254 380 229 398 c 1
 220 407 215 422 215 442 c 0
 215 457 217 475 222 495 c 1
 315 776 l 1
 321 792 324 806 324 820 c 1
 321 829 l 1
 319 841 304 847 277 847 c 2
 229 847 l 1
 271 975 l 1
 381 975 l 2
 400 975 420 969 440 957 c 1
 460 941 472 920 479 893 c 1
 484 859 l 1
 484 844 480 822 472 794 c 1
 375 493 l 1
 372 475 l 1
 372 444 402 429 460 429 c 1
EndSplineSet
MinimumDistance: x27,-1 
EndChar
StartChar: asciitilde
Encoding: 126 126
OldEncoding: 126
Width: 723
Flags: HW
Fore
102 248 m 1
 11 248 l 1
 42 315 82 366 130 401 c 0
 169 429 205 443 239 443 c 0
 264 443 286 435 305 419 c 1
 415 343 l 2
 438 326 459 317 477 317 c 0
 515 317 543 345 563 401 c 1
 665 401 l 1
 655 373 643 347 630 324 c 1
 612 299 587 275 553 250 c 1
 518 221 483 206 449 206 c 0
 422 206 394 217 365 237 c 1
 245 315 l 2
 227 328 210 334 194 334 c 0
 171 334 153 325 141 308 c 1
 124 288 111 268 102 248 c 1
EndSplineSet
EndChar
StartChar: uni0E10.descless
Encoding: 128 63232
OldEncoding: 63232
Width: 681
Flags: HW
HStem: -1 21G<268.325 416.355> 644 107<617.495 649.135> 705 99<375 406.185>
Fore
268 -1 m 1
 273 73 l 1
 271 149 l 1
 266 209 263 239 260 239 c 1
 253 233 237 222 214 207 c 0
 192 195 164 188 129 188 c 0
 79 188 46 204 30 235 c 1
 19 249 13 268 13 290 c 0
 13 310 16 327 22 343 c 0
 38 389 64 425 101 452 c 1
 138 482 181 498 229 500 c 0
 272 500 306 492 328 476 c 1
 346 457 355 427 355 385 c 1
 366 316 l 1
 368 289 370 274 372 272 c 1
 404 381 l 1
 418 426 425 456 425 471 c 0
 425 479 424 485 421 491 c 0
 410 507 382 522 335 535 c 0
 263 556 213 568 185 573 c 2
 66 591 l 1
 85 642 l 1
 136 691 190 731 245 763 c 1
 299 790 353 804 406 804 c 0
 451 804 498 796 547 778 c 0
 596 760 630 751 649 751 c 0
 676 751 708 758 744 772 c 1
 744 769 l 1
 742 732 l 1
 733 665 l 1
 684 651 645 644 617 644 c 1
 562 648 l 1
 494 674 l 1
 428 697 l 2
 413 702 396 705 377 705 c 0
 356 705 334 700 311 690 c 0
 286 681 271 673 266 665 c 1
 353 652 l 2
 392 644 422 637 441 630 c 0
 514 610 555 582 564 547 c 1
 567 520 l 1
 567 484 557 439 538 385 c 1
 416 -1 l 1
 268 -1 l 1
156 281 m 1
 176 281 193 287 207 299 c 0
 220 309 230 324 238 343 c 1
 240 367 l 1
 238 385 l 1
 230 397 216 403 196 403 c 0
 178 403 162 397 147 385 c 0
 136 376 126 362 117 343 c 1
 112 325 l 1
 112 315 115 308 120 301 c 0
 127 290 139 283 156 281 c 1
EndSplineSet
EndChar
StartChar: uni0E34.left
Encoding: 129 63233
OldEncoding: 63233
Width: 0
Flags: HW
Fore
-358 1176 m 0
 -303 1176 -259 1161 -226 1130 c 0
 -197 1105 -179 1075 -173 1040 c 0
 -168 1019 -166 996 -166 971 c 1
 -168 929 l 1
 -177 841 l 1
 -272 873 l 1
 -323 886 -375 897 -429 905 c 0
 -465 912 -515 915 -577 915 c 1
 -698 911 l 1
 -776 903 l 1
 -737 981 -679 1046 -603 1097 c 1
 -526 1152 -444 1179 -358 1176 c 0
-385 1084 m 1
 -428 1084 -468 1076 -506 1061 c 1
 -545 1043 -570 1025 -582 1008 c 1
 -546 1012 l 1
 -487 1012 l 1
 -409 1008 l 1
 -365 1003 -331 996 -307 989 c 1
 -261 968 l 1
 -270 1036 -311 1075 -385 1084 c 1
EndSplineSet
EndChar
StartChar: uni0E35.left
Encoding: 130 63234
OldEncoding: 63234
Width: 0
Flags: HW
DStem: -478.605 1011.91 -478.605 1011.91 -547.535 1009.64 -410.805 1007.38 -170.115 1259.38 -48.0752 1259.38 -216.445 1120.38 -152.035 939.585
Fore
-358 1176 m 0
 -325 1176 -292 1168 -261 1153 c 1
 -216 1120 l 1
 -170 1259 l 1
 -48 1259 l 1
 -152 940 l 1
 -152 933 l 1
 -161 836 l 1
 -275 873 l 2
 -314 884 -367 895 -432 906 c 0
 -471 912 -522 915 -583 915 c 2
 -668 912 l 1
 -735 908 l 1
 -777 902 l 1
 -754 950 -721 995 -677 1039 c 0
 -634 1083 -584 1116 -529 1138 c 1
 -471 1166 -414 1178 -358 1176 c 0
-390 1083 m 1
 -430 1083 -469 1076 -506 1060 c 0
 -543 1044 -569 1025 -585 1005 c 1
 -548 1010 l 1
 -479 1012 l 1
 -411 1007 l 2
 -378 1004 -343 997 -307 988 c 1
 -258 968 l 1
 -264 995 -276 1019 -293 1041 c 0
 -309 1062 -341 1076 -390 1083 c 1
EndSplineSet
EndChar
StartChar: uni0E36.left
Encoding: 131 63235
OldEncoding: 63235
Width: 0
Flags: HW
Fore
-66 1157 m 1
 -89 1088 -124 1043 -170 1022 c 1
 -161 953 l 1
 -161 928 l 2
 -161 897 -164 866 -170 835 c 1
 -284 872 l 2
 -323 883 -375 894 -441 905 c 0
 -480 911 -530 914 -591 914 c 2
 -677 912 l 1
 -744 907 l 1
 -786 902 l 1
 -763 949 -730 995 -686 1038 c 0
 -642 1082 -593 1115 -538 1138 c 1
 -485 1163 -428 1175 -366 1175 c 1
 -341 1173 l 1
 -322 1168 l 1
 -311 1190 -292 1212 -265 1235 c 1
 -239 1260 -204 1272 -158 1272 c 0
 -123 1272 -97 1262 -79 1241 c 1
 -69 1225 -63 1205 -63 1182 c 1
 -66 1157 l 1
-399 1082 m 1
 -439 1082 -477 1075 -514 1060 c 0
 -554 1042 -580 1024 -593 1007 c 1
 -556 1011 l 1
 -499 1011 l 1
 -419 1007 l 1
 -386 1003 -352 996 -315 987 c 1
 -267 967 l 1
 -273 994 -285 1019 -302 1040 c 0
 -318 1062 -350 1076 -399 1082 c 1
-218 1102 m 0
 -208 1102 -198 1106 -187 1115 c 1
 -175 1122 -167 1131 -165 1142 c 2
 -163 1155 l 1
 -163 1162 -164 1167 -165 1168 c 0
 -170 1177 -178 1182 -191 1182 c 0
 -218 1182 -235 1169 -244 1142 c 1
 -247 1124 l 1
 -247 1109 -237 1102 -218 1102 c 0
EndSplineSet
EndChar
StartChar: uni0E37.left
Encoding: 132 63236
OldEncoding: 63236
Width: 0
Flags: HW
DStem: -486.605 1011.91 -486.605 1011.91 -555.535 1009.64 -418.805 1007.38 -171.335 1259.38 -56.0752 1259.38 -219.925 1115.87 -160.035 939.585
Fore
-220 1116 m 1
 -171 1259 l 1
 -56 1259 l 1
 -160 940 l 1
 -160 933 l 1
 -169 836 l 1
 -283 873 l 2
 -322 884 -375 895 -440 906 c 0
 -479 912 -530 915 -591 915 c 2
 -676 912 l 1
 -743 908 l 1
 -785 902 l 1
 -723 1013 -655 1086 -579 1123 c 0
 -502 1158 -429 1176 -361 1176 c 1
 -334 1259 l 1
 -224 1259 l 1
 -262 1149 l 1
 -257 1149 -243 1138 -220 1116 c 1
-398 1083 m 1
 -438 1083 -477 1076 -514 1060 c 0
 -551 1044 -577 1025 -593 1005 c 1
 -556 1010 l 1
 -487 1012 l 1
 -419 1007 l 2
 -386 1004 -351 997 -315 988 c 1
 -266 968 l 1
 -272 995 -284 1019 -301 1041 c 0
 -317 1062 -349 1076 -398 1083 c 1
EndSplineSet
EndChar
StartChar: ellipsis
Encoding: 133 8230
OldEncoding: 8230
Width: 932
Flags: HW
Fore
16 178 m 4
 72 178 100 155 100 109 c 4
 100 66 83 31 51 6 c 4
 27 -14 1 -24 -27 -24 c 4
 -84 -24 -112 -1 -112 44 c 4
 -112 54 -110 65 -107 76 c 4
 -93 144 -52 178 16 178 c 4
332 178 m 4
 389 178 417 154 416 108 c 4
 416 98 415 87 413 76 c 4
 398 10 357 -24 289 -24 c 4
 235 -24 208 -1 207 44 c 4
 207 54 208 65 211 76 c 4
 226 144 266 178 332 178 c 4
652 178 m 4
 709 178 737 154 736 108 c 4
 735 65 719 31 687 6 c 4
 663 -14 637 -24 609 -24 c 4
 554 -24 527 -1 527 44 c 4
 527 54 528 65 531 76 c 4
 546 144 586 178 652 178 c 4
EndSplineSet
EndChar
StartChar: uni0E48.low_left
Encoding: 134 63237
OldEncoding: 63237
Width: 0
Flags: HW
DStem: -238.235 1200.28 -103.765 1200.28 -351.235 847.72 -216.765 847.72
Fore
-351 848 m 1
 -238 1200 l 1
 -104 1200 l 1
 -217 848 l 1
 -351 848 l 1
EndSplineSet
EndChar
StartChar: uni0E49.low_left
Encoding: 135 63238
OldEncoding: 63238
Width: 0
Flags: HW
Fore
-336 1076 m 1
 -352 1037 -369 1005 -387 981 c 0
 -403 961 -415 949 -424 946 c 1
 -394 951 l 1
 -352 965 l 1
 -297 990 l 1
 -273 1007 -256 1020 -248 1030 c 0
 -206 1079 -178 1124 -164 1166 c 1
 -149 1219 l 1
 -19 1219 l 1
 -74 1048 -165 937 -292 884 c 0
 -370 853 -448 838 -528 838 c 1
 -590 840 l 1
 -628 847 l 1
 -612 893 l 1
 -601 897 -588 904 -575 914 c 0
 -560 925 -549 935 -542 946 c 1
 -581 958 l 2
 -604 965 -619 981 -626 1007 c 0
 -630 1018 -632 1030 -632 1041 c 0
 -632 1057 -630 1074 -626 1090 c 0
 -612 1129 -587 1161 -551 1187 c 1
 -518 1215 -480 1228 -438 1228 c 0
 -403 1228 -377 1221 -362 1206 c 0
 -344 1188 -334 1167 -332 1145 c 2
 -329 1122 l 1
 -329 1107 -332 1092 -336 1076 c 1
-498 1041 m 0
 -484 1041 -472 1046 -462 1056 c 0
 -453 1064 -445 1074 -440 1087 c 1
 -438 1102 l 1
 -440 1118 l 1
 -445 1127 -455 1131 -471 1131 c 0
 -483 1131 -495 1127 -508 1118 c 0
 -519 1109 -526 1099 -528 1087 c 1
 -531 1074 l 1
 -528 1056 l 1
 -524 1046 -514 1041 -498 1041 c 0
EndSplineSet
EndChar
StartChar: uni0E4A.low_left
Encoding: 136 63239
OldEncoding: 63239
Width: 0
Flags: HW
HStem: 833 71<-624.975 -604.635> 1078 86<-525 -507>
VStem: -715 90<928 936>
Fore
-625 833 m 0
 -667 835 -694 853 -704 886 c 1
 -712 903 -715 920 -715 937 c 0
 -715 960 -711 985 -702 1011 c 0
 -688 1050 -663 1087 -627 1120 c 0
 -598 1149 -561 1164 -516 1164 c 0
 -487 1164 -467 1158 -457 1147 c 0
 -444 1134 -437 1126 -435 1122 c 1
 -434 1123 -421 1132 -397 1147 c 1
 -382 1158 -360 1164 -331 1164 c 0
 -290 1164 -264 1151 -253 1126 c 1
 -246 1117 -243 1104 -243 1087 c 0
 -243 1073 -247 1053 -255 1025 c 0
 -267 988 -287 953 -315 921 c 1
 -283 939 l 2
 -269 946 -254 959 -239 976 c 0
 -210 1011 -191 1043 -183 1073 c 0
 -176 1093 -172 1114 -170 1136 c 1
 -66 1168 l 1
 -66 1164 l 2
 -66 1147 -70 1126 -79 1100 c 0
 -100 1033 -133 977 -181 932 c 0
 -216 897 -255 874 -297 863 c 0
 -336 852 -387 846 -450 846 c 1
 -445 865 l 1
 -443 884 l 1
 -431 892 -417 904 -401 921 c 0
 -385 937 -370 961 -357 994 c 1
 -353 1011 -350 1025 -350 1036 c 0
 -350 1061 -361 1073 -382 1073 c 0
 -397 1073 -411 1070 -424 1062 c 2
 -452 1043 l 1
 -475 1064 l 1
 -486 1073 -501 1078 -521 1078 c 0
 -559 1078 -584 1061 -596 1027 c 1
 -574 1032 l 1
 -545 1036 l 1
 -515 1034 -496 1024 -486 1007 c 1
 -481 976 l 1
 -481 958 -485 941 -492 925 c 1
 -498 902 -515 880 -542 860 c 0
 -567 842 -595 833 -625 833 c 0
-584 967 m 0
 -605 967 -618 957 -625 937 c 1
 -625 930 l 1
 -623 916 l 1
 -620 908 -614 904 -605 904 c 0
 -593 904 -583 907 -576 914 c 0
 -570 920 -566 928 -563 937 c 1
 -561 946 l 1
 -563 958 l 1
 -565 964 -572 967 -584 967 c 0
EndSplineSet
MinimumDistance: x0,-1 
EndChar
StartChar: uni0E4B.low_left
Encoding: 137 63240
OldEncoding: 63240
Width: 0
Flags: HW
HStem: 978 123<-495 -407 -233 -142>
DStem: -400.555 977.98 -276.255 977.98 -444.625 845.77 -316.935 845.77 -319.195 1232.23 -192.635 1232.23 -361.005 1101.15 -234.445 1101.15
Fore
-401 978 m 1
 -535 978 l 1
 -493 1101 l 1
 -361 1101 l 1
 -319 1232 l 1
 -193 1232 l 1
 -234 1101 l 1
 -100 1101 l 1
 -142 978 l 1
 -276 978 l 1
 -317 846 l 1
 -445 846 l 1
 -401 978 l 1
EndSplineSet
EndChar
StartChar: uni0E4C.low_left
Encoding: 138 63241
OldEncoding: 63241
Width: 0
Flags: HW
HStem: 841 93<-316 -292.875>
Fore
-15 1130 m 0
 -73 1120 -142 1114 -223 1114 c 0
 -183 1114 -155 1102 -140 1077 c 1
 -131 1064 -126 1048 -126 1029 c 0
 -126 1017 -128 1003 -132 987 c 1
 -147 947 -170 913 -200 885 c 1
 -236 856 -274 841 -315 841 c 0
 -368 839 -406 853 -430 885 c 1
 -442 905 -448 926 -448 948 c 0
 -448 969 -445 989 -439 1008 c 0
 -409 1096 -353 1157 -269 1194 c 0
 -233 1208 -186 1216 -128 1218 c 0
 -67 1223 -25 1230 -1 1240 c 0
 24 1249 43 1273 56 1311 c 1
 173 1311 l 1
 157 1265 134 1226 103 1194 c 0
 68 1158 29 1137 -15 1130 c 0
-262 1022 m 0
 -276 1022 -289 1018 -302 1010 c 1
 -313 1001 -320 991 -322 978 c 2
 -325 964 l 1
 -320 948 l 1
 -315 939 -306 934 -293 934 c 0
 -279 934 -266 939 -256 948 c 1
 -246 954 -238 964 -233 978 c 0
 -229 985 -227 992 -227 997 c 0
 -227 1013 -239 1022 -262 1022 c 0
EndSplineSet
EndChar
StartChar: uni0E48.low
Encoding: 139 63242
OldEncoding: 63242
Width: 0
Flags: HW
DStem: 16.7646 1200.28 151.235 1200.28 -96.2354 847.72 38.2354 847.72
Fore
-96 848 m 1
 17 1200 l 1
 151 1200 l 1
 38 848 l 1
 -96 848 l 1
EndSplineSet
EndChar
StartChar: uni0E49.low
Encoding: 140 63243
OldEncoding: 63243
Width: 0
Flags: HW
Fore
-6 1076 m 0
 -22 1033 -38 1001 -55 979 c 0
 -72 959 -84 948 -90 946 c 1
 -81 946 -68 949 -51 956 c 1
 -29 961 -7 968 16 979 c 0
 36 988 60 1005 86 1030 c 1
 125 1077 152 1124 170 1171 c 1
 183 1219 l 1
 313 1219 l 1
 256 1048 164 937 38 884 c 0
 -38 853 -116 838 -196 838 c 1
 -258 840 l 1
 -296 847 l 1
 -280 893 l 1
 -271 895 -258 902 -243 914 c 1
 -226 923 -214 934 -208 946 c 1
 -249 958 l 2
 -274 964 -289 981 -296 1007 c 1
 -300 1036 l 1
 -300 1056 -297 1074 -291 1090 c 0
 -280 1128 -256 1160 -219 1187 c 1
 -186 1215 -148 1228 -106 1228 c 0
 -58 1228 -27 1212 -11 1180 c 0
 -2 1164 3 1146 3 1127 c 0
 3 1107 -0 1090 -6 1076 c 0
-168 1041 m 0
 -155 1041 -142 1046 -132 1056 c 0
 -116 1068 -107 1078 -106 1087 c 2
 -104 1100 l 1
 -104 1105 -106 1111 -110 1118 c 0
 -117 1127 -127 1131 -141 1131 c 0
 -154 1131 -166 1127 -178 1118 c 0
 -190 1109 -196 1099 -199 1087 c 1
 -201 1074 l 1
 -199 1056 l 1
 -194 1046 -184 1041 -168 1041 c 0
EndSplineSet
EndChar
StartChar: uni0E4A.low
Encoding: 141 63244
OldEncoding: 63244
Width: 0
Flags: HW
HStem: 1101 94<-139 -128>
Fore
-249 837 m 0
 -293 837 -322 857 -336 897 c 0
 -342 913 -346 933 -346 956 c 0
 -346 984 -342 1009 -333 1029 c 0
 -318 1074 -292 1113 -253 1147 c 0
 -216 1179 -175 1195 -130 1195 c 0
 -115 1195 -101 1193 -88 1188 c 1
 -63 1175 l 2
 -55 1170 -50 1165 -49 1161 c 2
 -42 1150 l 1
 1 1176 l 1
 2 1177 l 2
 24 1189 46 1195 69 1195 c 0
 113 1195 143 1182 159 1157 c 1
 164 1142 166 1126 166 1110 c 0
 166 1094 162 1071 155 1043 c 1
 138 1000 115 962 85 930 c 1
 120 948 l 1
 136 958 153 972 171 989 c 0
 201 1022 223 1061 238 1106 c 0
 246 1128 250 1150 250 1170 c 2
 250 1182 l 1
 363 1203 l 1
 360 1180 356 1156 349 1131 c 1
 322 1052 283 988 233 941 c 1
 197 903 155 879 109 867 c 0
 59 855 3 848 -59 848 c 1
 -54 865 l 1
 -49 890 l 1
 -45 892 -29 906 -2 932 c 1
 15 951 29 977 41 1011 c 0
 47 1028 51 1044 51 1060 c 0
 51 1085 39 1098 16 1098 c 0
 -4 1098 -21 1093 -35 1084 c 1
 -55 1076 -67 1069 -72 1064 c 1
 -72 1064 l 1
 -77 1075 l 1
 -101 1093 l 1
 -114 1099 -126 1101 -137 1101 c 0
 -180 1101 -207 1083 -218 1047 c 1
 -194 1055 l 1
 -160 1060 l 1
 -131 1057 -110 1046 -97 1025 c 1
 -93 989 l 1
 -93 972 -96 954 -103 936 c 0
 -112 911 -130 888 -156 867 c 0
 -184 847 -215 837 -249 837 c 0
-188 985 m 0
 -212 985 -227 974 -234 952 c 1
 -236 939 l 1
 -236 925 -227 918 -209 918 c 0
 -186 918 -172 930 -165 952 c 1
 -163 965 l 1
 -165 976 l 1
 -167 982 -175 985 -188 985 c 0
EndSplineSet
EndChar
StartChar: uni0E4B.low
Encoding: 142 63245
OldEncoding: 63245
Width: 0
Flags: HW
HStem: 978 123<-155 -67 107 198>
DStem: -58.2949 977.98 64.875 977.98 -102.365 845.77 23.0654 845.77 23.0654 1232.23 147.365 1232.23 -18.7451 1101.15 105.555 1101.15
Fore
-58 978 m 1
 -195 978 l 1
 -153 1101 l 1
 -19 1101 l 1
 23 1232 l 1
 147 1232 l 1
 106 1101 l 1
 240 1101 l 1
 198 978 l 1
 65 978 l 1
 23 846 l 1
 -102 846 l 1
 -58 978 l 1
EndSplineSet
EndChar
StartChar: uni0E4C.low
Encoding: 143 63246
OldEncoding: 63246
Width: 0
Flags: HW
HStem: 843 90<-138 -115.355>
Fore
158 1130 m 0
 132 1126 94 1122 44 1119 c 2
 -49 1114 l 1
 -10 1114 18 1102 33 1077 c 0
 42 1063 46 1047 46 1028 c 0
 46 1017 44 1003 39 987 c 0
 27 945 6 911 -25 885 c 1
 -61 857 -99 843 -138 843 c 0
 -196 843 -236 859 -257 889 c 0
 -269 908 -275 929 -275 953 c 0
 -275 966 -271 984 -263 1008 c 0
 -247 1054 -225 1092 -199 1121 c 0
 -171 1151 -136 1175 -95 1193 c 0
 -60 1207 -13 1216 46 1221 c 0
 104 1223 147 1229 174 1240 c 1
 198 1246 217 1269 232 1311 c 1
 346 1311 l 1
 311 1207 249 1147 158 1130 c 0
-87 1024 m 0
 -101 1024 -113 1019 -124 1010 c 0
 -139 999 -147 989 -148 980 c 2
 -150 966 l 1
 -146 948 l 1
 -141 938 -131 933 -115 933 c 0
 -101 933 -89 938 -78 948 c 0
 -70 956 -63 967 -58 980 c 1
 -55 993 l 1
 -60 1013 l 1
 -65 1020 -74 1024 -87 1024 c 0
EndSplineSet
EndChar
StartChar: uni0E0D.descless
Encoding: 144 63247
OldEncoding: 63247
Width: 1031
Flags: HW
HStem: -14 85<128 160.265> -1 120<378 456 591 701> 766 20G<974.995 1109.46>
DStem: 611.135 591.555 738.825 571.215 456.325 119.215 590.795 119.215 974.995 785.915 1109.46 785.915 780.635 187.015 900.415 149.725
Fore
1109 786 m 1
 900 150 l 1
 886 103 870 71 852 53 c 0
 831 31 807 18 781 11 c 0
 747 3 707 -1 662 -1 c 2
 343 -1 l 1
 379 119 l 1
 456 119 l 1
 611 592 l 1
 616 627 l 1
 616 650 608 667 593 677 c 0
 568 697 532 708 485 710 c 0
 461 710 430 705 390 693 c 0
 345 682 312 666 290 645 c 1
 310 642 331 636 352 627 c 0
 382 616 406 601 426 583 c 1
 405 518 l 1
 378 518 350 510 322 494 c 0
 295 479 272 445 253 390 c 2
 216 280 l 1
 220 282 l 1
 227 282 l 2
 258 282 283 275 302 260 c 0
 318 246 329 228 333 205 c 1
 335 182 l 1
 335 166 333 150 329 134 c 0
 320 110 306 86 287 62 c 0
 267 37 244 19 218 6 c 0
 189 -7 160 -14 130 -14 c 0
 85 -14 54 1 35 30 c 1
 27 47 24 65 24 83 c 0
 24 100 27 117 33 136 c 2
 114 381 l 1
 127 426 144 460 165 485 c 1
 183 512 208 534 242 552 c 1
 230 559 213 565 193 571 c 0
 162 580 134 586 109 587 c 1
 123 631 l 1
 146 655 196 691 273 740 c 0
 347 783 439 805 549 805 c 0
 602 805 642 797 669 781 c 0
 698 766 720 747 734 724 c 1
 745 703 750 679 750 653 c 2
 750 647 l 1
 747 612 743 586 739 571 c 1
 591 119 l 1
 702 119 l 2
 726 119 743 123 755 132 c 1
 764 141 772 159 781 187 c 1
 975 786 l 1
 1109 786 l 1
160 71 m 0
 173 71 186 74 198 81 c 0
 213 90 222 97 227 103 c 0
 237 117 243 127 246 134 c 1
 248 157 l 1
 244 180 l 1
 236 191 222 196 202 196 c 0
 183 196 166 190 149 178 c 0
 131 164 121 150 118 134 c 1
 114 115 l 1
 118 92 l 1
 126 78 140 71 160 71 c 0
EndSplineSet
EndChar
StartChar: quoteleft
Encoding: 145 8216
OldEncoding: 8216
Width: 291
Flags: HW
Fore
117 802 m 4
 137 865 176 917 232 957 c 4
 292 1000 342 1023 385 1027 c 5
 389 994 l 5
 347 975 318 960 303 950 c 4
 284 937 265 915 248 883 c 5
 273 883 295 876 313 862 c 4
 325 854 331 841 331 823 c 4
 331 810 329 797 325 784 c 4
 316 759 300 735 276 711 c 5
 252 693 226 684 199 684 c 4
 159 684 133 695 121 716 c 4
 113 729 109 743 109 760 c 4
 109 773 112 787 117 802 c 4
EndSplineSet
EndChar
StartChar: quoteright
Encoding: 146 8217
OldEncoding: 8217
Width: 295
Flags: HW
Fore
354 857 m 4
 334 795 296 743 239 702 c 4
 180 661 129 638 87 633 c 5
 81 665 l 5
 129 688 158 703 167 709 c 4
 188 723 206 746 222 777 c 5
 197 777 176 784 158 797 c 4
 146 805 140 818 140 837 c 4
 140 850 142 863 146 876 c 4
 155 904 172 928 195 947 c 4
 217 966 242 976 271 976 c 4
 312 976 339 965 350 943 c 4
 357 930 361 915 361 899 c 4
 361 888 359 874 354 857 c 4
EndSplineSet
EndChar
StartChar: quotedblleft
Encoding: 147 8220
OldEncoding: 8220
Width: 587
Flags: HW
Fore
129 778 m 4
 147 843 183 897 236 939 c 4
 294 983 344 1008 386 1014 c 5
 392 983 l 5
 345 958 317 942 308 935 c 4
 288 919 271 895 256 865 c 5
 281 866 303 860 322 847 c 5
 335 840 342 828 343 809 c 4
 343 795 341 782 336 769 c 4
 329 741 314 717 291 696 c 4
 270 676 246 666 218 664 c 4
 176 662 149 671 136 692 c 4
 128 705 124 720 123 736 c 4
 123 747 125 761 129 778 c 4
382 791 m 4
 401 854 437 907 491 951 c 4
 548 996 598 1021 640 1027 c 5
 646 995 l 5
 602 971 574 955 562 948 c 4
 541 931 524 907 510 877 c 5
 535 878 557 872 576 860 c 5
 589 854 596 841 596 821 c 4
 597 808 596 795 592 782 c 4
 584 755 569 730 547 708 c 4
 524 688 499 677 471 677 c 4
 431 674 404 684 391 705 c 4
 382 717 378 732 377 749 c 4
 376 759 378 773 382 791 c 4
EndSplineSet
EndChar
StartChar: quotedblright
Encoding: 148 8221
OldEncoding: 8221
Width: 587
Flags: HW
Fore
621 857 m 5
 599 794 561 742 506 702 c 4
 446 661 395 638 352 633 c 5
 348 665 l 5
 396 688 424 703 433 709 c 4
 455 725 474 747 489 777 c 5
 464 777 442 784 424 797 c 5
 412 805 405 818 405 837 c 4
 405 850 408 863 413 876 c 4
 422 904 438 928 462 947 c 4
 483 966 509 976 537 976 c 4
 579 976 605 965 616 943 c 4
 624 930 628 915 628 899 c 4
 628 888 625 874 621 857 c 5
367 857 m 5
 345 795 306 743 250 702 c 4
 192 661 141 638 98 633 c 5
 93 665 l 5
 139 687 168 701 179 709 c 4
 201 725 219 747 235 777 c 5
 210 777 188 784 170 797 c 5
 157 804 151 817 151 837 c 4
 151 850 153 863 158 876 c 4
 167 903 183 926 206 947 c 5
 230 966 255 976 283 976 c 4
 323 976 349 965 362 943 c 4
 370 930 373 915 373 899 c 4
 373 888 371 874 367 857 c 5
EndSplineSet
EndChar
StartChar: bullet
Encoding: 149 8226
OldEncoding: 8226
Width: 370
Flags: HW
Fore
112 205 m 0
 51 205 9 225 -16 265 c 1
 -27 286 -32 310 -32 340 c 0
 -32 361 -29 382 -23 402 c 0
 -10 438 8 470 30 497 c 0
 56 526 87 551 123 572 c 0
 158 590 197 599 238 599 c 0
 280 599 313 590 338 572 c 0
 361 553 375 529 380 499 c 1
 382 474 l 1
 382 452 377 428 368 402 c 0
 352 348 321 301 273 263 c 0
 228 225 174 205 112 205 c 0
EndSplineSet
EndChar
StartChar: endash
Encoding: 150 8211
OldEncoding: 8211
Width: 1090
Flags: HW
HStem: 343 67<-57 1081>
Fore
-55 410 m 1
 1102 410 l 1
 1081 343 l 1
 -76 343 l 1
 -55 410 l 1
EndSplineSet
EndChar
StartChar: emdash
Encoding: 151 8212
OldEncoding: 8212
Width: 2183
Flags: HW
HStem: 343 67<-124 2174>
Fore
-122 410 m 1
 2194 410 l 1
 2174 343 l 1
 -142 343 l 1
 -122 410 l 1
EndSplineSet
EndChar
StartChar: uni0E31.left
Encoding: 152 63248
OldEncoding: 63248
Width: 0
Flags: HW
HStem: 1088 93<-358 -327.835>
Fore
-328 1181 m 0
 -280 1181 -249 1166 -233 1138 c 0
 -225 1122 -220 1106 -220 1090 c 0
 -220 1075 -225 1055 -233 1030 c 0
 -237 1018 -243 1003 -251 986 c 1
 -275 959 l 1
 -218 959 -161 972 -103 999 c 0
 -48 1024 12 1078 76 1160 c 1
 173 1118 l 1
 143 1068 101 1020 45 975 c 1
 -14 928 -69 896 -119 880 c 0
 -181 858 -241 847 -300 847 c 1
 -348 849 l 1
 -408 856 -458 875 -498 907 c 0
 -523 927 -536 953 -536 984 c 0
 -536 999 -533 1014 -529 1030 c 0
 -514 1073 -488 1109 -450 1138 c 0
 -417 1166 -376 1181 -328 1181 c 0
-392 977 m 0
 -374 977 -359 982 -346 993 c 1
 -335 1005 -326 1018 -319 1032 c 0
 -317 1037 -315 1043 -315 1050 c 1
 -321 1072 l 1
 -327 1082 -339 1088 -357 1088 c 0
 -378 1088 -393 1082 -404 1072 c 0
 -417 1060 -426 1046 -430 1032 c 2
 -434 1016 l 1
 -430 993 l 1
 -424 982 -411 977 -392 977 c 0
EndSplineSet
EndChar
StartChar: uni0E4D.left
Encoding: 153 63249
OldEncoding: 63249
Width: 0
Flags: HW
HStem: 903 95<-319.785 -288.145> 1121 95<-249 -218.085>
Fore
-218 1216 m 4
 -171 1216 -137 1201 -116 1170 c 5
 -109 1149 -105 1129 -105 1112 c 4
 -105 1096 -107 1079 -112 1061 c 4
 -125 1019 -152 982 -191 949 c 5
 -232 918 -275 903 -320 903 c 4
 -369 903 -402 918 -420 949 c 5
 -429 969 -434 988 -434 1007 c 4
 -434 1026 -431 1044 -425 1061 c 4
 -412 1104 -386 1140 -348 1170 c 4
 -309 1201 -266 1216 -218 1216 c 4
-288 998 m 4
 -271 998 -254 1004 -237 1017 c 4
 -222 1027 -212 1042 -207 1061 c 5
 -205 1082 l 5
 -209 1102 l 5
 -216 1115 -229 1121 -249 1121 c 4
 -269 1121 -285 1115 -297 1104 c 5
 -312 1094 -322 1079 -328 1061 c 5
 -332 1037 l 5
 -328 1017 l 5
 -319 1004 -306 998 -288 998 c 4
EndSplineSet
EndChar
StartChar: uni0E47.left
Encoding: 154 63250
OldEncoding: 63250
Width: 0
Flags: HW
Fore
-299 842 m 0
 -322 842 -341 848 -356 859 c 0
 -369 868 -383 882 -400 900 c 0
 -417 918 -431 931 -441 939 c 0
 -453 949 -467 954 -485 954 c 0
 -503 954 -520 942 -536 917 c 1
 -556 892 -570 866 -577 838 c 1
 -608 838 l 1
 -634 855 -652 884 -663 924 c 0
 -668 942 -670 960 -670 979 c 0
 -670 1004 -667 1025 -661 1043 c 0
 -654 1064 -645 1083 -633 1100 c 0
 -603 1138 -573 1164 -540 1178 c 0
 -509 1192 -469 1199 -418 1199 c 2
 -360 1197 l 1
 -263 1193 l 1
 -221 1193 -189 1199 -166 1213 c 0
 -144 1224 -127 1251 -113 1294 c 1
 -8 1294 l 1
 -28 1226 -61 1177 -107 1146 c 0
 -152 1115 -215 1100 -297 1100 c 0
 -330 1100 -362 1101 -392 1104 c 1
 -440 1104 -477 1098 -504 1085 c 0
 -528 1073 -546 1047 -557 1007 c 1
 -552 1017 -539 1028 -520 1039 c 0
 -501 1052 -474 1058 -438 1058 c 0
 -409 1058 -388 1052 -376 1041 c 1
 -351 1014 l 1
 -321 1058 -277 1081 -221 1081 c 0
 -183 1081 -157 1070 -142 1049 c 0
 -136 1038 -133 1024 -133 1007 c 0
 -133 994 -136 979 -140 963 c 0
 -152 925 -172 896 -200 877 c 0
 -232 854 -265 842 -299 842 c 0
-272 926 m 0
 -260 926 -249 930 -240 937 c 0
 -231 946 -225 955 -224 963 c 2
 -221 974 l 1
 -224 988 l 1
 -228 995 -237 998 -249 998 c 0
 -259 998 -269 994 -277 986 c 0
 -286 979 -292 971 -295 963 c 1
 -297 952 l 1
 -293 937 l 2
 -290 930 -284 926 -272 926 c 0
EndSplineSet
EndChar
StartChar: uni0E48.left
Encoding: 155 63251
OldEncoding: 63251
Width: 0
Flags: HW
DStem: -74.0146 1567.54 49.1553 1567.54 -162.155 1297.46 -38.9854 1297.46
Fore
-162 1297 m 1
 -74 1568 l 1
 49 1568 l 1
 -39 1297 l 1
 -162 1297 l 1
EndSplineSet
EndChar
StartChar: uni0E49.left
Encoding: 156 63252
OldEncoding: 63252
Width: 0
Flags: HW
Fore
-110 1465 m 4
 -124 1428 -138 1401 -152 1384 c 5
 -165 1366 -175 1356 -182 1353 c 6
 -147 1361 l 6
 -126 1367 -106 1375 -90 1384 c 4
 -69 1395 -49 1409 -31 1426 c 5
 -17 1442 -1 1465 15 1495 c 4
 27 1517 39 1547 49 1585 c 5
 159 1585 l 5
 109 1437 33 1342 -71 1300 c 4
 -136 1274 -202 1261 -267 1261 c 4
 -278 1261 -296 1263 -323 1266 c 6
 -353 1271 l 5
 -342 1309 l 5
 -309 1326 l 6
 -297 1334 -289 1343 -284 1353 c 5
 -316 1364 l 6
 -336 1370 -349 1383 -353 1404 c 5
 -358 1414 -360 1424 -360 1435 c 4
 -360 1448 -357 1462 -351 1477 c 5
 -343 1507 -323 1535 -291 1560 c 4
 -262 1583 -231 1594 -196 1594 c 4
 -156 1594 -129 1581 -115 1556 c 5
 -107 1537 -103 1521 -103 1507 c 4
 -103 1493 -106 1479 -110 1465 c 4
-249 1435 m 4
 -223 1435 -205 1448 -196 1474 c 5
 -194 1488 l 5
 -198 1502 l 5
 -203 1510 -211 1514 -223 1514 c 4
 -235 1514 -246 1510 -256 1502 c 4
 -266 1494 -272 1485 -274 1474 c 6
 -276 1463 l 5
 -272 1446 l 5
 -266 1439 -259 1435 -249 1435 c 4
EndSplineSet
EndChar
StartChar: uni0E4A.left
Encoding: 157 63253
OldEncoding: 63253
Width: 0
Flags: HW
HStem: 1248 69<-407.394 -385.923> 1480 81<-321 -304>
Fore
-407 1248 m 4
 -447 1250 -473 1268 -486 1301 c 4
 -493 1315 -496 1333 -496 1354 c 4
 -497 1369 -494 1390 -486 1416 c 5
 -463 1464 -438 1498 -412 1520 c 5
 -382 1548 -346 1561 -306 1561 c 4
 -289 1561 -275 1560 -264 1555 c 5
 -236 1535 l 5
 -227 1522 l 5
 -227 1522 l 5
 -220 1529 -207 1538 -189 1548 c 4
 -173 1557 -154 1561 -132 1561 c 4
 -92 1561 -67 1550 -56 1527 c 5
 -49 1517 -46 1504 -46 1488 c 4
 -46 1477 -50 1458 -58 1432 c 4
 -70 1392 -89 1358 -116 1330 c 5
 -83 1352 l 5
 -41 1383 l 5
 -14 1416 4 1448 14 1478 c 4
 19 1499 23 1519 25 1537 c 5
 123 1566 l 5
 123 1561 l 6
 123 1542 120 1525 114 1506 c 4
 91 1439 57 1385 12 1343 c 5
 -21 1310 -58 1288 -100 1277 c 4
 -138 1267 -186 1261 -244 1261 c 5
 -238 1279 l 5
 -233 1299 l 5
 -221 1308 -209 1319 -195 1332 c 4
 -181 1347 -167 1370 -155 1402 c 4
 -149 1421 -145 1436 -145 1449 c 6
 -145 1458 l 5
 -148 1471 -159 1478 -178 1478 c 4
 -192 1478 -205 1474 -218 1467 c 6
 -244 1449 l 5
 -244 1449 l 5
 -250 1458 l 5
 -273 1474 l 5
 -284 1478 -297 1480 -310 1480 c 4
 -346 1480 -370 1465 -381 1434 c 4
 -381 1435 -375 1437 -363 1440 c 5
 -333 1442 l 6
 -306 1442 -287 1433 -277 1414 c 4
 -273 1405 -271 1395 -271 1383 c 4
 -271 1367 -274 1352 -280 1337 c 4
 -286 1314 -302 1294 -326 1275 c 4
 -352 1257 -379 1248 -407 1248 c 4
-368 1374 m 4
 -389 1374 -403 1365 -410 1347 c 5
 -412 1335 l 5
 -412 1323 -403 1317 -386 1317 c 4
 -367 1317 -354 1327 -348 1347 c 5
 -345 1358 l 5
 -345 1369 -353 1374 -368 1374 c 4
EndSplineSet
EndChar
StartChar: uni0E4B.left
Encoding: 158 63254
OldEncoding: 63254
Width: 0
Flags: HW
HStem: 1378 106<-217 -134 24 100>
Fore
-132 1378 m 5
 -247 1378 l 5
 -215 1484 l 5
 -99 1484 l 5
 -67 1586 l 5
 49 1586 l 5
 17 1484 l 5
 132 1484 l 5
 100 1378 l 5
 -16 1378 l 5
 -48 1278 l 5
 -164 1278 l 5
 -132 1378 l 5
EndSplineSet
EndChar
StartChar: uni0E4C.left
Encoding: 159 63255
OldEncoding: 63255
Width: 0
Flags: HW
HStem: 1181 79<-285 -267>
VStem: -398 104<1270 1280>
Fore
-30 1426 m 0
 -32 1426 -75 1423 -158 1415 c 1
 -209 1413 l 1
 -172 1413 -147 1403 -134 1382 c 0
 -126 1369 -123 1355 -123 1338 c 1
 -127 1307 l 1
 -138 1272 -158 1243 -187 1218 c 0
 -214 1194 -247 1181 -284 1181 c 0
 -329 1179 -362 1192 -381 1221 c 1
 -393 1233 -398 1250 -398 1272 c 0
 -398 1290 -395 1307 -389 1322 c 0
 -363 1401 -315 1453 -246 1479 c 0
 -210 1493 -169 1501 -125 1503 c 0
 -83 1505 -47 1511 -19 1519 c 0
 3 1525 20 1545 32 1579 c 1
 129 1579 l 1
 117 1538 97 1505 69 1479 c 0
 36 1448 3 1430 -30 1426 c 0
-240 1336 m 0
 -266 1336 -282 1324 -289 1300 c 2
 -294 1281 l 1
 -294 1267 -285 1260 -266 1260 c 0
 -241 1260 -224 1273 -215 1300 c 1
 -213 1311 l 1
 -218 1325 l 1
 -223 1332 -230 1336 -240 1336 c 0
EndSplineSet
MinimumDistance: x19,-1 
EndChar
StartChar: uni0E01
Encoding: 161 3585
OldEncoding: 3585
Width: 807
Flags: HW
HStem: -1 21G<-48.3447 88.3848 430.775 565.245> 703 102<467 512.135>
VStem: 616 141<590.775 632.585>
DStem: 77.085 380.595 214.945 389.635 -48.3447 -1.34473 88.3848 -1.34473 603.665 533.145 740.395 544.445 430.775 -1.34473 565.245 -1.34473
Fore
204 551 m 1
 196 557 180 564 155 570 c 0
 126 579 98 585 71 586 c 1
 88 630 l 1
 128 665 l 1
 143 680 170 700 210 723 c 1
 262 749 307 769 345 781 c 0
 395 796 450 805 512 805 c 0
 575 805 626 795 665 776 c 0
 705 756 732 726 747 688 c 0
 754 674 757 656 757 633 c 0
 757 604 752 575 740 544 c 1
 565 -1 l 1
 431 -1 l 1
 604 533 l 1
 612 556 616 575 616 591 c 0
 616 618 607 641 590 661 c 0
 564 689 524 703 468 703 c 0
 403 703 331 682 252 642 c 1
 259 639 269 637 283 635 c 1
 334 619 l 1
 355 609 374 597 389 582 c 1
 369 517 l 1
 343 517 316 509 287 494 c 0
 256 477 232 442 215 390 c 1
 88 -1 l 1
 -48 -1 l 1
 77 381 l 1
 91 427 108 462 128 485 c 1
 146 510 171 532 204 551 c 1
EndSplineSet
MinimumDistance: x10,-1 
EndChar
StartChar: uni0E02
Encoding: 162 3586
OldEncoding: 3586
Width: 781
Flags: HW
HStem: -1 120<63 156 296 380> 445 95<141.06 173.83> 765 20G<657.47 794.2>
DStem: 233.72 354.475 372.71 358.995 156.88 118.305 293.61 118.305 657.47 785.005 794.2 785.005 465.37 186.105 587.41 148.815
Fore
410 588 m 1
 416 606 419 622 419 637 c 0
 419 654 416 666 410 674 c 1
 394 691 375 700 354 703 c 1
 361 667 l 1
 364 656 l 1
 364 642 360 624 351 603 c 0
 336 559 309 521 271 489 c 1
 231 460 188 445 141 445 c 0
 94 445 60 460 42 491 c 0
 31 509 26 529 26 551 c 0
 26 571 29 588 35 603 c 0
 48 645 71 682 104 714 c 1
 141 745 179 768 218 783 c 0
 259 799 300 806 340 806 c 0
 416 806 472 785 507 743 c 0
 527 719 537 690 537 656 c 0
 537 636 534 616 528 597 c 0
 517 564 505 541 492 526 c 1
 478 503 463 484 446 471 c 1
 400 420 l 1
 392 408 383 388 373 359 c 2
 294 119 l 1
 379 119 l 2
 407 119 426 122 437 131 c 1
 448 141 457 160 465 186 c 2
 657 785 l 1
 794 785 l 1
 587 149 l 1
 567 88 540 48 505 29 c 1
 472 9 417 -1 340 -1 c 2
 26 -1 l 1
 64 119 l 1
 157 119 l 1
 234 354 l 2
 242 380 253 403 266 425 c 1
 288 450 308 469 324 482 c 1
 375 531 l 1
 410 588 l 1
174 540 m 0
 193 540 210 546 225 559 c 0
 237 570 247 583 254 600 c 1
 256 623 l 1
 259 629 257 636 252 644 c 0
 246 655 233 661 213 661 c 0
 196 661 179 654 161 641 c 0
 148 630 139 616 134 600 c 1
 132 579 l 1
 137 559 l 1
 143 546 156 540 174 540 c 0
EndSplineSet
EndChar
StartChar: uni0E03
Encoding: 163 3587
OldEncoding: 3587
Width: 866
Flags: HW
HStem: -2 120<145 242 385 483> 341 93<131 160.89> 554 92<198 232.08>
VStem: 3 114<460 477>
DStem: 362.03 484.295 490.85 472.995 241.12 118.175 377.85 118.175 743.97 784.875 877.31 784.875 549.61 185.975 682.95 185.975
Fore
133 341 m 0
 71 341 32 360 17 398 c 1
 8 417 3 438 3 462 c 0
 3 490 8 518 20 544 c 1
 42 607 l 1
 60 645 88 681 128 716 c 0
 161 745 197 768 234 785 c 0
 269 801 298 809 320 809 c 1
 391 760 l 1
 508 809 l 1
 545 802 578 783 605 753 c 1
 622 731 630 707 630 683 c 1
 625 648 l 1
 616 620 602 599 586 584 c 2
 530 537 l 1
 515 522 502 501 491 473 c 1
 378 118 l 1
 466 118 l 2
 495 118 513 122 521 131 c 0
 530 139 540 157 550 186 c 1
 744 785 l 1
 877 785 l 1
 683 186 l 1
 663 120 637 72 605 42 c 1
 576 13 526 -2 455 -2 c 2
 109 -2 l 1
 146 118 l 1
 241 118 l 1
 362 484 l 1
 382 550 421 595 477 621 c 1
 498 632 510 643 512 654 c 2
 515 663 l 1
 515 676 503 690 480 705 c 1
 358 654 l 1
 265 705 l 1
 241 701 219 690 197 672 c 0
 181 658 169 644 161 630 c 1
 165 634 172 637 183 639 c 1
 193 644 209 646 232 646 c 0
 262 646 287 639 307 626 c 0
 324 614 335 597 341 575 c 1
 343 549 l 1
 343 533 341 517 336 500 c 0
 322 455 297 416 260 385 c 1
 222 355 179 341 133 341 c 0
161 434 m 0
 177 434 194 439 212 452 c 1
 225 464 234 478 239 493 c 1
 243 517 l 1
 239 537 l 1
 232 549 219 554 199 554 c 0
 183 554 167 548 151 535 c 0
 137 525 127 511 119 493 c 1
 117 478 l 1
 117 468 119 460 124 452 c 0
 131 439 144 434 161 434 c 0
EndSplineSet
EndChar
StartChar: uni0E04
Encoding: 164 3588
OldEncoding: 3588
Width: 797
Flags: HW
HStem: -2 21G<2.4248 139.155 419.395 556.125> 705 106<443 486.065>
VStem: 31 115<397 453> 601 141<585.865 620.895>
DStem: 46.4951 134.995 240.855 307.885 2.4248 -1.73535 139.155 -1.73535 590.025 525.975 726.755 532.755 419.395 -1.73535 556.125 -1.73535
Fore
298 294 m 1
 263 299 l 1
 248 303 241 306 241 308 c 1
 241 308 l 1
 139 -2 l 1
 2 -2 l 1
 46 135 l 2
 56 162 60 188 60 213 c 2
 60 230 l 1
 59 245 53 277 44 325 c 1
 35 359 31 391 31 422 c 2
 31 433 l 2
 31 461 36 491 46 524 c 0
 65 582 99 635 148 681 c 0
 197 725 250 758 308 778 c 0
 369 800 429 811 486 811 c 0
 546 811 597 801 639 780 c 0
 685 759 715 727 731 685 c 0
 739 663 742 641 742 621 c 0
 742 598 737 568 727 533 c 1
 556 -2 l 1
 419 -2 l 1
 590 526 l 2
 598 549 601 569 601 586 c 0
 601 614 593 638 576 658 c 1
 544 689 500 705 444 705 c 0
 385 705 328 688 274 656 c 0
 216 622 178 576 159 519 c 0
 150 488 146 460 146 433 c 2
 146 427 l 2
 146 402 147 389 148 389 c 2
 150 392 l 1
 164 432 191 478 232 528 c 0
 273 579 329 605 400 607 c 0
 448 607 482 593 500 563 c 0
 509 547 514 528 514 508 c 0
 514 487 511 468 504 451 c 0
 491 411 467 375 431 343 c 1
 390 313 346 297 298 294 c 1
331 389 m 0
 349 389 366 395 382 407 c 1
 393 420 403 435 410 451 c 1
 415 475 l 1
 410 495 l 1
 403 507 390 512 371 512 c 0
 353 512 337 506 322 493 c 1
 308 483 297 469 289 451 c 1
 287 431 l 1
 292 407 l 1
 299 395 312 389 331 389 c 0
EndSplineSet
MinimumDistance: x18,-1 
EndChar
StartChar: uni0E05
Encoding: 165 3589
OldEncoding: 3589
Width: 797
Flags: HW
HStem: -1 21G<4.4248 141.155 421.395 558.125>
VStem: 33 115<397 454>
DStem: 48.4951 135.645 240.595 308.535 4.4248 -1.08496 141.155 -1.08496 592.025 528.885 728.755 533.405 421.395 -1.08496 558.125 -1.08496
Fore
373 800 m 1
 479 749 l 1
 623 800 l 1
 662 789 693 767 715 735 c 1
 733 707 742 674 745 635 c 0
 745 603 739 569 729 533 c 1
 558 -1 l 1
 421 -1 l 1
 592 529 l 1
 606 567 613 598 613 622 c 0
 613 643 601 663 576 681 c 1
 442 637 l 1
 340 688 l 1
 293 671 256 649 229 622 c 1
 196 591 174 557 161 520 c 0
 152 489 148 460 148 434 c 2
 148 427 l 2
 148 402 149 390 150 390 c 2
 152 392 l 1
 166 433 193 478 234 529 c 0
 275 579 331 606 402 608 c 0
 450 608 484 593 502 564 c 0
 511 547 516 529 516 509 c 0
 516 488 513 469 507 452 c 0
 494 411 469 375 433 344 c 1
 392 313 348 297 300 295 c 1
 267 299 l 1
 249 304 241 307 241 309 c 1
 241 309 l 1
 141 -1 l 1
 4 -1 l 1
 48 136 l 2
 58 163 62 189 62 214 c 2
 62 231 l 1
 61 246 55 277 46 325 c 1
 37 359 33 392 33 423 c 2
 33 434 l 2
 33 462 38 492 48 524 c 0
 97 660 205 752 373 800 c 1
333 390 m 0
 351 390 368 396 384 408 c 1
 395 421 405 435 412 452 c 1
 417 476 l 1
 412 496 l 1
 405 507 392 513 373 513 c 0
 355 513 339 507 324 494 c 1
 310 484 299 470 291 452 c 1
 289 432 l 1
 294 408 l 1
 301 396 314 390 333 390 c 0
EndSplineSet
MinimumDistance: x5,-1 
EndChar
StartChar: uni0E06
Encoding: 166 3590
OldEncoding: 3590
Width: 992
Flags: HW
HStem: -16 104<189 211> -0 21G<618.935 755.665> 335 90<132 156.765> 766 20G<876.575 1009.92>
VStem: 3 112<451 469>
DStem: 290.105 256.335 422.315 251.815 243.775 119.605 378.245 119.605 876.575 786.305 1009.92 786.305 693.515 220.175 755.665 -0.174805
Fore
492 465 m 2
 460 364 l 1
 494 358 527 349 559 335 c 0
 580 325 609 306 645 278 c 1
 671 256 687 237 694 220 c 1
 877 786 l 1
 1010 786 l 1
 756 -0 l 1
 619 -0 l 1
 621 16 l 1
 621 34 618 56 612 79 c 0
 603 117 583 155 552 192 c 0
 524 225 480 245 422 252 c 1
 378 120 l 1
 364 79 341 47 309 22 c 0
 273 -3 234 -16 191 -16 c 0
 136 -16 100 2 82 37 c 0
 72 56 66 78 66 104 c 0
 66 120 70 139 78 161 c 0
 93 212 124 257 170 296 c 0
 214 335 266 358 325 364 c 1
 362 479 l 1
 383 544 421 590 478 616 c 1
 499 622 510 632 513 645 c 1
 513 655 l 2
 513 670 502 685 480 698 c 1
 358 647 l 1
 265 698 l 1
 238 694 214 682 193 664 c 1
 147 616 l 1
 156 621 167 625 179 629 c 0
 189 632 207 635 232 638 c 1
 278 638 309 624 327 596 c 0
 338 581 343 562 343 539 c 0
 343 525 341 509 336 493 c 0
 324 451 297 414 256 382 c 0
 216 351 175 335 133 335 c 0
 72 338 34 356 18 391 c 0
 8 410 3 431 3 453 c 0
 3 474 8 501 18 534 c 1
 43 599 l 1
 71 657 115 706 175 744 c 0
 235 782 283 801 318 801 c 1
 393 755 l 1
 506 801 l 1
 542 797 575 780 605 748 c 1
 622 725 630 702 630 678 c 1
 626 643 l 1
 617 622 609 606 601 594 c 1
 559 556 l 2
 532 530 518 517 517 516 c 0
 507 503 499 486 492 465 c 2
179 108 m 1
 182 95 191 88 208 88 c 0
 225 88 237 99 244 120 c 2
 290 256 l 1
 267 254 245 244 223 225 c 1
 202 201 188 179 182 159 c 1
 177 128 l 1
 179 108 l 1
157 425 m 0
 174 425 192 432 210 444 c 1
 223 455 232 470 237 488 c 1
 242 512 l 1
 237 530 l 1
 229 542 216 548 197 548 c 0
 182 548 165 542 147 530 c 0
 135 520 125 506 117 488 c 1
 115 470 l 1
 115 459 117 451 122 444 c 1
 126 432 138 425 157 425 c 0
EndSplineSet
EndChar
StartChar: uni0E07
Encoding: 167 3591
OldEncoding: 3591
Width: 634
Flags: HW
HStem: 706 95<465 495.735>
DStem: 14.3555 492.895 181.595 430.745 130.745 53.3252 232.445 236.385 422.285 492.895 608.735 653.355 305.895 136.945 433.585 113.215
Fore
496 801 m 0
 542 801 576 787 597 760 c 1
 610 738 617 717 617 699 c 0
 617 683 614 668 609 653 c 1
 434 113 l 1
 421 72 396 39 359 14 c 0
 326 -10 289 -22 248 -22 c 0
 183 -22 144 3 131 53 c 2
 14 493 l 1
 144 563 l 1
 182 431 l 1
 232 236 l 1
 257 126 l 1
 264 104 271 93 279 93 c 0
 288 93 297 108 306 137 c 1
 422 493 l 1
 414 493 l 1
 394 491 l 1
 346 491 313 506 297 537 c 0
 286 555 281 575 281 597 c 0
 281 615 284 631 290 645 c 1
 301 688 327 724 366 755 c 0
 405 786 448 801 496 801 c 0
427 583 m 0
 443 583 460 589 478 601 c 1
 490 613 500 628 507 645 c 1
 509 667 l 1
 505 690 l 1
 499 701 486 706 466 706 c 0
 449 706 433 700 418 687 c 1
 402 677 392 663 387 645 c 1
 383 625 l 1
 383 617 385 609 390 601 c 0
 397 589 409 583 427 583 c 0
EndSplineSet
MinimumDistance: x3,-1 
EndChar
StartChar: uni0E08
Encoding: 168 3592
OldEncoding: 3592
Width: 748
Flags: HW
HStem: 245 95<170 200.72> 460 95<239 273.04> 701 110<420 460.62>
VStem: 249 132<101 108> 560 139<604 636.18>
DStem: 547.63 545.78 684.36 550.3 416.55 138.98 560.06 166.101
Fore
560 166 m 2
 537 97 510 52 476 32 c 0
 440 11 401 -0 358 -0 c 0
 322 -0 296 9 278 27 c 0
 259 44 249 69 249 102 c 2
 249 111 l 1
 256 210 l 1
 258 261 l 1
 258 270 l 1
 255 267 246 262 231 254 c 0
 216 248 196 245 171 245 c 0
 120 247 87 263 71 292 c 1
 60 307 55 326 55 349 c 0
 55 367 58 384 64 400 c 0
 80 443 106 479 143 508 c 0
 181 539 224 555 273 555 c 0
 351 555 392 521 395 452 c 1
 395 440 l 1
 388 -246 384 -350 384 127 c 1
 381 108 l 1
 381 101 384 97 388 97 c 0
 397 97 407 111 417 139 c 1
 548 546 l 2
 556 571 560 591 560 606 c 0
 560 630 552 650 536 667 c 1
 509 689 471 701 421 701 c 0
 326 701 230 658 134 572 c 1
 66 634 l 1
 176 751 308 811 461 811 c 0
 550 811 617 788 662 742 c 1
 687 715 699 680 699 636 c 0
 699 612 694 583 684 550 c 1
 560 166 l 2
201 340 m 0
 222 340 239 345 252 356 c 0
 265 366 275 381 280 400 c 1
 284 424 l 1
 282 444 l 1
 276 455 262 460 240 460 c 0
 223 460 206 454 189 442 c 0
 177 431 166 417 159 400 c 1
 157 382 l 1
 157 373 159 365 163 358 c 0
 172 346 184 340 201 340 c 0
EndSplineSet
MinimumDistance: x30,-1 
EndChar
StartChar: uni0E09
Encoding: 169 3593
OldEncoding: 3593
Width: 872
Flags: HW
HStem: -0 318<109 134> 439 95<158 189.615>
VStem: 616 139<596.205 631.235>
DStem: 513.925 258.335 647.265 258.335 465.335 110.305 598.675 112.565 604.325 538.575 737.665 540.835 545.565 357.775 677.775 357.775
Fore
190 534 m 0
 234 534 266 521 287 495 c 0
 299 478 305 459 305 437 c 0
 305 426 303 412 298 395 c 1
 238 207 l 1
 275 244 323 276 382 302 c 0
 433 327 488 346 546 358 c 1
 604 539 l 2
 612 563 616 582 616 596 c 0
 616 620 609 640 596 657 c 1
 571 685 529 698 470 696 c 0
 430 696 385 683 335 657 c 0
 288 632 243 601 201 565 c 1
 130 627 l 1
 179 676 239 720 309 757 c 1
 379 789 448 805 516 805 c 0
 611 805 680 782 722 735 c 1
 744 704 755 669 755 631 c 0
 755 601 749 571 738 541 c 1
 678 358 l 1
 724 349 755 326 768 289 c 0
 774 275 777 257 777 236 c 0
 777 212 773 185 764 154 c 0
 748 104 719 63 678 32 c 1
 639 -0 596 -16 550 -16 c 0
 515 -16 489 -6 474 13 c 0
 462 27 455 42 455 57 c 0
 455 72 459 90 465 110 c 2
 514 258 l 1
 438 241 366 207 298 157 c 1
 236 108 192 56 166 -0 c 1
 35 -0 l 1
 108 227 l 1
 99 224 l 1
 88 222 l 1
 39 224 7 241 -9 271 c 1
 -21 287 -26 305 -26 326 c 0
 -26 340 -23 357 -16 377 c 0
 -5 416 20 452 60 485 c 0
 100 518 143 534 190 534 c 0
676 166 m 0
 680 180 682 193 682 205 c 1
 678 229 l 1
 673 244 663 254 647 258 c 1
 599 113 l 1
 596 99 l 1
 596 88 601 83 611 83 c 1
 620 86 628 91 634 97 c 0
 646 109 654 120 660 132 c 0
 669 147 674 158 676 166 c 0
121 318 m 0
 139 318 156 323 172 335 c 0
 185 346 194 361 199 379 c 1
 203 402 l 1
 201 423 l 1
 195 434 181 439 159 439 c 0
 143 439 126 433 111 421 c 0
 98 410 88 396 81 379 c 1
 77 358 l 1
 77 351 79 344 83 337 c 0
 90 324 103 318 121 318 c 0
EndSplineSet
MinimumDistance: x17,-1 
EndChar
StartChar: uni0E0A
Encoding: 170 3594
OldEncoding: 3594
Width: 790
Flags: HW
HStem: -4 120<71 169 319 401> 440 97<154.51 189.54>
DStem: 247.17 356.33 377.12 342.77 169.2 115.64 303.67 115.64 553.4 448.99 692.39 461.42 469.78 183.44 589.56 146.15
Fore
417 588 m 0
 423 605 426 622 426 637 c 0
 426 651 423 663 419 672 c 0
 406 691 389 702 368 704 c 1
 377 667 l 1
 377 654 l 2
 377 635 374 618 368 603 c 0
 354 555 327 516 289 486 c 0
 248 455 203 440 155 440 c 0
 109 440 75 455 55 486 c 0
 45 504 39 524 39 546 c 0
 39 567 42 585 48 603 c 0
 60 640 83 673 118 704 c 0
 151 735 188 757 229 773 c 0
 275 791 313 799 342 799 c 0
 402 799 449 787 486 762 c 0
 523 736 541 706 541 669 c 1
 561 669 594 681 642 704 c 1
 687 724 747 773 819 850 c 1
 894 787 l 1
 854 733 812 694 768 669 c 0
 724 644 692 628 671 621 c 1
 681 616 692 602 704 579 c 0
 708 572 710 562 710 548 c 0
 710 527 704 498 692 461 c 2
 590 146 l 1
 577 105 562 73 544 49 c 1
 526 27 506 13 483 7 c 0
 455 -0 419 -4 373 -4 c 2
 32 -4 l 1
 72 116 l 1
 169 116 l 1
 247 356 l 1
 258 385 269 406 278 420 c 1
 329 475 l 1
 352 492 370 509 382 524 c 0
 394 539 406 560 417 588 c 0
190 537 m 0
 209 537 226 544 240 556 c 0
 253 566 263 580 271 597 c 1
 273 621 l 1
 269 641 l 1
 263 652 249 658 229 658 c 0
 211 658 195 652 180 639 c 1
 165 628 155 614 148 597 c 1
 145 579 l 1
 145 571 148 563 152 556 c 0
 161 544 173 537 190 537 c 0
523 572 m 1
 510 538 499 515 490 505 c 0
 480 492 466 478 449 464 c 0
 438 452 425 436 410 415 c 0
 396 395 385 371 377 343 c 1
 304 116 l 1
 379 116 l 2
 407 116 428 120 442 128 c 1
 451 137 461 156 470 183 c 2
 553 449 l 2
 562 477 567 499 567 517 c 0
 567 530 565 539 560 546 c 0
 547 563 534 572 523 572 c 1
EndSplineSet
MinimumDistance: x24,-1 
EndChar
StartChar: uni0E0B
Encoding: 171 3595
OldEncoding: 3595
Width: 839
Flags: HW
HStem: -4 120<119 218 364 446> 338 93<110 136.3> 552 92<174 210.88>
DStem: 300.15 368.76 425.58 342.77 217.66 115.64 352.13 115.64 604.12 448.99 745.37 461.42 518.24 183.44 641.41 146.15
Fore
485 806 m 1
 515 804 543 788 569 760 c 0
 592 734 604 709 604 685 c 1
 602 669 l 1
 623 672 655 686 699 709 c 0
 745 731 801 779 867 850 c 1
 947 787 l 1
 907 733 865 694 821 669 c 0
 777 644 745 628 724 621 c 1
 734 617 745 603 757 579 c 1
 759 548 l 1
 759 518 754 489 745 461 c 2
 641 146 l 1
 619 81 594 40 567 24 c 1
 539 5 491 -4 423 -4 c 2
 83 -4 l 1
 120 116 l 1
 218 116 l 1
 300 369 l 1
 312 399 322 420 331 431 c 1
 384 480 l 1
 407 497 425 513 437 528 c 0
 451 544 463 564 472 588 c 0
 481 614 485 635 485 651 c 2
 485 658 l 1
 483 673 473 688 456 702 c 1
 335 651 l 1
 243 702 l 1
 215 698 193 687 176 669 c 1
 159 654 146 640 139 628 c 1
 148 633 156 636 162 637 c 1
 171 641 188 644 211 644 c 0
 240 644 264 637 284 623 c 0
 301 613 313 596 322 572 c 1
 324 546 l 1
 324 530 322 514 317 498 c 1
 298 450 272 412 238 385 c 0
 198 354 156 338 111 338 c 0
 53 338 14 357 -7 396 c 1
 -15 420 -19 442 -19 461 c 0
 -19 486 -14 512 -5 542 c 1
 21 605 l 2
 38 644 64 680 101 711 c 1
 145 745 182 769 213 782 c 0
 247 798 275 806 296 806 c 1
 370 757 l 1
 441 787 l 1
 485 806 l 1
571 572 m 1
 559 545 548 525 536 512 c 1
 525 495 512 480 498 468 c 0
 484 455 471 438 458 417 c 0
 444 393 433 368 426 343 c 1
 352 116 l 1
 430 116 l 2
 459 116 479 120 490 128 c 0
 500 137 509 156 518 183 c 2
 604 449 l 2
 613 477 618 499 618 517 c 0
 618 530 615 540 609 546 c 0
 595 563 583 572 571 572 c 1
136 431 m 0
 156 431 173 437 187 449 c 0
 201 462 211 476 218 491 c 1
 222 515 l 1
 222 521 220 528 215 535 c 0
 209 546 195 552 176 552 c 0
 159 552 142 545 127 533 c 0
 111 521 101 507 97 491 c 1
 94 475 l 1
 99 449 l 1
 107 437 119 431 136 431 c 0
EndSplineSet
MinimumDistance: x11,-1 
EndChar
StartChar: uni0E0C
Encoding: 172 3596
OldEncoding: 3596
Width: 1038
Flags: HW
HStem: -14 85<76 107.59> -14 80<372 394> -1 21G<664.68 799.15> 766 20G<918.93 1053.4>
DStem: 556.2 591.555 681.63 571.215 459.02 293.235 591.23 286.455 918.93 785.915 1053.4 785.915 724.57 184.755 799.15 -0.56543
Fore
528 92 m 1
 520 65 501 39 473 15 c 1
 446 -4 413 -14 373 -14 c 0
 334 -14 309 -0 297 28 c 0
 292 40 290 55 290 71 c 0
 290 88 294 109 302 136 c 0
 312 174 332 208 360 238 c 0
 386 264 419 283 459 293 c 1
 556 592 l 1
 561 627 l 1
 561 649 554 666 540 677 c 0
 516 697 478 708 429 710 c 0
 404 710 374 705 336 693 c 0
 294 683 261 667 234 645 c 1
 254 642 275 636 297 627 c 0
 327 616 351 601 371 583 c 1
 351 518 l 1
 325 518 298 510 269 494 c 0
 238 478 213 443 197 390 c 2
 163 280 l 1
 167 282 l 1
 174 282 l 2
 207 282 230 275 245 260 c 1
 265 247 276 228 278 205 c 2
 280 182 l 1
 280 166 278 150 274 134 c 0
 268 110 254 86 232 62 c 1
 214 39 192 21 165 6 c 0
 137 -7 108 -14 77 -14 c 0
 29 -14 -3 1 -18 30 c 0
 -27 46 -31 63 -31 83 c 0
 -31 100 -28 117 -22 136 c 2
 59 381 l 1
 73 428 90 463 110 485 c 1
 128 511 153 533 186 552 c 1
 178 558 162 564 137 571 c 0
 111 580 83 585 53 587 c 1
 70 631 l 1
 91 657 141 693 221 740 c 0
 294 783 385 805 494 805 c 0
 545 805 585 797 614 781 c 0
 645 766 665 746 676 724 c 0
 689 700 695 677 695 653 c 2
 695 647 l 1
 693 619 688 594 682 571 c 1
 591 286 l 1
 615 280 638 268 658 251 c 0
 685 230 700 217 704 212 c 0
 716 201 722 192 725 185 c 1
 919 786 l 1
 1053 786 l 1
 799 -1 l 1
 665 -1 l 1
 662 22 654 56 640 101 c 1
 622 145 595 172 558 182 c 1
 528 92 l 1
108 71 m 0
 120 71 132 74 144 81 c 0
 155 87 165 94 174 103 c 0
 180 110 185 120 190 134 c 1
 192 157 l 1
 188 180 l 1
 182 191 169 196 148 196 c 0
 129 196 111 190 93 178 c 0
 79 167 69 152 64 134 c 1
 59 115 l 1
 59 106 61 99 66 92 c 0
 73 78 86 71 108 71 c 0
410 79 m 1
 452 205 l 1
 433 203 416 195 404 182 c 0
 389 168 379 150 373 127 c 1
 369 106 l 1
 373 85 l 1
 375 73 382 66 392 66 c 0
 400 66 406 70 410 79 c 1
EndSplineSet
EndChar
StartChar: uni0E0D
Encoding: 173 3597
OldEncoding: 3597
Width: 1031
Flags: HW
HStem: -361 137<381.745 428.075> -99 85<422 451.805> -43 20G<701.535 836.005> 7 85<128 160.265> 21 120<378 456 591 701>
DStem: 611.135 612.745 738.825 592.405 456.325 140.405 590.795 140.405 974.995 807.105 1109.46 807.105 780.635 208.205 900.415 170.915
Fore
1109 807 m 1
 900 171 l 1
 886 124 870 92 852 74 c 0
 831 53 807 39 781 32 c 0
 747 24 707 21 662 21 c 2
 343 21 l 1
 379 141 l 1
 456 141 l 1
 611 613 l 1
 616 648 l 1
 616 671 608 688 593 699 c 0
 568 718 532 729 485 731 c 0
 461 731 430 726 390 714 c 0
 345 703 312 687 290 666 c 1
 310 663 331 657 352 648 c 0
 382 637 406 623 426 604 c 1
 405 539 l 1
 378 539 350 531 322 516 c 0
 295 500 272 466 253 412 c 2
 216 301 l 1
 220 303 l 1
 227 303 l 2
 258 303 283 296 302 282 c 0
 318 267 329 249 333 226 c 1
 335 204 l 1
 335 187 333 171 329 155 c 0
 320 131 306 107 287 83 c 0
 267 59 244 40 218 27 c 0
 189 14 160 7 130 7 c 0
 85 7 54 22 35 51 c 1
 27 68 24 86 24 104 c 0
 24 121 27 139 33 157 c 2
 114 403 l 1
 127 447 144 482 165 507 c 1
 183 533 208 555 242 573 c 1
 230 580 213 586 193 592 c 0
 162 601 134 607 109 608 c 1
 123 652 l 1
 146 676 196 713 273 761 c 0
 347 804 439 826 549 826 c 0
 602 826 642 818 669 803 c 0
 698 788 720 768 734 745 c 1
 745 724 750 700 750 674 c 2
 750 668 l 1
 747 633 743 607 739 592 c 1
 591 141 l 1
 702 141 l 2
 726 141 743 145 755 153 c 1
 764 162 772 180 781 208 c 1
 975 807 l 1
 1109 807 l 1
498 -246 m 1
 530 -246 564 -232 602 -204 c 0
 637 -178 670 -117 702 -23 c 1
 836 -23 l 1
 808 -108 771 -176 725 -227 c 1
 676 -278 628 -313 579 -331 c 0
 531 -351 480 -361 428 -361 c 0
 391 -361 359 -356 331 -345 c 1
 283 -324 256 -300 248 -273 c 0
 244 -262 242 -247 242 -229 c 0
 242 -213 245 -190 253 -162 c 0
 266 -124 291 -89 329 -58 c 0
 365 -29 406 -14 452 -14 c 0
 502 -14 534 -29 547 -58 c 0
 554 -76 558 -93 558 -109 c 0
 558 -127 555 -146 549 -165 c 0
 538 -199 521 -226 498 -246 c 1
382 -224 m 0
 400 -224 418 -219 436 -207 c 0
 449 -197 459 -182 468 -162 c 1
 472 -141 l 1
 472 -132 469 -124 463 -118 c 1
 456 -106 442 -99 424 -99 c 0
 407 -99 389 -106 370 -118 c 0
 356 -129 346 -144 341 -162 c 2
 335 -181 l 1
 335 -190 338 -198 343 -207 c 0
 351 -219 364 -224 382 -224 c 0
160 92 m 0
 173 92 186 95 198 102 c 0
 213 111 222 119 227 125 c 0
 237 138 243 148 246 155 c 1
 248 178 l 1
 244 201 l 1
 236 212 222 217 202 217 c 0
 183 217 166 211 149 199 c 0
 131 186 121 171 118 155 c 1
 114 136 l 1
 118 113 l 1
 126 99 140 92 160 92 c 0
EndSplineSet
EndChar
StartChar: uni0E0E
Encoding: 174 3598
OldEncoding: 3598
Width: 876
Flags: HW
HStem: 226 88<133 161.53> 724 102<598 642.91>
VStem: -71 115<-242.912 -213.532> 748 141<612.497 652.048>
DStem: 735.57 554.867 874.56 566.167 499.4 -173.982 573.98 -357.043
Fore
400 -88 m 1
 429 -108 451 -123 466 -134 c 1
 499 -174 l 1
 736 555 l 1
 744 577 748 597 748 612 c 0
 748 638 739 661 722 683 c 1
 696 710 656 724 600 724 c 0
 570 724 535 719 495 707 c 0
 453 698 416 683 384 663 c 1
 404 660 424 655 446 648 c 0
 470 642 495 627 521 603 c 1
 499 539 l 1
 473 539 446 531 419 515 c 0
 388 499 363 464 347 411 c 2
 267 162 l 1
 249 114 224 77 190 51 c 1
 157 22 114 7 62 5 c 1
 14 7 -19 22 -37 51 c 0
 -48 66 -53 84 -53 106 c 0
 -53 123 -50 140 -44 157 c 0
 -26 203 0 240 35 268 c 1
 70 299 113 314 162 314 c 2
 174 314 l 1
 178 312 l 1
 208 402 l 1
 224 449 241 484 259 506 c 0
 282 534 308 556 338 573 c 1
 327 580 310 586 287 592 c 0
 258 601 230 606 203 608 c 1
 218 652 l 1
 259 687 l 2
 287 711 315 730 342 745 c 1
 378 767 423 786 477 802 c 0
 527 818 582 826 643 826 c 0
 701 826 752 816 797 796 c 0
 839 774 866 745 879 707 c 0
 886 692 889 673 889 652 c 0
 889 628 884 599 875 566 c 1
 574 -357 l 1
 440 -357 l 1
 422 -311 403 -277 382 -255 c 1
 327 -202 l 1
 294 -245 255 -281 208 -311 c 1
 151 -344 97 -359 46 -357 c 0
 2 -357 -31 -340 -53 -306 c 0
 -65 -286 -71 -265 -71 -243 c 0
 -71 -229 -67 -209 -60 -185 c 0
 -45 -135 -13 -94 35 -63 c 0
 79 -33 130 -17 188 -15 c 0
 222 -15 262 -23 307 -40 c 1
 329 -2 l 1
 366 64 l 1
 470 38 l 1
 458 11 446 -13 433 -33 c 1
 400 -87 l 1
 400 -88 l 1
90 92 m 0
 111 92 129 99 146 113 c 0
 162 127 173 142 181 159 c 1
 185 182 l 1
 185 193 183 201 178 208 c 0
 171 220 156 226 134 226 c 0
 113 226 96 220 81 208 c 0
 65 195 54 179 46 159 c 1
 44 138 l 1
 49 113 l 1
 56 99 70 92 90 92 c 0
139 -234 m 1
 169 -222 191 -207 206 -190 c 1
 223 -173 234 -160 238 -149 c 1
 214 -135 185 -128 150 -128 c 0
 122 -128 100 -134 84 -146 c 0
 65 -157 52 -172 44 -192 c 1
 44 -214 l 2
 44 -233 60 -243 93 -243 c 0
 114 -243 129 -240 139 -234 c 1
EndSplineSet
EndChar
StartChar: uni0E0F
Encoding: 175 3599
OldEncoding: 3599
Width: 877
Flags: HW
HStem: -158 97<89.0547 124.085> 226 88<124.085 162.505> 724 102<599 643.885>
VStem: -87 102<-259.745 -226.975> 749 141<612.615 652.165>
DStem: 736.545 554.985 875.535 566.285 498.115 -178.385 574.955 -356.925
Fore
445 -97 m 1
 498 -178 l 1
 737 555 l 1
 745 578 749 597 749 613 c 0
 749 638 740 662 723 683 c 1
 697 711 657 724 601 724 c 0
 571 724 536 719 496 708 c 0
 454 698 417 683 385 663 c 1
 405 660 425 655 447 648 c 0
 471 642 496 627 522 604 c 1
 500 539 l 1
 474 539 447 531 420 515 c 0
 389 499 364 464 348 411 c 2
 268 162 l 1
 250 114 225 77 191 51 c 1
 158 22 115 7 63 5 c 1
 15 7 -18 22 -36 51 c 0
 -47 66 -52 85 -52 106 c 0
 -52 123 -49 140 -43 157 c 0
 -25 203 1 240 36 268 c 1
 71 299 114 314 163 314 c 2
 175 314 l 1
 179 312 l 1
 209 402 l 1
 225 449 242 484 260 506 c 0
 283 534 309 556 339 573 c 1
 328 580 311 586 288 592 c 0
 259 601 231 607 204 608 c 1
 219 652 l 1
 260 687 l 2
 288 711 316 731 343 745 c 1
 379 767 424 786 478 802 c 0
 527 818 583 826 644 826 c 0
 702 826 753 816 798 796 c 0
 840 775 867 745 880 708 c 0
 887 692 890 673 890 652 c 0
 890 628 885 599 876 566 c 1
 575 -357 l 1
 447 -357 l 1
 390 -243 l 1
 246 -357 l 1
 245 -337 239 -315 228 -291 c 0
 223 -279 216 -267 207 -253 c 1
 194 -271 172 -293 140 -317 c 0
 105 -345 63 -359 12 -359 c 0
 -29 -359 -57 -344 -73 -315 c 1
 -82 -300 -87 -282 -87 -260 c 0
 -87 -242 -83 -219 -75 -192 c 1
 -59 -151 -31 -118 8 -95 c 0
 45 -72 83 -61 124 -61 c 0
 163 -61 196 -71 224 -93 c 1
 260 -30 l 2
 279 1 294 31 306 60 c 1
 399 43 l 1
 348 -60 311 -127 286 -158 c 1
 297 -174 l 2
 302 -182 306 -191 308 -200 c 1
 394 -137 l 2
 428 -112 445 -99 445 -97 c 1
91 92 m 1
 115 95 132 103 144 115 c 0
 159 127 169 142 175 159 c 1
 179 184 l 1
 179 193 177 201 173 208 c 0
 165 220 149 226 124 226 c 1
 104 224 87 217 71 206 c 0
 55 194 45 179 40 162 c 1
 36 138 l 1
 36 127 39 119 45 113 c 1
 53 99 68 92 91 92 c 1
82 -253 m 0
 95 -248 111 -235 129 -216 c 1
 149 -190 l 1
 149 -190 l 1
 132 -169 112 -158 89 -158 c 0
 60 -158 37 -170 22 -194 c 1
 17 -208 15 -219 15 -227 c 0
 15 -249 25 -260 47 -260 c 0
 59 -260 71 -257 82 -253 c 0
EndSplineSet
EndChar
StartChar: uni0E10
Encoding: 176 3600
OldEncoding: 3600
Width: 665
Flags: HW
HStem: -252 79<-87 -58.1699> -89 80<331 355.41> 214 95<197 231.11> 669 107<688.76 723.79> 730 99<444 478.58>
VStem: -234 86<-332 -315>
Fore
342 24 m 1
 346 99 l 1
 342 174 l 1
 340 235 337 265 333 265 c 1
 328 259 312 249 286 232 c 1
 261 220 231 214 198 214 c 0
 148 214 115 229 99 260 c 0
 90 276 85 295 85 316 c 0
 85 335 88 353 94 369 c 1
 106 411 131 447 170 477 c 0
 207 507 250 524 300 526 c 0
 344 526 376 518 397 501 c 1
 415 483 425 453 428 411 c 1
 437 342 l 1
 441 298 l 1
 474 406 l 1
 488 456 494 487 494 496 c 0
 494 514 488 528 476 536 c 0
 470 540 446 548 406 561 c 0
 341 580 291 593 258 598 c 2
 141 616 l 1
 157 667 l 1
 187 697 220 725 256 751 c 0
 295 778 331 797 364 808 c 0
 401 823 439 829 479 829 c 0
 527 829 574 821 620 804 c 1
 676 786 710 776 724 776 c 0
 748 776 779 783 816 797 c 1
 816 795 l 1
 814 757 l 1
 807 691 l 1
 756 676 717 669 689 669 c 1
 636 674 l 1
 569 700 l 1
 499 722 l 2
 484 728 466 730 446 730 c 0
 425 730 403 725 381 716 c 0
 359 707 345 699 340 691 c 1
 423 677 l 1
 467 668 496 661 510 656 c 1
 587 635 629 608 636 572 c 1
 638 545 l 1
 638 510 628 465 610 411 c 1
 485 24 l 1
 342 24 l 1
231 -323 m 1
 277 -298 l 1
 286 -270 l 1
 285 -271 279 -272 270 -272 c 0
 229 -272 201 -259 185 -232 c 0
 176 -216 172 -200 172 -184 c 0
 172 -170 175 -156 180 -140 c 0
 192 -104 215 -73 247 -47 c 0
 281 -21 317 -9 355 -9 c 0
 395 -9 422 -21 437 -45 c 0
 446 -59 450 -75 450 -93 c 0
 450 -106 448 -119 444 -133 c 2
 399 -272 l 1
 393 -296 380 -315 362 -327 c 1
 345 -344 323 -358 298 -369 c 2
 205 -413 l 1
 134 -362 l 1
 39 -411 l 1
 -3 -349 l 1
 -41 -397 -91 -420 -151 -418 c 0
 -182 -418 -206 -405 -223 -378 c 0
 -231 -365 -234 -350 -234 -332 c 0
 -234 -318 -232 -302 -228 -286 c 0
 -216 -252 -192 -226 -158 -205 c 1
 -125 -183 -92 -173 -58 -173 c 0
 -27 -173 -1 -183 20 -205 c 1
 53 -145 l 1
 92 -40 l 1
 180 -40 l 1
 163 -92 146 -133 128 -166 c 0
 103 -215 80 -250 62 -272 c 1
 88 -309 l 1
 126 -291 l 1
 163 -270 l 1
 231 -323 l 1
-86 -252 m 0
 -100 -252 -112 -256 -124 -265 c 0
 -134 -273 -141 -284 -146 -298 c 1
 -148 -314 l 1
 -148 -329 -137 -336 -115 -336 c 0
 -96 -336 -80 -330 -66 -316 c 1
 -54 -307 -44 -296 -36 -283 c 1
 -38 -277 -42 -270 -49 -263 c 0
 -57 -255 -69 -252 -86 -252 c 0
298 -194 m 0
 312 -194 326 -188 340 -177 c 0
 352 -167 360 -155 362 -142 c 1
 367 -124 l 1
 362 -106 l 1
 358 -95 349 -89 333 -89 c 0
 314 -89 299 -95 289 -106 c 0
 274 -120 266 -132 263 -142 c 2
 258 -159 l 1
 258 -164 260 -170 265 -177 c 1
 270 -188 280 -194 298 -194 c 0
231 309 m 0
 249 309 266 315 282 327 c 1
 296 340 305 354 309 369 c 1
 314 392 l 1
 309 411 l 1
 302 423 288 429 270 429 c 0
 251 429 234 423 219 411 c 0
 205 399 196 385 192 369 c 2
 187 351 l 1
 187 342 189 334 194 327 c 0
 201 315 214 309 231 309 c 0
EndSplineSet
MinimumDistance: x81,-1 
EndChar
StartChar: uni0E11
Encoding: 177 3601
OldEncoding: 3601
Width: 1021
Flags: HW
HStem: -2 21G<181.705 309.395 645.005 778.345> 341 93<109 137.635> 554 92<176 209.955>
VStem: -19 113<460 477> 492 113<660.575 685.435>
DStem: 338.775 484.295 470.985 477.515 181.705 -1.60547 420.135 322.705 665.345 656.055 793.035 651.535 420.135 322.705 309.395 -1.60547 837.105 592.775 976.095 602.945 645.005 -1.60547 778.345 -1.60547
Fore
471 478 m 1
 420 323 l 1
 665 656 l 2
 695 698 726 733 758 760 c 0
 783 780 821 789 871 789 c 0
 944 789 985 773 994 741 c 1
 996 711 l 1
 996 682 990 646 976 603 c 1
 778 -2 l 1
 645 -2 l 1
 837 593 l 1
 849 633 855 657 855 665 c 2
 855 667 l 2
 855 676 850 681 839 683 c 1
 827 683 816 679 809 672 c 0
 800 663 795 656 793 652 c 1
 309 -2 l 1
 182 -2 l 1
 339 484 l 2
 358 546 397 592 455 621 c 0
 477 631 489 642 492 654 c 1
 492 661 l 2
 492 673 481 687 457 705 c 1
 334 654 l 1
 242 705 l 1
 217 700 195 689 175 672 c 0
 158 657 145 643 138 630 c 1
 141 634 149 637 161 639 c 1
 173 644 189 646 210 646 c 0
 241 646 265 639 283 626 c 1
 301 615 313 598 318 575 c 1
 323 546 l 1
 323 531 320 515 314 500 c 0
 300 455 274 417 237 387 c 0
 197 356 155 341 111 341 c 0
 52 341 13 359 -6 396 c 0
 -15 416 -19 438 -19 462 c 0
 -19 486 -15 513 -6 542 c 0
 -1 559 8 581 20 607 c 0
 38 647 66 683 103 716 c 0
 136 745 172 768 212 785 c 0
 246 801 274 809 297 809 c 1
 369 760 l 1
 485 809 l 1
 522 802 554 783 579 753 c 0
 597 731 605 709 605 685 c 0
 605 673 603 661 599 648 c 0
 593 632 585 617 575 605 c 0
 570 598 557 586 538 570 c 0
 523 558 511 545 499 531 c 1
 488 520 479 502 471 478 c 1
138 434 m 0
 157 434 174 439 188 452 c 0
 203 464 212 478 217 493 c 1
 221 517 l 1
 217 537 l 1
 210 549 197 554 177 554 c 0
 160 554 144 548 129 535 c 1
 114 525 103 511 96 493 c 1
 94 478 l 1
 94 468 96 460 100 452 c 0
 109 439 121 434 138 434 c 0
EndSplineSet
MinimumDistance: x7,-1 
EndChar
StartChar: uni0E12
Encoding: 178 3602
OldEncoding: 3602
Width: 1075
Flags: HW
HStem: -14 80<410 429> -0 21G<-23.1553 94.3652 701.175 837.905> 514 95<360 391.555> 766 20G<955.425 1092.16>
VStem: -7 123<381 411>
DStem: 259.345 300.145 409.635 317.095 191.545 233.475 94.3652 -0.43457 580.265 552.135 710.215 534.055 497.775 293.365 628.855 286.585 955.425 786.045 1092.16 786.045 761.065 184.885 837.905 -0.43457
Fore
123 163 m 1
 154 193 176 216 192 233 c 1
 259 300 l 1
 226 302 202 319 187 349 c 1
 179 368 176 385 176 402 c 0
 176 421 179 439 185 455 c 0
 199 499 225 535 264 565 c 0
 304 594 346 609 392 609 c 0
 438 609 471 595 491 567 c 1
 500 550 505 531 505 509 c 0
 505 490 502 472 496 453 c 0
 478 401 450 356 410 317 c 2
 94 -0 l 1
 -23 -0 l 1
 2 84 16 145 19 183 c 1
 5 254 l 1
 -3 300 -7 343 -7 384 c 0
 -7 432 1 476 16 516 c 1
 38 579 85 638 155 693 c 1
 223 748 288 784 350 801 c 1
 458 748 l 1
 604 803 l 1
 670 763 709 725 722 689 c 1
 728 679 732 663 732 640 c 0
 732 614 725 579 710 534 c 2
 629 287 l 1
 664 278 694 261 717 238 c 0
 741 212 756 194 761 185 c 1
 955 786 l 1
 1092 786 l 1
 838 -0 l 1
 701 -0 l 1
 698 31 689 65 675 101 c 1
 661 145 635 172 597 183 c 1
 567 92 l 1
 558 64 539 38 509 15 c 0
 482 -4 450 -14 412 -14 c 0
 373 -14 347 -0 335 28 c 0
 329 40 326 54 326 71 c 0
 326 86 330 108 337 136 c 1
 356 181 376 215 398 238 c 0
 425 264 458 283 498 293 c 1
 580 552 l 1
 592 582 597 608 597 629 c 1
 595 647 l 1
 590 666 579 681 560 693 c 1
 425 647 l 1
 315 693 l 1
 218 650 156 589 129 511 c 0
 120 481 116 445 116 404 c 0
 116 385 119 348 125 296 c 1
 132 231 l 1
 129 210 l 1
 123 163 l 1
447 79 m 1
 489 205 l 1
 453 201 427 175 412 127 c 1
 407 104 l 1
 412 85 l 1
 414 73 419 66 428 66 c 0
 436 66 442 70 447 79 c 1
319 391 m 0
 338 391 356 397 372 409 c 1
 386 423 395 438 401 453 c 1
 405 476 l 1
 401 497 l 1
 395 508 381 514 361 514 c 0
 343 514 327 507 312 495 c 1
 297 484 286 470 280 453 c 1
 277 432 l 1
 282 409 l 1
 289 397 302 391 319 391 c 0
EndSplineSet
MinimumDistance: x40,26 
EndChar
StartChar: uni0E13
Encoding: 179 3603
OldEncoding: 3603
Width: 1075
Flags: HW
HStem: -14 85<78 109.59> -0 21G<366.1 496.05> 766 20G<920.93 1055.4>
DStem: 558.2 591.685 683.63 571.345 366.1 -0.43457 578.54 244.775 750.3 258.335 884.77 258.335 701.71 110.305 836.18 112.565 920.93 786.045 1055.4 786.045 783.07 357.775 916.41 357.775
Fore
366 -0 m 1
 558 592 l 1
 563 627 l 1
 563 649 556 666 542 678 c 0
 518 697 480 708 431 710 c 0
 406 710 376 705 338 693 c 0
 293 682 260 666 236 645 c 1
 256 642 277 636 299 627 c 0
 329 616 353 601 373 583 c 1
 353 518 l 1
 327 518 300 510 271 495 c 0
 240 478 216 443 200 391 c 1
 165 280 l 1
 169 282 l 1
 174 282 l 2
 207 282 232 275 249 261 c 0
 267 246 278 228 280 205 c 2
 282 183 l 1
 282 166 280 150 276 134 c 0
 270 110 256 86 234 62 c 1
 216 39 194 21 167 6 c 0
 139 -7 110 -14 79 -14 c 0
 31 -14 -1 1 -16 30 c 0
 -25 46 -29 64 -29 83 c 0
 -29 100 -26 117 -20 136 c 2
 61 382 l 1
 75 428 92 463 112 485 c 1
 130 511 155 533 188 552 c 1
 177 559 161 565 139 571 c 0
 113 580 86 585 56 587 c 1
 72 631 l 1
 93 657 143 693 223 740 c 0
 296 783 388 805 496 805 c 0
 549 805 589 797 616 782 c 0
 647 766 667 746 678 724 c 0
 691 701 697 677 697 653 c 2
 697 647 l 1
 695 619 690 594 684 571 c 1
 579 245 l 1
 601 267 636 291 684 317 c 0
 724 340 757 353 783 358 c 1
 921 786 l 1
 1055 786 l 1
 916 358 l 1
 962 349 991 326 1005 289 c 0
 1011 275 1014 257 1014 236 c 0
 1014 212 1009 185 1000 154 c 0
 983 102 955 61 914 32 c 1
 873 -0 831 -16 788 -16 c 0
 752 -16 726 -6 708 13 c 0
 698 24 693 39 693 57 c 0
 693 75 696 92 702 110 c 2
 750 258 l 1
 698 241 650 207 605 157 c 1
 555 105 519 52 496 -0 c 1
 366 -0 l 1
110 71 m 0
 122 71 134 74 146 81 c 0
 159 88 168 95 174 104 c 0
 182 115 188 125 192 134 c 1
 194 157 l 1
 190 180 l 1
 184 191 171 196 151 196 c 0
 132 196 113 190 95 178 c 0
 81 167 71 152 66 134 c 1
 61 115 l 1
 61 107 63 99 68 92 c 0
 75 78 88 71 110 71 c 0
912 166 m 1
 916 201 l 1
 912 227 l 1
 904 243 895 254 885 258 c 1
 836 113 l 1
 834 97 l 1
 834 88 838 83 845 83 c 0
 857 85 870 94 885 110 c 1
 896 128 905 146 912 166 c 1
EndSplineSet
MinimumDistance: x42,-1 
EndChar
StartChar: uni0E14
Encoding: 180 3604
OldEncoding: 3604
Width: 796
Flags: HW
HStem: -1 21G<-3.96484 113.555 422.045 556.515> 511 95<379 410.745> 688 116<443 479.675>
VStem: 14 123<365 409> 607 136<588.515 614.505>
DStem: 210.735 230.305 428.825 313.925 141.805 162.505 113.555 -1.34473 278.535 296.975 428.825 313.925 210.735 230.305 113.555 -1.34473 597.195 544.445 729.405 533.145 422.045 -1.34473 556.515 -1.34473
Fore
480 804 m 0
 594 802 671 775 709 723 c 0
 732 691 743 654 743 615 c 0
 743 591 738 564 729 533 c 1
 557 -1 l 1
 422 -1 l 1
 597 544 l 1
 604 559 607 573 607 589 c 0
 607 616 597 637 577 654 c 0
 546 677 502 688 445 688 c 0
 381 688 320 671 264 637 c 1
 205 605 167 558 149 498 c 0
 141 477 137 445 137 403 c 0
 137 370 140 334 144 295 c 0
 146 270 149 248 151 230 c 1
 149 209 l 1
 142 163 l 1
 211 230 l 1
 279 297 l 1
 248 299 224 315 206 346 c 0
 197 363 193 381 193 399 c 0
 193 418 196 436 202 452 c 0
 219 496 246 533 283 561 c 0
 320 591 363 606 411 606 c 0
 458 606 491 592 508 564 c 0
 518 546 524 525 524 503 c 0
 524 486 521 468 515 450 c 0
 499 399 470 354 429 314 c 1
 114 -1 l 1
 -4 -1 l 1
 22 83 36 144 38 182 c 1
 27 253 l 1
 18 294 14 334 14 372 c 2
 14 383 l 2
 14 428 22 472 38 515 c 0
 55 562 86 607 131 652 c 0
 177 697 230 734 288 763 c 1
 349 790 413 804 480 804 c 0
338 390 m 0
 357 390 375 396 392 408 c 1
 404 422 414 436 420 450 c 1
 424 473 l 1
 420 494 l 1
 414 505 401 511 380 511 c 0
 361 511 344 504 329 491 c 1
 314 481 303 467 299 450 c 1
 297 431 l 1
 301 408 l 1
 309 396 321 390 338 390 c 0
EndSplineSet
MinimumDistance: x2,-1 
EndChar
StartChar: uni0E15
Encoding: 181 3605
OldEncoding: 3605
Width: 795
Flags: HW
HStem: -1 21G<-4.29004 113.23 419.46 556.19> 513 95<378 410.42>
VStem: 12 123<380 409>
DStem: 278.21 299.365 428.5 316.315 210.41 232.695 113.23 -1.21484 599.13 551.355 726.82 533.275 419.46 -1.21484 556.19 -1.21484
Fore
556 -1 m 1
 419 -1 l 1
 599 551 l 1
 610 581 616 607 616 628 c 1
 614 646 l 1
 609 665 598 681 579 693 c 1
 444 646 l 1
 334 693 l 1
 236 649 175 588 148 511 c 0
 139 480 135 444 135 403 c 0
 135 384 138 348 144 295 c 1
 151 230 l 1
 148 209 l 1
 141 163 l 1
 172 192 195 215 210 233 c 1
 278 299 l 1
 245 302 221 318 206 348 c 1
 198 367 195 384 195 401 c 0
 195 421 198 438 204 454 c 0
 218 498 244 534 283 564 c 0
 323 593 365 608 410 608 c 0
 457 608 490 594 510 566 c 1
 517 547 521 528 521 508 c 0
 521 493 519 474 514 452 c 1
 497 401 468 355 428 316 c 2
 113 -1 l 1
 -4 -1 l 1
 21 83 35 144 38 182 c 1
 23 253 l 1
 15 302 12 345 12 383 c 0
 12 431 19 475 35 515 c 1
 57 578 103 638 174 693 c 1
 242 748 307 783 369 800 c 1
 477 747 l 1
 623 802 l 1
 688 762 728 724 740 688 c 0
 746 675 748 658 748 639 c 0
 748 613 741 578 727 533 c 2
 556 -1 l 1
338 390 m 0
 357 390 375 396 391 408 c 1
 405 422 414 437 419 452 c 1
 424 476 l 1
 419 496 l 1
 413 507 400 513 380 513 c 0
 362 513 346 507 331 494 c 1
 316 483 305 469 299 452 c 1
 296 432 l 1
 301 408 l 1
 308 396 321 390 338 390 c 0
EndSplineSet
MinimumDistance: x37,-1 
EndChar
StartChar: uni0E16
Encoding: 182 3606
OldEncoding: 3606
Width: 804
Flags: HW
HStem: -14 88<101.8 141.35> -1 21G<430.63 565.1> 703 102<466 511.99>
VStem: 616 141<591.555 633.365>
DStem: 604.65 533.925 740.25 545.225 430.63 -0.56543 565.1 -0.56543
Fore
185 295 m 1
 201 295 l 2
 253 295 287 280 303 249 c 0
 313 230 318 210 318 192 c 0
 318 174 315 157 310 141 c 0
 295 96 269 60 232 32 c 1
 194 1 151 -14 102 -14 c 0
 55 -14 23 1 5 32 c 1
 -6 47 -11 66 -11 88 c 0
 -11 107 -8 125 -2 141 c 1
 77 381 l 1
 91 428 108 463 128 485 c 1
 146 511 171 533 204 552 c 1
 196 558 180 564 155 571 c 0
 126 580 98 586 71 587 c 1
 88 631 l 1
 128 666 l 1
 143 681 170 700 210 724 c 1
 262 750 307 769 345 781 c 0
 394 797 450 805 512 805 c 0
 575 805 626 796 665 777 c 0
 704 757 732 727 748 689 c 0
 754 674 757 656 757 633 c 0
 757 605 752 575 740 545 c 1
 565 -1 l 1
 431 -1 l 1
 605 534 l 2
 612 558 616 577 616 592 c 0
 616 619 607 642 590 662 c 0
 564 689 524 703 468 703 c 0
 403 703 331 683 252 642 c 1
 259 640 269 638 283 636 c 1
 333 620 l 1
 355 610 374 598 389 583 c 1
 368 518 l 1
 343 518 316 510 287 494 c 0
 255 478 231 443 215 390 c 2
 185 295 l 1
141 74 m 1
 162 76 179 83 192 94 c 0
 206 104 217 119 225 138 c 1
 229 163 l 1
 229 174 227 182 223 189 c 0
 214 201 198 207 174 207 c 1
 154 205 137 198 123 187 c 1
 108 177 98 162 93 141 c 1
 88 119 l 1
 88 109 90 101 95 94 c 0
 102 81 117 74 141 74 c 1
EndSplineSet
MinimumDistance: x22,-1 
EndChar
StartChar: uni0E17
Encoding: 183 3607
OldEncoding: 3607
Width: 867
Flags: HW
HStem: -1 21G<35.1348 162.825 498.435 631.775> 705 95<237 269.045>
DStem: 194.465 491.595 377.525 639.625 35.1348 -1.08496 273.565 323.225 518.775 656.575 646.465 652.055 273.565 323.225 162.825 -1.08496 690.535 593.295 828.395 603.465 498.435 -1.08496 631.775 -1.08496
Fore
35 -1 m 1
 194 492 l 1
 188 490 171 489 144 489 c 1
 106 494 80 512 66 542 c 0
 59 557 55 574 55 593 c 0
 55 613 59 631 66 646 c 1
 79 689 104 725 139 756 c 1
 177 785 220 800 269 800 c 0
 320 800 354 785 373 754 c 0
 382 737 387 718 387 697 c 0
 387 678 384 658 378 640 c 2
 274 323 l 1
 519 657 l 2
 556 707 587 742 611 763 c 1
 636 781 674 790 724 790 c 0
 798 790 839 774 848 741 c 1
 850 712 l 1
 850 682 843 646 828 603 c 1
 632 -1 l 1
 498 -1 l 1
 691 593 l 1
 711 666 l 1
 711 668 l 2
 711 676 705 681 693 684 c 0
 681 684 672 680 665 672 c 0
 655 665 649 658 646 652 c 1
 163 -1 l 1
 35 -1 l 1
199 582 m 0
 219 582 236 588 250 600 c 0
 263 611 274 626 280 644 c 1
 283 668 l 1
 278 688 l 1
 272 700 259 705 239 705 c 0
 223 705 206 699 188 686 c 0
 174 675 165 661 161 644 c 1
 157 637 155 630 155 624 c 0
 155 617 157 609 161 600 c 0
 168 588 181 582 199 582 c 0
EndSplineSet
MinimumDistance: x17,-1 
EndChar
StartChar: uni0E18
Encoding: 184 3608
OldEncoding: 3608
Width: 690
Flags: HW
HStem: -1 120<-60 38 173 303> 646 103<633.295 659.285> 703 99<364.355 412.945>
VStem: 455 139<449.655 486.945>
DStem: 156.435 486.945 290.905 486.945 38.915 118.565 169.995 118.565 438.935 385.245 573.405 382.985 376.785 186.365 498.825 149.075
Fore
214 633 m 1
 238 635 l 1
 293 635 l 2
 430 635 523 610 571 559 c 0
 586 543 594 519 594 487 c 0
 594 460 587 425 573 383 c 2
 499 149 l 1
 478 86 454 45 428 27 c 0
 400 8 351 -1 282 -1 c 2
 -98 -1 l 1
 -58 119 l 1
 39 119 l 1
 156 487 l 1
 291 487 l 1
 170 119 l 1
 293 119 l 2
 322 119 340 123 349 131 c 0
 358 139 367 158 377 186 c 1
 439 385 l 1
 446 407 452 429 455 450 c 1
 455 467 447 483 432 498 c 0
 419 512 384 522 326 529 c 0
 260 536 196 540 134 540 c 2
 39 538 l 1
 64 619 l 1
 107 667 159 710 219 747 c 1
 283 784 348 802 413 802 c 0
 457 802 505 794 559 776 c 1
 607 758 640 749 659 749 c 0
 688 749 718 757 751 772 c 1
 751 672 l 1
 704 655 665 646 633 646 c 0
 607 646 564 656 506 675 c 0
 451 693 404 703 364 703 c 0
 330 703 298 694 269 677 c 0
 254 667 236 652 214 633 c 1
EndSplineSet
MinimumDistance: x4,-1 
EndChar
StartChar: uni0E19
Encoding: 185 3609
OldEncoding: 3609
Width: 858
Flags: HW
HStem: -0 21G<31.0195 159.84> 710 95<240 271.71> 766 20G<678.51 812.98>
DStem: 192.61 496.765 382.45 666.265 31.0195 -0.43457 232.16 200.705 507.88 258.335 641.22 258.335 461.55 110.305 592.63 112.565 678.51 786.045 812.98 786.045 541.78 357.775 673.99 357.775
Fore
679 786 m 1
 813 786 l 1
 674 358 l 1
 718 349 749 326 764 289 c 1
 769 273 771 255 771 236 c 0
 771 215 767 188 760 154 c 1
 742 103 712 62 672 32 c 1
 633 -0 590 -16 544 -16 c 0
 509 -16 483 -6 468 13 c 0
 456 27 449 42 449 57 c 0
 449 68 453 85 462 110 c 1
 508 258 l 1
 443 241 376 205 306 150 c 0
 238 97 189 47 160 -0 c 1
 31 -0 l 1
 193 497 l 1
 186 497 l 1
 170 495 l 1
 124 495 92 511 73 543 c 0
 63 562 58 581 58 601 c 0
 58 620 62 636 68 649 c 1
 80 692 104 728 142 759 c 1
 183 790 227 805 272 805 c 0
 315 805 347 793 369 768 c 0
 382 752 389 733 389 710 c 0
 389 697 387 682 382 666 c 1
 232 201 l 1
 278 244 327 277 378 300 c 0
 433 327 488 346 542 358 c 1
 679 786 l 1
202 587 m 0
 221 587 238 594 252 606 c 0
 266 617 276 631 283 649 c 1
 288 673 l 1
 283 693 l 1
 277 705 263 710 241 710 c 0
 223 710 207 704 193 691 c 0
 179 680 170 666 165 649 c 2
 160 627 l 1
 165 606 l 1
 172 594 184 587 202 587 c 0
669 166 m 0
 674 180 676 193 676 205 c 1
 674 229 l 1
 667 245 656 255 641 258 c 1
 593 113 l 1
 593 99 l 2
 593 88 597 83 605 83 c 1
 614 86 622 91 628 97 c 0
 640 109 648 120 654 132 c 1
 662 142 667 153 669 166 c 0
EndSplineSet
MinimumDistance: x1,-1 
EndChar
StartChar: uni0E1A
Encoding: 186 3610
OldEncoding: 3610
Width: 827
Flags: HW
HStem: -1 120<-46 56 204 414> 705 95<223 253.505> 765 20G<705.505 841.105>
DStem: 180.055 491.595 363.115 639.625 56.8848 118.695 191.355 118.695 705.505 785.395 841.105 785.395 511.145 186.495 635.445 151.465
Fore
57 119 m 1
 180 492 l 1
 129 489 l 1
 89 494 62 512 50 542 c 0
 44 558 41 574 41 593 c 0
 41 611 43 628 48 646 c 0
 57 674 72 699 92 723 c 0
 109 746 132 764 161 779 c 0
 191 793 222 800 254 800 c 0
 304 800 339 785 357 754 c 0
 367 737 372 718 372 697 c 0
 372 678 369 658 363 640 c 2
 191 119 l 1
 418 119 l 2
 448 119 469 124 481 133 c 0
 490 139 501 157 511 186 c 1
 706 785 l 1
 841 785 l 1
 635 151 l 1
 617 93 588 53 547 32 c 0
 508 10 452 -1 379 -1 c 2
 -82 -1 l 1
 -45 119 l 1
 57 119 l 1
185 582 m 0
 202 582 219 588 235 600 c 0
 248 611 258 626 266 644 c 1
 268 666 l 1
 268 673 266 681 263 688 c 0
 257 700 244 705 224 705 c 0
 207 705 191 699 176 686 c 1
 158 674 147 660 143 644 c 1
 141 624 l 1
 145 600 l 1
 153 588 166 582 185 582 c 0
EndSplineSet
EndChar
StartChar: uni0E1B
Encoding: 187 3611
OldEncoding: 3611
Width: 827
Flags: HW
HStem: -18 120<-95 7 155 365> 688 95<174 204.59>
DStem: 131.14 474.695 314.2 622.725 7.96973 101.795 142.44 101.795 758.29 1076.99 895.02 1076.99 462.23 169.595 586.53 134.565
Fore
8 102 m 1
 131 475 l 1
 80 472 l 1
 40 477 13 495 1 526 c 0
 -5 541 -8 558 -8 576 c 0
 -8 594 -6 611 -1 630 c 0
 8 657 23 682 43 706 c 0
 60 729 83 747 112 762 c 0
 142 776 173 783 205 783 c 0
 255 783 290 768 309 737 c 0
 318 720 323 701 323 680 c 0
 323 661 320 642 314 623 c 2
 142 102 l 1
 370 102 l 2
 399 102 420 107 432 116 c 0
 442 123 452 140 462 170 c 1
 758 1077 l 1
 895 1077 l 1
 587 135 l 1
 568 76 539 36 498 15 c 0
 459 -7 403 -18 330 -18 c 2
 -131 -18 l 1
 -94 102 l 1
 8 102 l 1
136 565 m 0
 153 565 170 571 187 583 c 0
 199 594 209 609 217 627 c 1
 219 649 l 1
 219 656 217 664 214 671 c 0
 208 683 195 688 175 688 c 0
 158 688 142 682 127 669 c 1
 109 657 98 643 96 627 c 1
 92 607 l 1
 96 583 l 1
 104 571 117 565 136 565 c 0
EndSplineSet
EndChar
StartChar: uni0E1C
Encoding: 188 3612
OldEncoding: 3612
Width: 814
Flags: HW
HStem: -1 21G<-67.6104 58.9502 443.15 575.36> 705 95<320 350.49> 765 20G<695.14 829.61>
DStem: 140.31 639.625 226.19 491.595 -67.6104 -1.08496 153.87 265.595 401.34 457.695 350.49 308.535 153.87 265.595 149.35 144.685 695.14 785.395 829.61 785.395 529.03 265.595 575.36 -1.08496
Fore
59 -1 m 1
 -68 -1 l 1
 140 640 l 1
 155 686 181 724 219 754 c 0
 257 785 301 800 350 800 c 0
 386 800 413 793 432 779 c 0
 451 764 462 745 465 723 c 2
 467 701 l 1
 467 682 464 664 458 646 c 0
 445 606 422 572 388 542 c 0
 353 512 316 494 277 489 c 1
 249 489 232 490 226 492 c 1
 154 266 l 1
 401 458 l 1
 529 266 l 1
 695 785 l 1
 830 785 l 1
 575 -1 l 1
 443 -1 l 1
 454 32 460 61 460 85 c 0
 460 109 454 129 443 145 c 1
 350 309 l 1
 149 145 l 2
 111 113 81 64 59 -1 c 1
321 705 m 0
 304 705 288 699 273 686 c 1
 255 674 244 660 240 644 c 1
 237 624 l 1
 242 600 l 1
 250 588 263 582 282 582 c 0
 299 582 316 588 332 600 c 0
 345 611 355 626 363 644 c 1
 365 666 l 1
 365 673 363 681 360 688 c 0
 354 700 341 705 321 705 c 0
EndSplineSet
EndChar
StartChar: uni0E1D
Encoding: 189 3613
OldEncoding: 3613
Width: 814
Flags: HW
HStem: -18 21G<-116.46 10.0996 394.3 526.51> 688 95<271 301.64>
DStem: 91.46 622.725 177.34 474.695 -116.46 -17.9854 105.02 248.695 352.49 440.795 301.64 291.635 105.02 248.695 100.5 127.785 749.12 1076.99 882.46 1076.99 480.18 248.695 526.51 -17.9854
Fore
10 -18 m 1
 -116 -18 l 1
 91 623 l 1
 106 669 132 707 171 737 c 0
 208 768 252 783 302 783 c 0
 337 783 364 776 383 762 c 0
 403 747 414 728 416 706 c 2
 418 684 l 1
 418 665 415 647 409 630 c 0
 396 590 373 555 339 526 c 0
 304 495 267 477 228 472 c 1
 200 472 183 473 177 475 c 1
 105 249 l 1
 352 441 l 1
 480 249 l 1
 749 1077 l 1
 882 1077 l 1
 527 -18 l 1
 394 -18 l 1
 406 15 411 44 411 68 c 0
 411 92 406 112 394 128 c 1
 302 292 l 1
 100 128 l 2
 62 96 32 48 10 -18 c 1
272 688 m 0
 255 688 239 682 224 669 c 1
 206 657 195 643 193 627 c 1
 189 607 l 1
 193 583 l 1
 201 571 214 565 233 565 c 0
 250 565 267 571 284 583 c 0
 296 594 307 609 314 627 c 1
 319 649 l 1
 319 658 316 665 311 671 c 1
 305 683 292 688 272 688 c 0
EndSplineSet
EndChar
StartChar: uni0E1E
Encoding: 190 3614
OldEncoding: 3614
Width: 922
Flags: HW
HStem: -1 21G<1.17969 133.39 548.1 681.44> 705 95<206 237.35> 765 20G<802.35 936.82>
DStem: 504.03 500.635 592.17 767.315 563.92 105.135 663.36 359.385 592.17 767.315 504.03 500.635 256.56 359.385 186.5 105.135 802.35 785.395 936.82 785.395 663.36 359.385 681.44 -1.08496
Fore
257 359 m 1
 592 767 l 1
 663 359 l 1
 802 785 l 1
 937 785 l 1
 681 -1 l 1
 548 -1 l 1
 550 10 555 27 562 50 c 1
 566 92 l 1
 564 105 l 1
 504 501 l 1
 186 105 l 1
 175 89 164 71 154 50 c 1
 133 -1 l 1
 1 -1 l 1
 162 492 l 1
 156 490 140 489 113 489 c 1
 72 494 46 512 34 542 c 0
 28 558 25 574 25 593 c 0
 25 613 28 631 34 646 c 1
 41 672 55 698 76 723 c 0
 93 746 116 764 145 779 c 0
 175 793 206 800 237 800 c 0
 288 800 322 785 341 754 c 0
 351 737 356 718 356 697 c 0
 356 677 353 658 346 640 c 1
 257 359 l 1
168 582 m 0
 184 582 201 588 219 600 c 1
 232 612 242 627 249 644 c 1
 251 666 l 1
 246 688 l 1
 240 700 228 705 208 705 c 0
 191 705 174 699 159 686 c 1
 141 674 131 660 129 644 c 1
 124 624 l 1
 124 616 127 608 131 600 c 0
 139 588 151 582 168 582 c 0
EndSplineSet
EndChar
StartChar: uni0E1F
Encoding: 191 3615
OldEncoding: 3615
Width: 921
Flags: HW
HStem: -18 21G<-47.6699 84.54 499.25 632.59> 688 95<158 188.5>
DStem: 455.18 483.735 543.32 750.415 517.33 88.2354 614.51 342.485 543.32 750.415 455.18 483.735 207.71 342.485 137.65 88.2354 855.2 1076.99 989.67 1076.99 614.51 342.485 632.59 -17.9854
Fore
208 342 m 1
 543 750 l 1
 615 342 l 1
 855 1077 l 1
 990 1077 l 1
 633 -18 l 1
 499 -18 l 1
 504 -7 508 10 513 33 c 1
 517 75 l 1
 517 88 l 1
 455 484 l 1
 138 88 l 1
 126 72 115 54 105 33 c 1
 85 -18 l 1
 -48 -18 l 1
 113 475 l 1
 108 473 91 472 64 472 c 1
 24 477 -3 495 -15 526 c 0
 -21 541 -24 558 -24 576 c 0
 -24 596 -21 614 -15 630 c 1
 -8 655 6 681 27 706 c 0
 44 729 67 747 96 762 c 0
 126 776 157 783 188 783 c 0
 239 783 274 768 292 737 c 0
 302 720 307 701 307 680 c 0
 307 660 304 641 297 623 c 1
 208 342 l 1
120 565 m 0
 135 565 152 571 170 583 c 1
 183 595 193 610 200 627 c 1
 202 649 l 1
 198 671 l 1
 192 683 179 688 159 688 c 0
 142 688 126 682 111 669 c 1
 92 657 82 643 80 627 c 1
 76 607 l 1
 76 599 78 591 82 583 c 0
 90 571 102 565 120 565 c 0
EndSplineSet
EndChar
StartChar: uni0E20
Encoding: 192 3616
OldEncoding: 3616
Width: 878
Flags: HW
HStem: -0 21G<505.445 639.915> 205 88<77 105.425> 704 102<539 586.805>
VStem: 689 144<591.685 631.235>
DStem: 679.465 534.055 818.455 545.355 505.445 -0.43457 639.915 -0.43457
Fore
105 293 m 2
 117 293 l 1
 122 291 l 1
 149 382 l 2
 162 423 180 458 203 485 c 0
 225 515 251 537 279 552 c 1
 270 558 253 565 231 571 c 0
 196 580 168 586 147 587 c 1
 161 631 l 1
 203 666 l 2
 231 690 259 710 286 724 c 1
 322 746 367 765 421 782 c 0
 468 797 524 806 587 806 c 0
 649 806 699 795 739 775 c 1
 781 757 809 727 823 687 c 0
 829 672 833 654 833 631 c 0
 833 605 827 576 818 545 c 1
 640 -0 l 1
 505 -0 l 1
 679 534 l 2
 685 553 689 572 689 592 c 0
 689 620 681 644 666 662 c 1
 640 690 598 704 540 704 c 0
 510 704 476 698 439 687 c 1
 398 677 362 662 330 643 c 1
 390 627 l 2
 417 620 442 605 465 583 c 1
 443 518 l 1
 418 518 391 510 362 495 c 0
 330 477 307 443 291 391 c 1
 209 141 l 1
 194 95 168 58 134 30 c 0
 101 1 57 -14 4 -16 c 1
 -46 -14 -78 1 -93 30 c 0
 -102 46 -107 64 -107 85 c 0
 -107 102 -104 119 -98 136 c 0
 -85 179 -61 216 -25 247 c 0
 13 278 56 293 105 293 c 2
34 71 m 0
 53 71 72 78 90 92 c 0
 105 103 116 118 125 139 c 1
 129 166 l 1
 129 192 112 205 78 205 c 0
 59 205 40 199 22 187 c 1
 9 176 -2 160 -10 139 c 1
 -12 119 l 1
 -12 108 -10 99 -5 92 c 0
 1 78 15 71 34 71 c 0
EndSplineSet
MinimumDistance: x15,-1 
EndChar
StartChar: uni0E21
Encoding: 193 3617
OldEncoding: 3617
Width: 839
Flags: HW
HStem: -0 21G<472.49 602.44> 706 95<263 293.95> 766 20G<722.22 856.69>
VStem: -77 107<93 122.999>
DStem: 136.88 258.599 269.09 251.819 90.5498 112.829 227.28 119.609 212.59 492.509 402.43 662.009 171.91 363.689 302.99 360.299 722.22 786.309 856.69 786.309 534.64 212.269 602.44 -0.170898
Fore
722 786 m 1
 857 786 l 1
 602 -0 l 1
 472 -0 l 1
 472 11 l 2
 472 34 466 63 453 97 c 0
 440 132 418 165 387 196 c 0
 354 227 315 245 269 252 c 1
 227 120 l 1
 212 76 188 43 155 20 c 0
 117 -4 84 -16 56 -16 c 0
 4 -18 -33 -2 -55 33 c 1
 -70 49 -77 70 -77 95 c 0
 -77 114 -73 134 -67 155 c 0
 -49 211 -18 260 28 300 c 0
 71 339 119 360 172 364 c 1
 213 493 l 1
 206 493 l 1
 192 490 l 1
 144 490 112 506 95 537 c 0
 85 555 79 574 79 594 c 0
 79 612 82 629 88 645 c 0
 102 688 127 725 164 757 c 1
 202 786 245 801 294 801 c 0
 335 801 367 788 389 761 c 0
 403 743 410 725 410 706 c 0
 410 692 408 677 402 662 c 2
 303 360 l 1
 381 349 437 327 472 294 c 0
 508 258 529 231 535 212 c 1
 722 786 l 1
225 583 m 0
 241 583 258 589 276 601 c 1
 289 614 298 628 303 645 c 1
 308 667 l 1
 303 689 l 1
 297 700 284 706 265 706 c 0
 247 706 231 700 216 687 c 1
 199 675 188 661 183 645 c 1
 179 625 l 1
 179 616 182 608 188 601 c 1
 195 589 208 583 225 583 c 0
137 259 m 1
 114 256 95 247 79 231 c 0
 60 214 46 192 40 166 c 1
 34 152 30 137 30 123 c 0
 30 100 41 88 62 86 c 0
 74 86 84 95 91 113 c 1
 137 259 l 1
EndSplineSet
EndChar
StartChar: uni0E22
Encoding: 194 3618
OldEncoding: 3618
Width: 778
Flags: HW
HStem: -1 120<109 392> 503 93<292.875 327.905> 707 95<360 390.055> 765 20G<656.735 792.335>
VStem: 94 111<502 511>
DStem: 656.735 785.265 792.335 785.265 464.635 186.365 586.675 149.075
Fore
167 376 m 1
 135 387 113 411 101 450 c 0
 96 467 94 485 94 503 c 0
 94 521 98 544 105 573 c 1
 116 603 130 632 147 661 c 1
 179 706 217 742 260 767 c 1
 303 791 346 802 390 802 c 0
 435 802 466 788 485 760 c 1
 494 744 499 725 499 705 c 0
 499 687 496 670 489 654 c 1
 479 616 455 580 418 547 c 1
 381 517 339 503 293 503 c 0
 270 503 249 508 231 520 c 1
 215 526 207 530 207 533 c 1
 209 533 l 1
 205 513 l 1
 205 491 219 472 247 454 c 0
 279 435 317 425 360 423 c 1
 328 323 l 1
 271 323 227 311 196 288 c 0
 167 268 146 236 131 191 c 2
 108 119 l 1
 370 119 l 2
 401 119 422 123 434 133 c 0
 444 139 454 157 465 186 c 1
 657 785 l 1
 792 785 l 1
 587 149 l 1
 566 86 542 45 515 27 c 0
 485 8 437 -1 370 -1 c 2
 -65 -1 l 1
 -3 191 l 1
 10 235 30 272 57 302 c 0
 82 329 105 348 127 359 c 0
 141 368 155 373 167 376 c 1
328 596 m 0
 345 596 361 601 374 612 c 0
 387 625 396 638 401 652 c 1
 404 670 l 1
 399 690 l 1
 393 702 381 707 362 707 c 0
 344 707 329 702 317 690 c 1
 300 680 291 667 288 652 c 2
 286 635 l 1
 291 615 l 1
 298 602 311 596 328 596 c 0
EndSplineSet
EndChar
StartChar: uni0E23
Encoding: 195 3619
OldEncoding: 3619
Width: 668
Flags: HW
HStem: -10 95<261.505 296.535> 654 102<620.845 651.355> 710 99<344 391.455>
VStem: 433 144<449.785 484.815>
Fore
559 388 m 1
 480 149 l 1
 464 103 435 66 394 36 c 0
 352 5 307 -10 262 -10 c 0
 214 -10 182 5 164 36 c 0
 155 52 151 70 151 92 c 0
 151 111 154 129 160 145 c 0
 173 188 198 225 237 253 c 1
 274 283 316 299 364 302 c 0
 379 302 388 301 391 299 c 1
 422 388 l 2
 429 409 433 430 433 450 c 0
 433 469 426 486 411 501 c 1
 399 514 377 524 343 531 c 0
 323 536 275 542 197 551 c 0
 144 557 87 559 29 559 c 1
 51 631 l 1
 91 680 141 722 199 756 c 0
 260 791 324 809 391 809 c 0
 437 809 488 800 542 783 c 0
 594 765 631 756 651 756 c 0
 681 756 713 764 746 779 c 1
 746 679 l 1
 700 663 659 654 621 654 c 0
 586 654 541 663 486 681 c 0
 432 700 385 710 345 710 c 0
 308 710 279 702 257 686 c 0
 231 669 214 656 206 646 c 1
 384 646 499 618 551 562 c 0
 568 542 577 516 577 485 c 0
 577 460 571 428 559 388 c 1
297 85 m 0
 315 85 332 90 347 101 c 0
 359 110 369 124 378 145 c 1
 382 168 l 1
 382 175 380 182 376 189 c 0
 370 199 356 205 336 205 c 0
 315 205 297 199 283 186 c 0
 269 174 259 161 255 145 c 1
 250 127 l 1
 250 118 252 110 257 103 c 0
 265 91 278 85 297 85 c 0
EndSplineSet
MinimumDistance: x29,-1 
EndChar
StartChar: uni0E24
Encoding: 196 3620
OldEncoding: 3620
Width: 797
Flags: HW
HStem: 9 88<157 187.05> 726 102<523 571.25>
VStem: 282 93<191.685 214.285> 671 144<614.305 656.115>
DStem: 661.65 556.675 798.38 567.975 353.16 -386.875 487.63 -386.875
Fore
240 318 m 1
 259 318 l 2
 308 318 341 303 361 272 c 1
 370 254 375 235 375 214 c 0
 375 198 372 182 368 163 c 1
 352 118 326 82 289 55 c 1
 251 24 208 9 159 9 c 0
 114 9 81 24 62 55 c 0
 51 70 46 88 46 110 c 0
 46 130 49 148 55 163 c 1
 134 404 l 1
 148 449 164 483 185 508 c 1
 203 534 228 557 262 575 c 1
 250 582 233 588 213 594 c 0
 182 603 154 608 129 610 c 1
 143 654 l 1
 185 689 l 1
 198 702 227 722 271 747 c 1
 323 774 368 793 405 804 c 0
 453 820 508 828 571 828 c 0
 633 828 683 818 722 800 c 0
 762 779 790 749 805 711 c 0
 811 697 815 679 815 656 c 0
 815 628 809 599 798 568 c 1
 488 -387 l 1
 353 -387 l 1
 662 557 l 2
 668 576 671 595 671 614 c 0
 671 641 664 665 650 684 c 1
 621 712 579 726 525 726 c 0
 459 726 388 706 310 665 c 1
 317 663 326 661 337 658 c 2
 388 643 l 1
 412 633 431 620 446 605 c 1
 425 541 l 1
 398 541 370 533 342 517 c 0
 315 502 292 467 273 413 c 2
 240 318 l 1
187 97 m 0
 210 97 229 104 245 117 c 1
 258 126 269 142 277 163 c 1
 282 192 l 1
 282 217 266 230 233 230 c 0
 213 230 195 224 178 212 c 0
 164 200 153 184 145 163 c 1
 141 140 l 1
 141 131 143 124 148 117 c 0
 154 104 167 97 187 97 c 0
EndSplineSet
EndChar
StartChar: uni0E25
Encoding: 197 3621
OldEncoding: 3621
Width: 772
Flags: HW
HStem: -0 21G<400.395 537.125> 701 102<433.165 465.935>
VStem: 586 141<595 620.065>
DStem: 576.675 538.705 713.405 540.965 514.525 348.865 537.125 -0.304688
Fore
100 -16 m 0
 53 -16 21 -2 3 26 c 1
 -12 45 -20 68 -20 95 c 1
 -15 125 l 1
 5 203 26 271 47 329 c 0
 70 391 107 446 157 495 c 1
 207 540 260 562 315 562 c 0
 373 565 417 550 449 518 c 1
 478 487 495 453 502 417 c 2
 515 349 l 1
 577 539 l 2
 583 558 586 577 586 596 c 0
 586 622 579 643 565 660 c 1
 539 687 495 701 433 701 c 0
 380 701 331 689 285 664 c 0
 243 642 202 613 162 578 c 1
 109 645 l 1
 151 689 201 726 259 755 c 0
 324 787 393 803 466 803 c 0
 559 803 629 780 678 733 c 0
 711 704 727 666 727 620 c 0
 727 595 722 569 713 541 c 2
 537 -0 l 1
 400 -0 l 1
 404 29 408 89 413 178 c 1
 413 187 l 2
 413 249 404 312 387 375 c 1
 368 434 336 463 290 461 c 0
 230 458 182 400 146 287 c 1
 169 291 l 1
 202 293 l 1
 252 291 285 277 301 252 c 0
 312 236 318 217 318 196 c 0
 318 181 315 164 308 143 c 0
 293 98 267 60 232 30 c 0
 197 2 153 -14 100 -16 c 0
133 77 m 0
 148 77 165 83 183 95 c 1
 198 109 208 124 213 139 c 1
 215 161 l 1
 211 183 l 1
 205 193 192 199 172 199 c 0
 153 199 136 193 120 180 c 0
 107 169 98 155 93 139 c 1
 91 117 l 1
 95 97 l 1
 100 83 112 77 133 77 c 0
EndSplineSet
MinimumDistance: x20,-1 
EndChar
StartChar: uni0E26
Encoding: 198 3622
OldEncoding: 3622
Width: 871
Flags: HW
HStem: 228 88<132 160.36> 726 102<597 641.74>
VStem: 747 141<614.305 653.855>
DStem: 734.4 556.675 873.39 567.975 427.04 -386.875 563.77 -386.875
Fore
160 316 m 2
 173 316 l 1
 177 314 l 1
 207 404 l 1
 222 449 240 483 261 508 c 1
 279 537 303 559 334 575 c 1
 327 581 311 587 286 594 c 0
 253 603 226 608 202 610 c 1
 219 654 l 1
 258 689 l 1
 286 713 314 732 341 747 c 1
 377 768 422 788 476 804 c 0
 525 820 581 828 642 828 c 0
 700 828 751 818 795 797 c 0
 838 776 865 747 878 709 c 0
 885 693 888 675 888 654 c 0
 888 630 883 601 873 568 c 1
 564 -387 l 1
 427 -387 l 1
 734 557 l 1
 743 579 747 598 747 614 c 0
 747 640 738 663 721 684 c 1
 695 712 655 726 599 726 c 0
 569 726 534 721 494 709 c 0
 452 699 416 684 385 665 c 1
 405 662 426 657 447 649 c 0
 473 643 497 628 520 605 c 1
 498 541 l 1
 472 541 445 533 418 517 c 0
 386 501 362 466 346 413 c 2
 265 163 l 1
 248 116 223 79 189 53 c 1
 155 24 113 9 61 6 c 1
 13 9 -20 24 -39 53 c 0
 -48 69 -52 87 -52 108 c 0
 -52 125 -49 142 -43 159 c 0
 -28 204 -2 241 34 270 c 1
 69 301 111 316 160 316 c 2
89 93 m 0
 110 93 128 101 145 115 c 1
 161 127 173 142 180 161 c 0
 184 172 186 182 186 188 c 0
 186 215 169 228 133 228 c 0
 114 228 97 222 80 210 c 0
 61 197 50 181 45 161 c 1
 43 142 l 1
 43 133 44 124 47 115 c 0
 55 101 69 93 89 93 c 0
EndSplineSet
EndChar
StartChar: uni0E27
Encoding: 199 3623
OldEncoding: 3623
Width: 696
Flags: HW
HStem: -16 93<293.995 326.765> 198 95<364 395.695> 693 112<364 404.735>
VStem: 506 141<596.205 631.235>
DStem: 495.135 534.055 631.865 536.315 419.425 291.105 504.175 143.075
Fore
396 293 m 1
 419 291 l 1
 495 534 l 1
 503 560 506 581 506 596 c 0
 506 620 500 641 486 657 c 1
 458 681 418 693 365 693 c 0
 279 696 190 651 97 560 c 1
 27 631 l 1
 70 678 125 720 192 757 c 1
 259 789 329 805 405 805 c 0
 506 805 577 781 616 733 c 0
 637 705 647 671 647 631 c 0
 647 600 642 569 632 536 c 2
 504 143 l 1
 490 96 464 58 426 30 c 0
 386 -1 342 -16 294 -16 c 0
 245 -16 213 -1 197 30 c 1
 186 45 181 64 181 88 c 0
 181 104 185 123 192 145 c 0
 208 187 234 222 271 252 c 0
 307 279 348 293 396 293 c 1
327 77 m 0
 343 77 360 82 378 94 c 1
 390 107 399 121 405 139 c 1
 407 161 l 1
 405 183 l 1
 399 193 386 198 365 198 c 0
 347 198 330 192 314 180 c 0
 301 169 292 155 287 139 c 1
 283 117 l 1
 283 110 285 104 289 97 c 1
 294 83 306 77 327 77 c 0
EndSplineSet
MinimumDistance: x11,-1 
EndChar
StartChar: uni0E28
Encoding: 200 3624
OldEncoding: 3624
Width: 790
Flags: HW
HStem: -4 21G<-12.0898 124.64 407.14 540.48>
DStem: 31.9805 133.11 226.34 306 -12.0898 -3.62012 124.64 -3.62012 568.73 498.1 714.5 530.87 407.14 -3.62012 540.48 -3.62012
Fore
686 727 m 1
 689 727 701 739 721 763 c 0
 742 784 761 811 777 842 c 1
 876 787 l 1
 860 756 837 724 805 692 c 0
 764 653 739 630 728 624 c 1
 728 605 l 1
 728 593 l 1
 724 565 719 544 714 531 c 2
 540 -4 l 1
 407 -4 l 1
 569 498 l 1
 580 535 l 1
 559 523 532 513 500 504 c 1
 500 485 l 1
 490 450 l 1
 473 404 449 367 416 339 c 0
 382 310 337 295 284 292 c 1
 249 297 l 1
 234 301 226 304 226 306 c 1
 226 306 l 1
 125 -4 l 1
 -12 -4 l 1
 32 133 l 2
 41 162 46 191 46 219 c 2
 46 228 l 1
 45 241 40 273 30 325 c 0
 21 363 15 395 13 422 c 1
 13 431 l 2
 13 456 18 486 30 522 c 0
 52 584 87 637 134 679 c 0
 179 722 230 753 288 774 c 0
 345 795 403 807 463 809 c 0
 499 809 530 806 557 800 c 0
 581 795 608 784 638 767 c 0
 659 755 675 742 686 727 c 1
469 579 m 1
 487 579 505 587 525 601 c 1
 576 630 l 1
 564 654 545 672 518 683 c 0
 488 695 453 700 414 700 c 0
 357 698 302 680 251 646 c 0
 193 609 157 566 143 517 c 0
 135 495 131 469 131 438 c 2
 131 429 l 1
 134 401 135 387 136 387 c 1
 136 390 l 1
 148 428 174 473 215 524 c 1
 253 578 311 605 388 608 c 0
 417 608 436 604 446 598 c 0
 459 590 467 584 469 579 c 1
317 387 m 0
 333 387 350 393 368 405 c 1
 380 419 389 434 395 450 c 1
 399 473 l 1
 395 494 l 1
 389 505 376 511 356 511 c 0
 338 511 322 504 308 491 c 1
 292 481 282 467 277 450 c 1
 273 429 l 1
 273 421 275 413 279 405 c 0
 284 393 296 387 317 387 c 0
EndSplineSet
MinimumDistance: x8,-1 
EndChar
StartChar: uni0E29
Encoding: 201 3625
OldEncoding: 3625
Width: 837
Flags: HW
HStem: -1 120<-33 70 215 425> 485 72<473 498.305> 705 95<232 264.395> 765 20G<717.525 851.995>
DStem: 192.075 491.595 372.875 639.625 70.0352 118.695 203.375 118.695 717.525 785.395 851.995 785.395 576.275 354.865 726.565 403.455
Fore
958 568 m 1
 944 523 925 484 901 452 c 0
 877 421 851 394 821 372 c 0
 798 352 773 336 746 323 c 2
 695 297 l 1
 646 151 l 1
 624 90 595 51 558 32 c 0
 518 10 462 -1 389 -1 c 2
 -71 -1 l 1
 -32 119 l 1
 70 119 l 1
 192 492 l 1
 141 489 l 1
 104 494 78 512 62 542 c 1
 55 561 51 578 51 593 c 0
 51 613 54 631 60 646 c 0
 75 689 100 726 134 756 c 1
 172 785 215 800 264 800 c 0
 316 800 351 785 368 756 c 0
 377 739 382 721 382 701 c 0
 382 679 379 658 373 640 c 2
 203 119 l 1
 433 119 l 2
 462 119 483 124 495 133 c 1
 504 139 513 156 523 186 c 2
 549 268 l 1
 463 268 405 278 373 299 c 1
 348 324 333 342 329 353 c 0
 326 362 324 370 324 379 c 0
 324 395 327 414 333 434 c 0
 342 463 362 491 391 518 c 0
 421 544 457 557 498 557 c 0
 531 557 557 546 574 524 c 1
 582 509 585 494 585 478 c 1
 581 441 l 1
 570 405 551 375 523 353 c 1
 556 353 573 353 576 355 c 1
 718 785 l 1
 852 785 l 1
 727 403 l 1
 774 425 813 480 843 568 c 1
 958 568 l 1
444 394 m 0
 459 394 472 399 484 408 c 0
 495 418 503 429 507 441 c 1
 510 454 l 1
 505 474 l 1
 498 481 487 485 475 485 c 0
 462 485 449 480 437 471 c 0
 426 462 419 452 417 441 c 1
 415 427 l 1
 417 408 l 1
 421 399 431 394 444 394 c 0
194 582 m 0
 214 582 231 588 245 600 c 0
 259 611 269 626 276 644 c 1
 280 668 l 1
 280 675 278 681 273 688 c 0
 267 700 254 705 234 705 c 0
 218 705 201 699 183 686 c 0
 169 675 160 661 155 644 c 1
 150 624 l 1
 155 600 l 1
 163 588 176 582 194 582 c 0
EndSplineSet
EndChar
StartChar: uni0E2A
Encoding: 202 3626
OldEncoding: 3626
Width: 766
Flags: HW
HStem: -6 21G<379.31 516.04>
Fore
110 71 m 0
 130 71 147 77 161 89 c 0
 176 101 185 115 189 133 c 1
 194 156 l 1
 189 178 l 1
 183 188 170 193 150 193 c 0
 130 193 113 187 99 175 c 0
 86 164 76 150 72 133 c 1
 68 126 66 119 66 112 c 0
 66 104 69 98 74 92 c 1
 81 78 93 71 110 71 c 0
534 644 m 1
 514 679 473 696 412 696 c 0
 359 696 309 684 264 659 c 0
 222 636 181 608 141 573 c 1
 88 640 l 1
 130 684 180 721 238 749 c 0
 301 782 370 798 444 798 c 0
 516 798 576 783 625 754 c 0
 626 754 647 776 687 821 c 0
 725 866 746 888 750 888 c 1
 791 860 l 2
 808 847 821 835 830 823 c 1
 766 757 l 1
 757 749 l 2
 718 710 696 688 693 682 c 1
 705 667 710 647 710 622 c 1
 707 591 700 562 691 536 c 1
 516 -6 l 1
 379 -6 l 1
 385 30 388 89 391 173 c 1
 391 182 l 2
 391 247 382 309 366 370 c 1
 346 429 314 458 269 456 c 0
 208 453 160 395 125 282 c 1
 148 286 l 1
 180 288 l 1
 230 286 264 272 282 246 c 1
 290 229 293 211 293 191 c 0
 293 176 291 158 287 138 c 1
 271 93 245 55 210 25 c 0
 176 -4 133 -19 81 -21 c 0
 33 -21 -0 -7 -18 20 c 1
 -34 39 -42 62 -42 89 c 1
 -40 120 l 1
 23 323 l 1
 53 390 90 446 136 489 c 0
 186 535 238 557 293 557 c 1
 348 559 392 549 426 524 c 1
 428 524 446 544 479 584 c 1
 514 624 533 644 534 644 c 1
560 566 m 1
 514 511 l 1
 490 488 479 474 479 471 c 0
 486 453 490 432 492 407 c 1
 492 344 l 1
 527 456 l 1
 536 489 547 526 560 566 c 1
EndSplineSet
EndChar
StartChar: uni0E2B
Encoding: 203 3627
OldEncoding: 3627
Width: 838
Flags: HW
HStem: -1 21G<3.875 136.085 462.655 599.385> 705 95<206 237.785 677.355 716.905>
DStem: 582.435 371.685 719.165 371.685 462.655 -1.21484 599.385 -1.21484
Fore
256 359 m 1
 298 406 345 446 397 478 c 0
 439 504 476 524 507 538 c 1
 497 554 492 573 492 593 c 0
 492 613 495 630 502 646 c 0
 518 693 544 731 580 760 c 1
 619 788 664 802 717 802 c 0
 764 802 796 788 812 758 c 1
 819 739 823 722 823 705 c 0
 823 685 820 665 814 646 c 0
 797 590 763 548 712 520 c 1
 720 517 727 505 735 482 c 1
 737 462 l 1
 737 444 731 414 719 372 c 1
 599 -1 l 1
 463 -1 l 1
 582 372 l 2
 591 399 596 420 596 434 c 0
 596 441 595 446 594 447 c 0
 589 460 584 467 578 467 c 1
 476 421 384 356 302 270 c 0
 222 183 169 103 145 29 c 1
 136 -1 l 1
 4 -1 l 1
 164 491 l 1
 159 490 143 489 116 489 c 1
 75 494 49 511 37 542 c 0
 29 561 25 578 25 593 c 0
 25 613 28 630 34 646 c 1
 46 688 70 724 108 756 c 0
 145 785 188 800 238 800 c 0
 291 800 326 785 342 756 c 0
 351 739 355 721 355 701 c 0
 355 679 352 658 346 639 c 2
 256 359 l 1
638 584 m 0
 657 584 674 591 689 603 c 0
 703 615 712 629 717 646 c 1
 721 670 l 1
 717 690 l 1
 711 702 698 707 677 707 c 0
 659 707 643 701 629 688 c 1
 614 678 604 664 599 646 c 1
 596 639 594 632 594 626 c 0
 594 617 596 609 602 603 c 1
 608 591 620 584 638 584 c 0
169 582 m 0
 185 582 202 588 220 600 c 1
 233 612 242 627 249 644 c 1
 251 665 l 1
 247 688 l 1
 241 699 228 705 207 705 c 0
 191 705 175 699 159 686 c 0
 144 675 134 661 129 644 c 1
 125 624 l 1
 125 615 127 607 132 600 c 0
 139 588 152 582 169 582 c 0
EndSplineSet
MinimumDistance: x13,-1 
EndChar
StartChar: uni0E2C
Encoding: 204 3628
OldEncoding: 3628
Width: 918
Flags: HW
HStem: -8 21G<-18.5049 111.445 525.025 659.495> 699 95<183 217.665> 816 93<788 816.565>
DStem: 140.825 484.965 323.885 632.995 -18.5049 -7.71484 226.705 334.675 727.295 619.435 873.065 649.945 636.895 334.675 659.495 -7.71484
Fore
873 650 m 1
 659 -8 l 1
 525 -8 l 1
 537 43 l 1
 542 83 l 1
 542 99 l 1
 467 451 l 1
 167 99 l 1
 156 88 145 70 134 43 c 2
 111 -8 l 1
 -19 -8 l 1
 141 485 l 1
 135 483 118 483 90 483 c 1
 50 487 24 505 12 536 c 0
 5 553 2 570 2 587 c 0
 2 604 5 622 12 640 c 0
 21 665 35 691 54 717 c 0
 72 740 95 758 123 772 c 0
 153 786 185 794 218 794 c 0
 267 794 301 778 319 747 c 0
 328 731 333 712 333 691 c 0
 333 671 330 652 324 633 c 2
 227 335 l 1
 544 684 l 1
 637 335 l 1
 727 619 l 1
 685 619 655 633 637 661 c 1
 624 678 618 697 618 719 c 0
 618 732 620 747 624 763 c 0
 640 805 664 840 699 867 c 0
 734 895 773 909 817 909 c 0
 874 909 907 893 916 860 c 0
 921 844 924 827 924 809 c 0
 924 799 922 790 918 781 c 1
 948 799 976 831 1000 878 c 1
 1086 832 l 1
 1068 796 1046 767 1019 745 c 1
 989 717 961 695 935 679 c 1
 900 661 879 651 873 650 c 1
754 712 m 0
 771 712 786 717 798 728 c 0
 811 738 819 750 824 765 c 1
 827 783 l 1
 824 802 l 1
 816 812 805 816 789 816 c 0
 773 816 759 812 748 802 c 0
 733 790 724 778 719 765 c 1
 717 749 l 1
 717 742 719 735 724 728 c 0
 731 717 742 712 754 712 c 0
145 575 m 0
 162 575 179 581 197 593 c 1
 210 605 220 620 227 638 c 1
 229 659 l 1
 224 682 l 1
 218 693 205 699 185 699 c 0
 169 699 153 692 136 679 c 0
 121 669 111 655 107 638 c 1
 102 617 l 1
 102 609 105 601 109 593 c 0
 117 581 129 575 145 575 c 0
EndSplineSet
MinimumDistance: x0,-1 
EndChar
StartChar: uni0E2D
Encoding: 205 3629
OldEncoding: 3629
Width: 785
Flags: HW
HStem: -1 120<154 396> 242 95<174 206.75> 457 94<245 276.81> 695 110<426 466.65>
VStem: 589 144<590.775 630.325>
DStem: 579.65 533.145 716.38 535.405 466.65 186.235 593.21 153.465
Fore
147 244 m 1
 129 186 l 1
 122 170 119 156 119 144 c 1
 121 133 l 1
 127 123 144 119 173 119 c 2
 374 119 l 2
 403 119 424 123 436 133 c 0
 446 139 456 157 467 186 c 1
 580 533 l 2
 586 552 589 571 589 591 c 0
 589 660 535 695 427 695 c 0
 382 695 337 686 293 668 c 1
 243 644 201 618 167 589 c 1
 103 659 l 1
 145 697 197 732 260 763 c 1
 325 790 394 805 467 805 c 0
 574 805 650 781 695 734 c 0
 720 709 733 674 733 630 c 0
 733 599 727 568 716 535 c 2
 593 153 l 1
 573 92 548 52 520 31 c 0
 489 10 440 -1 374 -1 c 2
 103 -1 l 2
 58 -1 24 2 1 10 c 0
 -22 17 -34 31 -36 52 c 1
 -36 63 l 2
 -36 82 -30 111 -17 149 c 1
 59 385 l 1
 75 432 102 471 142 503 c 0
 182 535 226 551 277 551 c 0
 311 551 337 544 355 529 c 1
 376 515 388 497 390 473 c 1
 390 450 l 2
 390 435 388 418 383 399 c 1
 369 357 343 320 304 288 c 0
 266 257 223 242 175 242 c 0
 167 242 162 242 160 244 c 1
 147 244 l 1
207 337 m 0
 226 337 243 343 258 355 c 0
 270 366 281 380 288 396 c 1
 293 420 l 1
 288 440 l 1
 281 452 267 457 246 457 c 0
 229 457 213 451 198 438 c 0
 184 428 173 414 165 396 c 1
 163 381 l 1
 163 372 165 363 169 355 c 0
 178 343 190 337 207 337 c 0
EndSplineSet
MinimumDistance: x17,-1 
EndChar
StartChar: uni0E2E
Encoding: 206 3630
OldEncoding: 3630
Width: 776
Flags: HW
HStem: -3 120<134 386> 395 95<209.535 244.565> 523 86<336 369> 720 95<405 434>
DStem: 577.915 564.745 734.985 631.415 455.875 185.065 582.435 152.295
Fore
874 742 m 1
 831 701 785 664 735 631 c 1
 582 152 l 1
 562 91 538 51 509 30 c 0
 478 8 430 -3 363 -3 c 2
 92 -3 l 2
 47 -3 13 1 -10 9 c 0
 -32 16 -45 30 -47 48 c 1
 -47 62 l 2
 -47 84 -42 111 -31 143 c 2
 28 322 l 1
 43 369 70 409 110 442 c 0
 149 474 194 490 245 490 c 0
 288 490 317 476 333 448 c 1
 343 433 349 414 349 391 c 0
 349 377 346 362 342 344 c 0
 328 304 304 268 271 238 c 0
 238 210 197 194 147 192 c 1
 136 194 l 2
 129 194 124 195 123 196 c 1
 108 159 l 1
 103 134 l 1
 103 130 105 126 108 123 c 0
 115 119 133 117 161 117 c 2
 365 117 l 2
 395 117 416 122 428 132 c 0
 436 138 445 156 456 185 c 1
 578 565 l 1
 571 559 548 551 509 539 c 0
 472 528 415 523 337 523 c 0
 268 523 208 534 159 556 c 0
 123 572 106 595 106 625 c 1
 110 655 l 1
 123 688 147 717 182 740 c 1
 216 765 256 784 304 796 c 0
 351 808 394 815 432 815 c 0
 515 815 578 804 620 782 c 0
 652 765 677 747 694 729 c 1
 715 743 752 775 807 824 c 1
 874 742 l 1
176 289 m 0
 194 289 208 294 220 305 c 0
 233 319 241 332 245 342 c 1
 249 361 l 1
 245 379 l 1
 239 390 227 395 210 395 c 0
 192 395 178 391 167 382 c 0
 152 370 143 357 138 342 c 1
 136 329 l 1
 136 320 138 312 143 305 c 0
 149 294 160 289 176 289 c 0
370 609 m 0
 418 607 467 613 516 627 c 1
 553 640 573 649 576 655 c 1
 574 664 559 677 532 694 c 0
 506 711 465 720 407 720 c 0
 367 720 328 714 289 704 c 0
 249 691 226 676 220 660 c 2
 217 653 l 1
 217 626 268 611 370 609 c 0
EndSplineSet
MinimumDistance: x1,-1 
EndChar
StartChar: uni0E2F
Encoding: 207 3631
OldEncoding: 3631
Width: 732
Flags: HW
HStem: 334 120<265.84 332.51> 491 93<239.85 274.88> 707 97<313 341.55> 767 20G<619.53 751.74>
DStem: 506.53 442.5 751.74 787.15 443.25 254.92 577.72 245.88
Fore
94 607 m 0
 145 736 227 802 342 804 c 0
 370 804 395 797 416 783 c 0
 433 770 446 751 453 725 c 1
 458 692 l 1
 458 677 455 662 450 646 c 0
 434 601 408 565 372 535 c 0
 334 506 290 491 240 491 c 1
 222 493 l 1
 207 493 l 1
 209 467 251 454 333 454 c 1
 384 462 438 497 494 561 c 0
 547 623 589 698 620 787 c 1
 752 787 l 1
 578 246 l 1
 554 169 516 109 462 65 c 1
 411 26 330 -6 220 -32 c 1
 226 75 l 1
 284 93 326 108 353 120 c 0
 376 132 395 146 409 165 c 1
 416 176 427 206 443 255 c 1
 507 442 l 1
 482 412 449 388 407 369 c 0
 360 346 313 334 266 334 c 1
 215 339 l 1
 157 352 117 383 96 431 c 0
 84 458 78 485 78 513 c 0
 78 549 84 580 94 607 c 0
275 584 m 0
 292 584 309 590 326 602 c 1
 339 614 348 629 355 646 c 0
 359 655 361 662 361 667 c 0
 361 676 358 684 353 690 c 1
 347 701 334 707 314 707 c 0
 297 707 281 701 266 688 c 1
 248 676 238 662 235 646 c 1
 231 626 l 1
 235 602 l 1
 243 590 256 584 275 584 c 0
EndSplineSet
EndChar
StartChar: uni0E30
Encoding: 208 3632
OldEncoding: 3632
Width: 583
Flags: HW
HStem: 227 95<104 133.41> 691 95<254 283.7>
Fore
133 322 m 0
 179 322 211 308 231 280 c 0
 241 264 246 246 246 225 c 0
 246 207 243 190 237 174 c 1
 235 162 230 152 223 141 c 1
 207 110 l 1
 225 113 254 127 293 152 c 1
 329 179 360 232 385 312 c 1
 514 312 l 1
 486 216 435 140 364 83 c 1
 297 28 205 -0 87 -0 c 0
 31 -0 -12 15 -43 46 c 1
 -65 64 -76 88 -76 117 c 0
 -76 136 -73 154 -67 172 c 0
 -51 217 -25 253 10 280 c 0
 46 308 87 322 133 322 c 0
284 786 m 0
 330 786 362 772 381 744 c 0
 391 729 397 710 397 687 c 0
 397 672 394 655 390 636 c 0
 388 630 383 619 374 604 c 1
 359 574 l 1
 359 574 l 1
 359 574 l 1
 394 585 l 1
 418 597 443 618 469 647 c 1
 497 681 519 724 536 775 c 1
 666 775 l 1
 643 708 615 653 582 611 c 0
 545 564 499 529 443 504 c 0
 384 478 315 465 237 465 c 0
 184 465 141 481 107 512 c 1
 84 530 72 555 72 585 c 0
 72 603 75 619 81 634 c 0
 99 679 124 716 158 744 c 0
 193 772 235 786 284 786 c 0
66 113 m 0
 84 113 100 119 114 132 c 0
 129 145 139 158 142 172 c 1
 145 192 l 1
 140 210 l 1
 134 221 122 227 105 227 c 0
 85 227 69 221 57 210 c 0
 42 198 33 185 28 172 c 1
 26 155 l 1
 31 132 l 1
 39 119 51 113 66 113 c 0
218 576 m 0
 235 576 250 582 264 594 c 0
 280 607 289 620 293 634 c 1
 297 655 l 1
 293 676 l 1
 287 686 274 691 255 691 c 0
 238 691 222 686 207 676 c 0
 193 664 184 650 180 634 c 1
 177 631 176 625 176 618 c 0
 176 610 179 602 184 594 c 0
 192 582 203 576 218 576 c 0
EndSplineSet
EndChar
StartChar: uni0E31
Encoding: 209 3633
OldEncoding: 3633
Width: 0
Flags: HW
Fore
-155 1186 m 0
 -110 1186 -80 1172 -62 1142 c 0
 -53 1126 -49 1109 -49 1089 c 0
 -49 1076 -52 1058 -60 1034 c 1
 -81 992 l 2
 -87 980 -94 970 -102 963 c 1
 -88 960 l 1
 -70 958 l 1
 -28 958 19 972 71 1001 c 0
 126 1030 184 1084 245 1161 c 1
 345 1122 l 1
 308 1065 267 1017 219 978 c 0
 166 937 110 905 53 883 c 1
 -11 862 -71 851 -128 851 c 1
 -179 853 l 1
 -237 860 -286 880 -324 912 c 0
 -349 932 -362 957 -362 987 c 0
 -362 1002 -359 1018 -355 1034 c 0
 -340 1080 -315 1116 -280 1142 c 1
 -244 1174 -202 1189 -155 1186 c 0
-220 981 m 0
 -200 981 -185 986 -174 996 c 0
 -160 1009 -150 1022 -144 1036 c 1
 -141 1057 l 1
 -146 1076 l 1
 -152 1086 -164 1091 -183 1091 c 0
 -203 1091 -219 1086 -229 1076 c 0
 -244 1064 -253 1050 -257 1036 c 0
 -259 1031 -260 1025 -260 1018 c 1
 -254 996 l 1
 -248 986 -237 981 -220 981 c 0
EndSplineSet
EndChar
StartChar: uni0E32
Encoding: 210 3634
OldEncoding: 3634
Width: 643
Flags: HW
HStem: -2 21G<265.825 400.295> 702 106<344.925 393.515>
VStem: 460 144<623.285 667.355>
DStem: 451.145 572.435 585.615 570.175 265.825 -1.60547 400.295 -1.60547
Fore
35 595 m 1
 65 647 110 696 169 741 c 0
 228 786 303 808 394 808 c 0
 488 806 550 786 581 746 c 0
 596 726 604 700 604 667 c 0
 604 642 598 610 586 570 c 1
 400 -2 l 1
 266 -2 l 1
 451 572 l 1
 457 588 460 605 460 623 c 0
 460 676 422 702 345 702 c 0
 264 702 195 656 139 563 c 1
 35 595 l 1
EndSplineSet
MinimumDistance: x4,-1 
EndChar
StartChar: uni0E33
Encoding: 211 3635
OldEncoding: 3635
Width: 666
Flags: HW
HStem: -26 21G<219.905 354.375> 677 106<298 347.595> 903 95<-162.035 -127.005> 1122 95<-88 -60.335>
VStem: 417 141<598.39 642.46>
DStem: 407.485 547.54 539.695 545.28 219.905 -26.5 354.375 -26.5
Fore
-12 570 m 1
 19 622 64 671 123 716 c 1
 184 761 259 783 348 783 c 0
 442 781 504 761 534 722 c 0
 550 701 558 675 558 642 c 0
 558 618 552 585 540 545 c 1
 354 -26 l 1
 220 -26 l 1
 407 548 l 1
 414 563 417 580 417 598 c 0
 417 651 377 677 299 677 c 0
 217 677 148 631 92 538 c 1
 -12 570 l 1
-60 1217 m 0
 -10 1217 23 1202 39 1172 c 0
 50 1154 56 1134 56 1115 c 0
 56 1097 53 1080 46 1062 c 0
 32 1017 7 980 -30 950 c 1
 -71 919 -115 903 -162 903 c 4
 -210 903 -243 919 -259 950 c 0
 -268 966 -273 986 -273 1007 c 0
 -273 1026 -270 1044 -264 1062 c 0
 -250 1105 -225 1142 -188 1172 c 0
 -150 1202 -108 1217 -60 1217 c 0
-127 998 m 0
 -110 998 -93 1005 -76 1018 c 0
 -64 1027 -54 1042 -47 1062 c 1
 -45 1082 l 1
 -49 1105 l 1
 -55 1116 -68 1122 -87 1122 c 0
 -108 1122 -124 1116 -136 1105 c 1
 -151 1095 -161 1081 -167 1062 c 1
 -171 1038 l 1
 -171 1031 -169 1024 -164 1018 c 1
 -160 1005 -147 998 -127 998 c 0
EndSplineSet
MinimumDistance: x4,-1 
EndChar
StartChar: uni0E34
Encoding: 212 3636
OldEncoding: 3636
Width: 0
Flags: HW
Fore
-154 1176 m 0
 -100 1176 -57 1161 -24 1130 c 1
 6 1104 25 1073 32 1037 c 1
 36 973 l 1
 34 927 l 1
 27 841 l 1
 -70 873 l 1
 -121 886 -175 897 -231 905 c 0
 -267 912 -316 915 -379 915 c 1
 -496 911 l 1
 -575 903 l 1
 -547 958 -513 1004 -473 1042 c 1
 -428 1082 -378 1115 -325 1139 c 0
 -270 1166 -213 1179 -154 1176 c 0
-184 1084 m 1
 -229 1084 -269 1076 -302 1061 c 0
 -340 1044 -367 1027 -383 1008 c 1
 -344 1012 l 1
 -288 1012 l 1
 -207 1008 l 1
 -165 1003 -131 996 -105 989 c 1
 -79 979 -63 972 -56 968 c 1
 -68 1036 -110 1075 -184 1084 c 1
EndSplineSet
EndChar
StartChar: uni0E35
Encoding: 213 3637
OldEncoding: 3637
Width: 0
Flags: HW
HStem: 968 21G<-69.9951 -69.9951>
DStem: -294.865 1011.91 -294.865 1011.91 -359.275 1009.64 -224.805 1007.38 18.1445 1259.38 137.925 1259.38 -28.1846 1120.38 33.9648 939.585
Fore
-172 1176 m 0
 -137 1176 -104 1168 -72 1153 c 1
 -28 1120 l 1
 18 1259 l 1
 138 1259 l 1
 34 940 l 1
 35 940 36 936 36 928 c 0
 36 908 33 877 27 836 c 1
 -87 873 l 2
 -126 884 -178 895 -244 906 c 0
 -283 912 -333 915 -394 915 c 2
 -480 912 l 1
 -549 906 l 1
 -591 902 l 1
 -564 957 -531 1004 -491 1041 c 0
 -447 1083 -398 1116 -346 1138 c 0
 -285 1166 -227 1178 -172 1176 c 0
-202 1083 m 1
 -244 1083 -283 1076 -317 1060 c 0
 -354 1044 -381 1025 -397 1005 c 1
 -359 1010 l 1
 -295 1012 l 1
 -225 1007 l 1
 -142 993 l 1
 -89 975 l 1
 -70 968 l 1
 -70 968 l 1
 -84 1033 -128 1072 -202 1083 c 1
EndSplineSet
EndChar
StartChar: uni0E36
Encoding: 214 3638
OldEncoding: 3638
Width: 0
Flags: HW
Fore
134 1157 m 0
 112 1088 77 1043 30 1022 c 1
 39 956 l 1
 41 949 43 940 43 928 c 0
 43 909 38 878 30 835 c 1
 -83 872 l 1
 -122 883 -174 894 -240 905 c 0
 -279 911 -328 914 -388 914 c 2
 -476 912 l 1
 -546 905 l 1
 -585 902 l 1
 -559 955 -525 1001 -483 1040 c 1
 -441 1083 -392 1115 -337 1138 c 1
 -284 1163 -227 1175 -166 1175 c 1
 -140 1173 l 2
 -130 1170 -125 1169 -125 1168 c 0
 -78 1238 -22 1272 43 1272 c 0
 80 1272 106 1262 121 1243 c 0
 132 1226 138 1208 138 1189 c 0
 138 1175 136 1164 134 1157 c 0
-198 1082 m 1
 -240 1082 -279 1075 -317 1060 c 1
 -354 1042 -379 1024 -390 1007 c 1
 -356 1011 l 1
 -299 1011 l 1
 -220 1007 l 1
 -183 1003 -149 996 -116 987 c 1
 -91 978 -75 972 -67 967 c 1
 -83 1033 -127 1071 -198 1082 c 1
-18 1102 m 0
 -6 1102 5 1106 17 1115 c 0
 26 1122 32 1131 37 1142 c 1
 39 1155 l 1
 39 1161 38 1165 35 1168 c 1
 30 1177 22 1182 10 1182 c 0
 -17 1182 -34 1169 -41 1142 c 2
 -46 1124 l 1
 -46 1109 -36 1102 -18 1102 c 0
EndSplineSet
EndChar
StartChar: uni0E37
Encoding: 215 3639
OldEncoding: 3639
Width: 0
Flags: HW
HStem: 968 21G<-69.9951 -69.9951>
DStem: -294.865 1011.91 -294.865 1011.91 -359.275 1009.64 -224.805 1007.38 22.665 1259.38 137.925 1259.38 -25.9248 1115.87 33.9648 939.585
Fore
-26 1116 m 1
 23 1259 l 1
 138 1259 l 1
 34 940 l 1
 35 940 36 936 36 928 c 0
 36 908 33 877 27 836 c 1
 -87 873 l 2
 -126 884 -178 895 -244 906 c 0
 -283 912 -333 915 -394 915 c 2
 -480 912 l 1
 -549 906 l 1
 -591 902 l 1
 -529 1013 -461 1086 -385 1123 c 0
 -308 1158 -235 1176 -167 1176 c 1
 -140 1259 l 1
 -30 1259 l 1
 -68 1149 l 1
 -60 1145 -54 1141 -50 1136 c 0
 -41 1129 -33 1123 -26 1116 c 1
-202 1083 m 1
 -244 1083 -283 1076 -317 1060 c 0
 -354 1044 -381 1025 -397 1005 c 1
 -359 1010 l 1
 -295 1012 l 1
 -225 1007 l 1
 -142 993 l 1
 -89 975 l 1
 -70 968 l 1
 -70 968 l 1
 -84 1033 -128 1072 -202 1083 c 1
EndSplineSet
EndChar
StartChar: uni0E38
Encoding: 216 3640
OldEncoding: 3640
Width: 0
Flags: HW
HStem: -104 95<-418.985 -383.955>
DStem: -455.145 -318.67 -277.735 -152.56 -513.905 -494.95 -388.475 -494.95
Fore
-388 -495 m 1
 -514 -495 l 1
 -455 -319 l 1
 -514 -321 l 1
 -538 -319 -559 -310 -576 -294 c 0
 -590 -279 -599 -260 -601 -236 c 1
 -603 -217 l 1
 -603 -200 -600 -183 -594 -166 c 0
 -583 -125 -558 -89 -518 -58 c 0
 -479 -25 -434 -9 -384 -9 c 0
 -357 -9 -334 -14 -316 -25 c 0
 -300 -35 -286 -52 -275 -76 c 1
 -270 -108 l 1
 -270 -119 -272 -134 -278 -153 c 1
 -388 -495 l 1
-457 -226 m 0
 -440 -226 -422 -220 -404 -208 c 1
 -391 -197 -382 -183 -375 -166 c 1
 -370 -146 l 1
 -370 -137 -373 -129 -377 -122 c 0
 -385 -110 -399 -104 -419 -104 c 0
 -435 -104 -452 -110 -470 -122 c 0
 -484 -133 -494 -148 -499 -166 c 1
 -501 -185 l 1
 -497 -208 l 1
 -489 -220 -476 -226 -457 -226 c 0
EndSplineSet
EndChar
StartChar: uni0E39
Encoding: 217 3641
OldEncoding: 3641
Width: 0
Flags: HW
HStem: -101 93<-637.985 -607.475> -40 20G<-384.865 -260.565>
DStem: -384.865 -19.5703 -260.565 -19.5703 -494.475 -357.44 -375.825 -376.65
Fore
-705 -377 m 1
 -684 -318 l 1
 -735 -320 l 1
 -761 -318 -781 -309 -797 -293 c 0
 -812 -278 -820 -259 -822 -235 c 1
 -824 -216 l 1
 -824 -200 -821 -183 -815 -165 c 0
 -804 -125 -779 -88 -740 -57 c 0
 -701 -24 -656 -8 -607 -8 c 0
 -565 -8 -533 -21 -513 -48 c 0
 -499 -64 -492 -84 -492 -108 c 0
 -492 -121 -494 -136 -499 -152 c 1
 -563 -355 l 1
 -568 -374 l 1
 -568 -388 -560 -395 -543 -395 c 0
 -519 -395 -503 -382 -494 -357 c 2
 -385 -20 l 1
 -261 -20 l 1
 -376 -377 l 1
 -386 -414 -414 -445 -459 -472 c 0
 -504 -496 -544 -508 -579 -508 c 0
 -621 -508 -655 -496 -681 -472 c 0
 -700 -455 -709 -435 -709 -411 c 1
 -705 -377 l 1
-679 -225 m 0
 -658 -225 -640 -218 -623 -205 c 0
 -610 -194 -601 -180 -596 -163 c 2
 -592 -145 l 1
 -592 -134 -594 -126 -598 -119 c 0
 -606 -107 -619 -101 -638 -101 c 0
 -655 -101 -673 -107 -691 -119 c 1
 -705 -134 -714 -149 -718 -163 c 2
 -723 -182 l 1
 -723 -191 -720 -198 -716 -205 c 0
 -709 -218 -697 -225 -679 -225 c 0
EndSplineSet
EndChar
StartChar: uni0E3A
Encoding: 218 3642
OldEncoding: 3642
Width: 0
Flags: HW
Fore
-320 -61 m 0
 -305 -61 -293 -65 -283 -72 c 0
 -273 -80 -267 -90 -264 -103 c 1
 -264 -114 l 1
 -269 -141 l 1
 -276 -161 -288 -180 -306 -198 c 1
 -326 -213 -349 -220 -373 -220 c 0
 -395 -220 -413 -213 -425 -198 c 0
 -431 -189 -434 -178 -434 -167 c 1
 -429 -141 l 1
 -420 -118 -406 -99 -387 -83 c 0
 -367 -68 -344 -61 -320 -61 c 0
EndSplineSet
EndChar
StartChar: dottedcircle
Encoding: 221 9676
OldEncoding: 65536
Width: 1269
VWidth: 1000
Flags: HW
Fore
368 603 m 6
530 725 m 6
384 103 m 6
278 225 m 6
759 117 m 6
895 241 m 6
970 595 m 6
870 715 m 6
980 415 m 6
271 424 m 6
724 771 m 6
384 631 m 0
 408 632 430 610 429 586 c 0
 429 583 429 579 428 576 c 0
 422 550 401 532 373 531 c 0
 349 530 327 552 328 576 c 0
 328 579 328 583 329 586 c 0
 335 612 357 630 384 631 c 0
384 581 m 0
 384 581 380 585 379 586 c 0
 379 586 l 0
 380 585 373 581 373 581 c 0
 373 581 377 577 378 576 c 0
 378 576 l 0
 378 577 384 581 384 581 c 0
546 753 m 0
 570 754 592 732 591 708 c 0
 591 705 591 701 590 698 c 0
 584 672 562 654 535 653 c 0
 511 652 489 674 490 698 c 0
 490 701 490 705 491 708 c 0
 497 734 519 752 546 753 c 0
546 703 m 0
 546 703 542 707 541 708 c 0
 541 708 l 0
 542 707 535 703 535 703 c 0
 535 703 539 699 540 698 c 0
 540 698 l 0
 540 699 546 703 546 703 c 0
400 131 m 0
 424 132 446 110 445 86 c 0
 445 83 445 79 444 76 c 0
 437 50 416 32 389 31 c 0
 365 30 343 52 344 76 c 0
 344 79 344 83 345 86 c 0
 351 112 372 130 400 131 c 0
400 81 m 0
 400 81 396 85 395 86 c 0
 395 86 l 0
 395 85 389 81 389 81 c 0
 389 81 392 77 394 76 c 0
 394 76 l 0
 393 77 400 81 400 81 c 0
294 253 m 0
 318 254 340 232 339 208 c 0
 339 205 339 201 338 198 c 0
 331 172 310 154 283 153 c 0
 259 152 237 174 238 198 c 0
 238 201 238 205 239 208 c 0
 245 234 266 252 294 253 c 0
294 203 m 0
 294 203 290 207 289 208 c 0
 289 208 l 0
 289 207 283 203 283 203 c 0
 283 203 286 199 288 198 c 0
 288 198 l 0
 287 199 294 203 294 203 c 0
775 145 m 0
 799 146 821 124 820 100 c 0
 820 97 820 93 819 90 c 0
 812 64 791 46 764 45 c 0
 740 44 718 66 719 90 c 0
 719 93 719 97 720 100 c 0
 726 126 747 144 775 145 c 0
775 95 m 0
 775 95 771 99 770 100 c 0
 770 100 l 0
 770 99 764 95 764 95 c 0
 764 95 767 91 769 90 c 0
 769 90 l 0
 768 91 775 95 775 95 c 0
911 269 m 0
 935 270 957 248 956 224 c 0
 956 221 956 217 955 214 c 0
 949 188 928 170 900 169 c 0
 876 168 854 190 855 214 c 0
 855 217 855 221 856 224 c 0
 862 250 884 268 911 269 c 0
911 219 m 0
 911 219 908 223 906 224 c 0
 906 224 l 0
 907 223 900 219 900 219 c 0
 900 219 904 215 905 214 c 0
 905 214 l 0
 905 215 911 219 911 219 c 0
986 623 m 0
 1011 624 1032 602 1031 578 c 0
 1031 575 1031 571 1030 568 c 0
 1024 542 1003 524 976 523 c 0
 951 522 929 544 930 568 c 0
 930 571 931 575 931 578 c 0
 938 604 959 622 986 623 c 0
986 573 m 0
 986 573 983 577 981 578 c 0
 981 578 l 0
 982 577 976 573 976 573 c 0
 976 573 979 569 980 568 c 0
 980 568 l 0
 980 569 986 573 986 573 c 0
886 743 m 0
 910 744 932 722 931 698 c 0
 931 695 931 691 930 688 c 0
 924 662 902 644 875 643 c 0
 851 642 829 664 830 688 c 0
 830 691 830 695 831 698 c 0
 837 724 858 742 886 743 c 0
886 693 m 0
 886 693 882 697 881 698 c 0
 881 698 l 0
 881 697 875 693 875 693 c 0
 875 693 879 689 880 688 c 0
 880 688 l 0
 879 689 886 693 886 693 c 0
996 443 m 0
 1020 444 1042 422 1041 398 c 0
 1041 395 1041 391 1040 388 c 0
 1034 362 1013 344 985 343 c 0
 961 342 939 364 940 388 c 0
 940 391 940 395 941 398 c 0
 947 424 969 442 996 443 c 0
996 393 m 0
 996 393 993 397 991 398 c 0
 991 398 l 0
 992 397 985 393 985 393 c 0
 985 393 989 389 990 388 c 0
 990 388 l 0
 990 389 996 393 996 393 c 0
287 452 m 0
 311 453 333 431 332 407 c 0
 332 404 332 400 331 397 c 0
 325 371 303 353 276 352 c 0
 252 351 230 373 231 397 c 0
 231 400 231 404 232 407 c 0
 238 433 260 451 287 452 c 0
287 402 m 0
 287 402 283 406 282 407 c 0
 282 407 l 0
 283 406 276 402 276 402 c 0
 276 402 280 398 281 397 c 0
 281 397 l 0
 281 398 287 402 287 402 c 0
589 81 m 0
 613 82 635 60 634 36 c 0
 634 33 634 29 633 26 c 0
 627 -0 606 -18 578 -19 c 0
 554 -20 532 2 533 26 c 0
 533 29 533 33 534 36 c 0
 541 62 562 80 589 81 c 0
589 31 m 0
 589 31 586 35 584 36 c 0
 584 36 l 0
 585 35 578 31 578 31 c 0
 578 31 582 27 583 26 c 0
 583 26 l 0
 583 27 589 31 589 31 c 0
740 799 m 0
 764 800 786 778 785 754 c 0
 785 751 785 747 784 744 c 0
 777 718 756 700 729 699 c 0
 705 698 683 720 684 744 c 0
 684 747 684 751 685 754 c 0
 691 780 712 798 740 799 c 0
740 749 m 0
 740 749 736 753 735 754 c 0
 735 754 l 0
 735 753 729 749 729 749 c 0
 729 749 732 745 734 744 c 0
 734 744 l 0
 733 745 740 749 740 749 c 0
EndSplineSet
EndChar
StartChar: uni0E3F
Encoding: 223 3647
OldEncoding: 3647
Width: 897
Flags: HW
HStem: 777 20G<353.84 479.388 570.652 587.75> 941 20G<210.33 532.972> 961 21G<623.977 636.34>
DStem: 210.33 960.95 353.84 797.1 -101.55 0.450195 282.65 576.75 210.33 960.95 229.54 412.9 -101.55 0.450195 148.18 164.3 353.742 412.9 445.617 412.9 272.442 164.3 364.712 164.3 479.388 797.1 570.652 797.1 407.326 576.75 498.941 576.75 567 1065 657.81 1064.91 532.972 960.95 623.977 960.95
Fore
479 797 m 1
 354 797 l 1
 283 577 l 1
 407 577 l 1
 479 797 l 1
354 413 m 1
 230 413 l 1
 148 164 l 1
 272 164 l 1
 354 413 l 1
571 797 m 1
 499 577 l 1
 508 577 l 2
 551 577 587 587 616 607 c 0
 645 628 665 654 674 685 c 0
 678 702 680 715 680 725 c 0
 680 773 650 797 588 797 c 2
 571 797 l 1
446 413 m 1
 365 164 l 1
 380 164 l 2
 420 164 457 172 491 188 c 0
 527 205 554 242 572 299 c 0
 578 316 581 332 581 347 c 0
 581 368 575 382 563 389 c 0
 541 405 509 413 466 413 c 2
 446 413 l 1
219 0 m 1
 -102 0 l 1
 210 961 l 1
 533 961 l 1
 567 1065 l 5
 658 1065 l 1
 624 961 l 1
 636 961 l 2
 669 961 708 955 755 943 c 1
 795 930 824 911 843 886 c 1
 859 869 871 848 879 822 c 1
 882 804 l 1
 879 769 l 1
 873 709 l 1
 861 675 843 641 817 607 c 0
 787 570 753 538 715 512 c 1
 739 490 755 462 764 426 c 0
 769 405 771 384 771 364 c 1
 766 310 l 1
 749 257 726 211 697 170 c 0
 669 131 631 96 585 65 c 0
 521 22 436 0 331 0 c 2
 311 0 l 1
 285 -81 l 1
 192 -81 l 1
 219 0 l 1
EndSplineSet
MinimumDistance: x28,-1 
EndChar
StartChar: uni0E40
Encoding: 224 3648
OldEncoding: 3648
Width: 412
Flags: HW
HStem: -9 95<114.11 146.88> 767 20G<215.81 350.28>
DStem: 215.81 786.76 350.28 786.76 7.88965 150.57 192.08 303.12
Fore
114 -9 m 0
 62 -9 28 7 12 38 c 0
 3 55 -2 73 -2 93 c 0
 -2 114 1 133 8 151 c 1
 216 787 l 1
 350 787 l 1
 192 303 l 1
 216 303 l 2
 264 303 297 288 315 259 c 1
 323 242 327 223 327 204 c 0
 327 183 324 165 320 151 c 0
 308 107 283 69 244 38 c 0
 204 7 161 -9 114 -9 c 0
147 86 m 0
 165 86 182 91 198 102 c 0
 211 113 220 127 225 146 c 1
 229 170 l 1
 225 190 l 1
 219 201 206 206 185 206 c 0
 168 206 150 200 132 188 c 0
 120 178 110 164 103 146 c 1
 97 130 l 1
 97 120 101 111 107 104 c 0
 117 92 130 86 147 86 c 0
EndSplineSet
MinimumDistance: x5,-1 
EndChar
StartChar: uni0E41
Encoding: 225 3649
OldEncoding: 3649
Width: 760
Flags: HW
HStem: -9 95<92.7246 125.495 463.365 495.005> 767 20G<194.425 328.895 567.325 700.665>
DStem: 194.425 786.76 328.895 786.76 -13.4951 150.57 170.695 303.12 567.325 786.76 700.665 786.76 358.275 150.57 543.595 303.12
Fore
93 -9 m 0
 41 -9 7 7 -9 38 c 0
 -19 55 -24 73 -24 93 c 0
 -24 114 -20 133 -13 151 c 1
 194 787 l 1
 329 787 l 1
 171 303 l 1
 192 303 l 2
 240 303 274 288 292 259 c 0
 301 243 305 225 305 204 c 0
 305 187 302 169 296 151 c 0
 285 105 260 68 223 38 c 0
 183 7 139 -9 93 -9 c 0
463 -9 m 0
 414 -9 380 7 363 38 c 0
 354 53 349 72 349 93 c 0
 349 113 352 132 358 151 c 2
 567 787 l 1
 701 787 l 1
 544 303 l 1
 565 303 l 2
 609 303 641 288 662 257 c 0
 673 242 678 223 678 199 c 0
 678 184 675 168 669 151 c 0
 653 103 628 65 592 38 c 0
 552 7 509 -9 463 -9 c 0
125 86 m 0
 144 86 161 91 176 102 c 0
 189 113 198 127 203 146 c 1
 206 170 l 1
 203 190 l 1
 197 201 184 206 164 206 c 0
 147 206 129 200 111 188 c 0
 99 178 89 164 81 146 c 1
 76 130 l 1
 76 120 79 111 86 104 c 0
 96 92 109 86 125 86 c 0
495 86 m 0
 516 86 533 91 546 102 c 0
 556 113 566 127 574 146 c 1
 576 170 l 1
 574 190 l 1
 568 201 555 206 535 206 c 0
 515 206 498 200 484 188 c 0
 471 177 461 163 453 146 c 1
 449 128 l 1
 449 118 452 110 458 104 c 1
 466 92 478 86 495 86 c 0
EndSplineSet
MinimumDistance: x17,-1 
EndChar
StartChar: uni0E42
Encoding: 226 3650
OldEncoding: 3650
Width: 502
Flags: HW
HStem: -46 99<80.2051 111.845> 1215 115<553.675 588.705>
VStem: 295 137<1100.14 1136.3>
DStem: 276.825 1030.08 407.905 1025.56 -22.625 113.65 162.695 266.2
Fore
408 1026 m 1
 163 266 l 1
 184 266 l 2
 232 266 265 251 284 220 c 0
 293 204 297 186 297 164 c 0
 297 149 295 132 290 114 c 1
 274 66 247 29 211 1 c 0
 171 -30 128 -46 80 -46 c 0
 30 -46 -3 -30 -20 1 c 1
 -28 18 -32 36 -32 56 c 0
 -32 76 -29 96 -23 114 c 2
 277 1030 l 1
 286 1056 292 1079 295 1100 c 1
 295 1113 290 1125 281 1136 c 0
 275 1145 257 1158 228 1174 c 1
 89 1244 l 1
 98 1252 117 1268 149 1292 c 1
 187 1318 224 1340 262 1359 c 1
 312 1381 356 1392 394 1392 c 0
 424 1392 444 1389 454 1384 c 2
 518 1354 l 1
 547 1339 571 1330 589 1330 c 0
 611 1330 641 1342 681 1363 c 1
 693 1262 l 1
 641 1231 595 1215 554 1215 c 0
 522 1215 489 1225 454 1244 c 0
 422 1259 399 1269 385 1273 c 1
 353 1278 l 2
 343 1278 334 1276 325 1273 c 1
 311 1264 l 1
 357 1235 388 1215 403 1202 c 1
 420 1185 430 1165 432 1141 c 1
 432 1136 l 2
 432 1108 424 1071 408 1026 c 1
112 53 m 0
 131 53 148 59 160 70 c 1
 174 83 183 96 189 109 c 1
 193 127 l 1
 193 135 191 142 186 149 c 0
 180 159 168 164 149 164 c 0
 131 164 116 159 103 149 c 0
 91 137 82 123 77 109 c 1
 72 93 l 1
 72 84 75 76 80 70 c 1
 86 59 97 53 112 53 c 0
EndSplineSet
MinimumDistance: x31,-1 
EndChar
StartChar: uni0E43
Encoding: 227 3651
OldEncoding: 3651
Width: 515
Flags: HW
HStem: -46 99<94.7988 126.438> 1016 93<153 173> 1294 104<314.019 351.309>
DStem: 340.009 1189.02 476.738 1186.76 -10.291 113.26 175.028 263.55
Fore
477 1187 m 1
 175 264 l 1
 196 264 l 2
 241 264 274 249 296 219 c 1
 305 204 309 184 309 162 c 0
 309 145 307 129 303 113 c 0
 288 67 263 30 226 0 c 0
 187 -31 143 -46 95 -46 c 0
 44 -46 11 -31 -5 0 c 1
 -14 15 -19 35 -19 58 c 0
 -19 77 -16 95 -10 113 c 2
 340 1189 l 1
 351 1220 356 1246 356 1266 c 2
 356 1268 l 1
 354 1285 340 1294 314 1294 c 0
 290 1294 273 1291 263 1284 c 0
 256 1279 248 1273 241 1266 c 1
 274 1266 297 1253 307 1229 c 1
 312 1195 l 1
 312 1173 309 1150 303 1127 c 1
 272 1053 222 1016 155 1016 c 0
 126 1016 101 1023 80 1036 c 1
 62 1052 53 1070 53 1092 c 2
 53 1094 l 1
 55 1123 60 1148 67 1171 c 0
 87 1233 124 1286 177 1330 c 0
 232 1375 290 1398 351 1398 c 0
 413 1398 455 1379 477 1340 c 0
 486 1322 490 1299 490 1273 c 0
 492 1252 487 1224 477 1187 c 1
126 53 m 0
 146 53 162 59 175 69 c 0
 187 80 196 94 203 109 c 1
 208 127 l 1
 208 134 206 142 201 148 c 0
 195 159 183 164 164 164 c 0
 146 164 130 159 117 148 c 0
 105 135 96 122 93 109 c 1
 87 93 l 1
 87 83 90 75 95 69 c 1
 101 59 111 53 126 53 c 0
194 1182 m 0
 185 1182 176 1178 166 1171 c 0
 159 1164 155 1156 152 1146 c 1
 150 1134 l 1
 152 1120 l 1
 155 1113 160 1109 168 1109 c 0
 194 1109 210 1121 217 1146 c 2
 221 1162 l 1
 221 1175 212 1182 194 1182 c 0
EndSplineSet
MinimumDistance: x0,-1 
EndChar
StartChar: uni0E44
Encoding: 228 3652
OldEncoding: 3652
Width: 580
Flags: HW
HStem: -46 99<157.865 195.155>
DStem: 144.305 1263.6 257.305 1318.97 128.485 990.14 248.265 1108.79 387.255 1332.53 405.335 1184.5 248.265 1108.79 270.865 969.8 405.335 1184.5 577.095 1296.37 58.4248 113.26 243.745 265.81
Fore
405 1184 m 1
 271 970 l 1
 248 930 219 910 182 910 c 0
 161 910 147 916 140 928 c 0
 129 948 125 969 128 990 c 1
 144 1264 l 1
 144 1270 l 2
 144 1293 135 1310 116 1321 c 1
 215 1398 l 1
 245 1388 260 1365 260 1330 c 1
 257 1319 l 1
 248 1109 l 1
 387 1333 l 1
 412 1375 451 1396 505 1396 c 0
 533 1396 555 1387 573 1370 c 1
 580 1360 584 1348 584 1333 c 0
 584 1322 582 1310 577 1296 c 2
 244 266 l 1
 260 266 l 2
 309 266 343 251 361 222 c 0
 371 207 376 187 376 164 c 0
 376 148 373 131 368 113 c 0
 351 65 325 27 290 0 c 0
 250 -31 206 -46 158 -46 c 0
 109 -46 77 -31 61 0 c 0
 52 16 47 33 47 53 c 0
 47 70 51 91 58 113 c 2
 405 1184 l 1
195 53 m 0
 213 53 229 59 241 69 c 0
 254 82 263 95 266 109 c 2
 271 127 l 1
 266 148 l 1
 260 159 248 164 230 164 c 0
 210 164 194 159 184 148 c 0
 172 137 162 124 156 109 c 1
 153 91 l 1
 158 69 l 1
 164 59 176 53 195 53 c 0
EndSplineSet
MinimumDistance: x16,-1 
EndChar
StartChar: uni0E45
Encoding: 229 3653
OldEncoding: 3653
Width: 635
Flags: HW
HStem: 726 106<403.86 452.45>
VStem: 523 141<646.815 690.885>
DStem: 513.47 595.965 644.55 593.705 191.42 -387.135 328.15 -387.135
Fore
94 619 m 1
 126 671 171 720 229 764 c 0
 287 810 362 832 452 832 c 0
 547 830 610 809 640 770 c 0
 656 750 664 723 664 691 c 0
 664 665 657 632 645 594 c 1
 328 -387 l 1
 191 -387 l 1
 513 596 l 1
 519 612 523 629 523 647 c 0
 523 700 483 726 404 726 c 0
 322 726 253 680 198 587 c 1
 94 619 l 1
EndSplineSet
EndChar
StartChar: uni0E46
Encoding: 230 3654
OldEncoding: 3654
Width: 840
Flags: HW
VStem: 711 139<651 682.775>
DStem: 695.615 572.035 834.605 585.595 503.515 -18.9551 635.725 -27.9951
Fore
485 701 m 1
 455 690 431 672 415 648 c 2
 380 597 l 1
 413 610 l 2
 427 615 444 617 466 617 c 0
 511 617 542 605 557 581 c 0
 566 565 570 548 570 532 c 0
 570 514 567 497 561 482 c 0
 550 442 528 409 494 380 c 0
 460 352 420 338 376 338 c 0
 319 340 279 361 256 400 c 1
 242 420 235 446 235 479 c 0
 235 500 239 526 247 557 c 0
 267 621 305 679 360 729 c 0
 412 777 468 807 528 820 c 1
 585 787 l 2
 604 774 614 765 614 761 c 1
 614 761 l 1
 726 820 l 1
 787 807 826 780 841 740 c 0
 847 726 850 707 850 683 c 0
 850 650 845 618 835 586 c 2
 636 -28 l 2
 612 -101 568 -159 501 -202 c 1
 431 -244 357 -272 279 -285 c 1
 281 -167 l 1
 358 -143 l 1
 401 -132 433 -117 455 -99 c 0
 475 -83 491 -57 504 -19 c 2
 696 572 l 1
 706 606 711 633 711 652 c 0
 711 670 703 687 687 701 c 1
 577 643 l 1
 577 643 l 1
 543 664 l 1
 485 701 l 1
409 435 m 0
 419 435 431 440 444 449 c 0
 453 456 459 465 464 477 c 1
 466 493 l 1
 462 506 l 1
 456 514 447 518 433 518 c 0
 421 518 409 514 400 506 c 0
 389 499 383 489 380 477 c 1
 378 462 l 1
 378 455 379 450 380 449 c 0
 389 440 398 435 409 435 c 0
EndSplineSet
EndChar
StartChar: uni0E47
Encoding: 231 3655
OldEncoding: 3655
Width: 0
Flags: HW
HStem: 837 88<-103.865 -76.7451> 956 108<-301.615 -255.285> 1106 99<-108 -58.665> 1110 104<-228 -205>
Fore
-104 837 m 0
 -126 837 -145 843 -163 856 c 0
 -177 867 -194 881 -213 899 c 1
 -228 919 -242 933 -255 943 c 0
 -267 951 -283 956 -302 956 c 0
 -317 956 -334 942 -355 916 c 0
 -374 890 -388 863 -399 832 c 1
 -430 832 l 1
 -459 848 -479 878 -490 923 c 0
 -496 939 -498 958 -498 978 c 0
 -498 1001 -494 1023 -486 1046 c 1
 -480 1069 -469 1089 -454 1108 c 0
 -424 1147 -391 1174 -355 1192 c 0
 -319 1207 -273 1214 -216 1214 c 2
 -187 1214 l 1
 -169 1212 l 2
 -130 1208 -93 1205 -59 1205 c 0
 -19 1205 11 1212 34 1226 c 1
 55 1242 74 1271 90 1312 c 1
 201 1312 l 1
 176 1235 142 1183 97 1154 c 0
 49 1122 -19 1106 -107 1106 c 0
 -140 1106 -173 1107 -204 1110 c 1
 -256 1110 -295 1104 -322 1091 c 1
 -345 1077 -364 1050 -377 1011 c 1
 -374 1019 -360 1031 -338 1046 c 1
 -316 1058 -288 1064 -255 1064 c 0
 -224 1064 -200 1059 -185 1048 c 1
 -171 1035 -163 1025 -160 1018 c 1
 -130 1064 -85 1087 -24 1087 c 0
 16 1087 44 1075 60 1053 c 1
 66 1041 69 1028 69 1011 c 0
 69 996 67 980 62 965 c 0
 51 930 30 900 0 874 c 0
 -32 849 -66 837 -104 837 c 0
-77 925 m 0
 -51 925 -35 938 -28 965 c 1
 -26 978 l 1
 -26 992 l 1
 -30 999 -38 1002 -51 1002 c 0
 -63 1002 -74 998 -84 990 c 0
 -92 983 -99 975 -104 965 c 0
 -106 960 -107 954 -107 945 c 0
 -107 932 -97 925 -77 925 c 0
EndSplineSet
EndChar
StartChar: uni0E48
Encoding: 232 3656
OldEncoding: 3656
Width: 0
Flags: HW
DStem: 113.115 1567.54 234.025 1567.54 24.9746 1297.46 145.885 1297.46
Fore
25 1297 m 1
 113 1568 l 1
 234 1568 l 1
 146 1297 l 1
 25 1297 l 1
EndSplineSet
EndChar
StartChar: uni0E49
Encoding: 233 3657
OldEncoding: 3657
Width: 0
Flags: HW
Fore
100 1465 m 4
 85 1428 71 1401 59 1384 c 4
 45 1366 34 1356 28 1353 c 6
 63 1361 l 6
 85 1367 105 1375 123 1384 c 4
 141 1394 158 1408 176 1426 c 4
 200 1451 218 1474 230 1495 c 5
 265 1585 l 5
 373 1585 l 5
 326 1439 248 1344 139 1300 c 4
 74 1274 9 1261 -57 1261 c 4
 -70 1261 -88 1263 -111 1266 c 6
 -143 1271 l 5
 -131 1309 l 5
 -102 1326 l 6
 -87 1333 -78 1342 -73 1353 c 5
 -106 1364 l 6
 -125 1371 -138 1384 -146 1402 c 5
 -150 1433 l 5
 -150 1446 -148 1461 -143 1477 c 4
 -131 1508 -109 1535 -78 1560 c 4
 -51 1583 -18 1594 19 1594 c 4
 57 1594 83 1581 97 1556 c 4
 104 1541 108 1525 108 1507 c 4
 108 1492 105 1478 100 1465 c 4
-36 1435 m 4
 -26 1435 -15 1439 -2 1446 c 5
 7 1454 13 1463 15 1474 c 5
 17 1488 l 5
 15 1502 l 5
 10 1510 2 1514 -11 1514 c 4
 -37 1514 -54 1501 -64 1474 c 5
 -66 1463 l 5
 -66 1459 -64 1453 -60 1446 c 4
 -54 1439 -47 1435 -36 1435 c 4
EndSplineSet
EndChar
StartChar: uni0E4A
Encoding: 234 3658
OldEncoding: 3658
Width: 0
Flags: HW
HStem: 1235 68<-217.74 -196.27> 1469 81<-128 -111>
Fore
-218 1235 m 4
 -257 1235 -282 1252 -293 1285 c 4
 -299 1301 -302 1318 -302 1339 c 4
 -302 1363 -299 1385 -291 1404 c 4
 -279 1440 -256 1475 -222 1508 c 5
 -190 1536 -153 1550 -113 1550 c 4
 -89 1550 -70 1545 -57 1536 c 5
 -47 1526 -41 1517 -39 1510 c 5
 -36 1513 -22 1522 3 1536 c 4
 18 1545 38 1550 60 1550 c 4
 99 1550 125 1538 137 1515 c 4
 143 1505 146 1492 146 1475 c 4
 146 1461 142 1442 135 1418 c 4
 123 1386 115 1368 111 1362 c 4
 104 1350 92 1336 76 1318 c 5
 80 1320 90 1326 107 1336 c 4
 122 1345 136 1357 148 1371 c 4
 177 1404 196 1437 206 1469 c 4
 211 1480 214 1498 217 1522 c 5
 314 1554 l 5
 314 1548 l 6
 314 1527 311 1508 305 1492 c 4
 286 1432 252 1378 204 1330 c 5
 166 1296 130 1275 95 1267 c 4
 49 1255 -0 1249 -50 1249 c 5
 -44 1267 l 5
 -41 1283 l 5
 -2 1318 l 5
 14 1336 27 1359 38 1387 c 5
 45 1414 49 1432 49 1444 c 4
 47 1457 35 1464 14 1464 c 4
 -1 1464 -14 1461 -26 1455 c 5
 -50 1436 l 5
 -50 1436 l 5
 -50 1439 -56 1444 -67 1453 c 4
 -80 1463 -97 1469 -118 1469 c 4
 -153 1469 -176 1453 -187 1422 c 5
 -174 1427 l 5
 -141 1429 l 5
 -113 1427 -95 1417 -86 1400 c 4
 -81 1391 -79 1380 -79 1369 c 4
 -79 1355 -82 1340 -88 1325 c 4
 -95 1301 -112 1280 -136 1263 c 4
 -164 1244 -191 1235 -218 1235 c 4
-178 1362 m 4
 -198 1362 -211 1352 -218 1332 c 5
 -220 1320 l 5
 -220 1308 -212 1303 -196 1303 c 4
 -176 1303 -162 1312 -154 1332 c 5
 -152 1346 l 5
 -152 1357 -161 1362 -178 1362 c 4
EndSplineSet
EndChar
StartChar: uni0E4B
Encoding: 235 3659
OldEncoding: 3659
Width: 0
Flags: HW
HStem: 1378 106<-39 44 202 278>
Fore
46 1378 m 5
 -69 1378 l 5
 -37 1484 l 5
 79 1484 l 5
 111 1586 l 5
 227 1586 l 5
 195 1484 l 5
 310 1484 l 5
 278 1378 l 5
 162 1378 l 5
 130 1278 l 5
 14 1278 l 5
 46 1378 l 5
EndSplineSet
EndChar
StartChar: uni0E4C
Encoding: 236 3660
OldEncoding: 3660
Width: 0
Flags: HW
HStem: 1181 79<-93 -75>
VStem: -206 102<1270 1280>
Fore
158 1426 m 0
 154 1426 112 1422 32 1415 c 1
 -16 1413 l 1
 18 1413 42 1403 56 1382 c 0
 63 1369 67 1356 67 1340 c 1
 63 1307 l 1
 52 1275 33 1246 5 1221 c 0
 -24 1194 -56 1181 -92 1181 c 0
 -137 1179 -170 1192 -189 1221 c 1
 -201 1233 -206 1250 -206 1272 c 0
 -206 1290 -203 1307 -197 1322 c 0
 -171 1401 -124 1453 -56 1479 c 0
 -20 1493 21 1501 65 1503 c 0
 107 1505 143 1511 171 1519 c 0
 193 1525 210 1545 222 1579 c 1
 319 1579 l 1
 308 1540 288 1507 259 1479 c 0
 227 1448 193 1430 158 1426 c 0
-49 1336 m 0
 -76 1336 -92 1324 -100 1300 c 1
 -104 1281 l 1
 -104 1267 -94 1260 -74 1260 c 0
 -66 1260 -55 1264 -41 1272 c 1
 -31 1279 -25 1288 -23 1300 c 2
 -21 1311 l 1
 -25 1325 l 1
 -31 1332 -39 1336 -49 1336 c 0
EndSplineSet
MinimumDistance: x19,-1 
EndChar
StartChar: uni0E4D
Encoding: 237 3661
OldEncoding: 3661
Width: 0
Flags: HW
HStem: 903 95<-157.915 -125.145> 1121 95<-86 -56.2148>
Fore
-56 1216 m 4
 -8 1216 26 1201 47 1170 c 5
 54 1149 58 1129 58 1112 c 4
 58 1096 56 1079 51 1061 c 5
 36 1018 10 980 -28 949 c 4
 -67 918 -110 903 -158 903 c 4
 -204 903 -237 918 -257 949 c 5
 -266 969 -271 988 -271 1007 c 4
 -271 1026 -268 1044 -262 1061 c 4
 -251 1103 -225 1139 -185 1170 c 4
 -146 1201 -103 1216 -56 1216 c 4
-125 998 m 4
 -108 998 -91 1004 -74 1017 c 4
 -58 1028 -48 1043 -44 1061 c 5
 -42 1082 l 5
 -46 1102 l 5
 -54 1115 -68 1121 -86 1121 c 4
 -106 1121 -122 1115 -134 1104 c 5
 -149 1094 -159 1080 -165 1061 c 5
 -169 1037 l 5
 -165 1017 l 5
 -158 1004 -145 998 -125 998 c 4
EndSplineSet
EndChar
StartChar: uni0E4E
Encoding: 238 3662
OldEncoding: 3662
Width: 0
Flags: HW
Fore
-91 1231 m 1
 -104 1244 -110 1260 -110 1279 c 1
 -109 1299 l 1
 -93 1340 -58 1371 -4 1391 c 0
 40 1408 85 1416 133 1416 c 0
 170 1416 208 1407 247 1388 c 1
 162 1333 l 1
 134 1336 l 1
 109 1342 l 1
 53 1342 22 1323 14 1285 c 0
 13 1276 21 1267 39 1259 c 0
 54 1252 67 1249 78 1249 c 2
 103 1249 l 1
 52 1173 l 1
 42 1173 l 2
 -49 1173 -100 1148 -110 1098 c 0
 -116 1074 -104 1063 -74 1063 c 0
 -59 1063 -45 1064 -33 1068 c 1
 3 1093 l 1
 59 1038 l 1
 4 998 -58 978 -128 978 c 0
 -211 978 -253 1005 -254 1059 c 1
 -250 1087 l 1
 -235 1160 -181 1208 -91 1231 c 1
EndSplineSet
EndChar
StartChar: uni0E4F
Encoding: 239 3663
OldEncoding: 3663
Width: 741
Flags: HW
HStem: -0 88<219 250> 172 92<274 305.085> 530 83<390 419.466> 698 88<445 477>
Fore
392 530 m 4
 319 530 241 470 217 397 c 0
 193 324 233 264 305 264 c 0
 377 264 455 324 479 397 c 4
 503 470 464 530 392 530 c 4
220 -0 m 0
 99 -0 16 39 -29 117 c 0
 -72 197 -77 289 -43 393 c 0
 -8 501 56 593 149 671 c 0
 242 748 351 786 476 786 c 0
 559 786 625 768 673 731 c 1
 721 692 750 643 759 585 c 0
 770 526 763 462 741 393 c 0
 718 323 683 259 635 201 c 0
 587 143 527 94 454 55 c 1
 382 18 304 -0 220 -0 c 0
447 698 m 0
 351 698 266 668 194 609 c 0
 119 546 69 474 43 393 c 0
 26 340 21 290 29 243 c 0
 36 196 59 159 97 132 c 1
 132 103 182 88 249 88 c 0
 315 88 376 103 433 132 c 0
 490 162 537 200 575 245 c 0
 612 289 639 339 656 393 c 0
 683 475 679 547 645 609 c 0
 612 668 546 698 447 698 c 0
276 172 m 0
 231 172 195 182 166 203 c 0
 139 226 123 254 119 287 c 0
 114 321 117 357 129 393 c 0
 140 428 160 464 188 499 c 0
 213 532 247 559 289 581 c 0
 332 602 376 613 419 613 c 0
 465 613 501 602 530 581 c 0
 557 560 573 533 577 499 c 0
 583 465 580 429 568 393 c 0
 549 334 513 283 460 238 c 0
 406 194 344 172 276 172 c 0
EndSplineSet
EndChar
StartChar: uni0E50
Encoding: 240 3664
OldEncoding: 3664
Width: 761
Flags: HW
HStem: 4 118<263 304.305> 461 121<415 454.595>
VStem: 15 144<206 242.15> 566 144<343.85 378.88>
Fore
265 4 m 0
 161 4 89 33 50 92 c 0
 27 127 15 165 15 207 c 0
 15 235 20 264 30 293 c 0
 46 345 74 392 112 434 c 0
 152 479 201 515 260 543 c 1
 322 569 387 582 455 582 c 0
 523 582 580 569 624 543 c 1
 665 514 691 478 703 434 c 0
 708 415 710 397 710 379 c 0
 710 350 705 322 695 293 c 0
 680 246 652 199 611 152 c 0
 569 106 520 70 463 46 c 0
 402 18 336 4 265 4 c 0
416 461 m 0
 354 461 301 444 256 411 c 0
 212 377 183 337 168 293 c 0
 162 276 159 259 159 242 c 0
 159 217 166 193 180 172 c 0
 200 138 242 122 304 122 c 0
 365 122 419 138 465 172 c 1
 510 208 541 248 557 291 c 0
 563 307 566 324 566 344 c 0
 566 369 559 392 543 411 c 1
 519 444 476 461 416 461 c 0
EndSplineSet
MinimumDistance: x9,-1 
EndChar
StartChar: uni0E51
Encoding: 241 3665
OldEncoding: 3665
Width: 781
Flags: HW
HStem: 481 124<424 466.88>
VStem: 30 131<207.72 245.01>
Fore
173 300 m 0
 165 278 161 259 161 245 c 0
 161 228 165 213 173 201 c 1
 187 175 204 161 224 161 c 1
 214 164 206 174 200 190 c 1
 196 214 l 1
 196 233 199 252 205 270 c 0
 221 314 248 349 284 376 c 0
 324 407 364 422 406 422 c 0
 459 425 495 409 513 376 c 1
 521 359 525 342 525 325 c 0
 525 311 521 289 513 261 c 1
 492 199 454 147 399 104 c 1
 346 60 282 38 207 38 c 1
 135 46 83 72 52 117 c 1
 37 142 30 172 30 208 c 0
 30 235 36 267 48 305 c 0
 63 358 94 408 140 457 c 0
 186 506 237 542 293 566 c 0
 352 592 410 605 467 605 c 0
 580 603 657 573 699 515 c 0
 721 481 732 441 732 395 c 0
 732 358 726 316 712 270 c 1
 668 137 571 25 423 -63 c 1
 367 20 l 1
 419 52 462 89 499 131 c 0
 535 175 562 221 578 270 c 0
 587 298 591 323 591 347 c 1
 589 379 l 1
 582 413 564 437 536 453 c 1
 510 472 473 481 425 481 c 0
 368 481 316 464 270 430 c 0
 223 394 190 351 173 300 c 0
372 316 m 0
 360 316 348 312 337 303 c 0
 326 294 319 283 317 272 c 1
 314 259 l 1
 317 240 l 1
 321 231 329 226 341 226 c 0
 357 226 370 231 381 240 c 0
 391 248 398 259 404 272 c 1
 406 287 l 1
 401 305 l 1
 394 312 384 316 372 316 c 0
EndSplineSet
MinimumDistance: x1,-1 
EndChar
